<?xml version="1.0" encoding="utf-8"?>
<!-- Generator: Adobe Illustrator 16.0.0, SVG Export Plug-In . SVG Version: 6.00 Build 0)  -->
<!DOCTYPE svg PUBLIC "-//W3C//DTD SVG 1.1//EN" "http://www.w3.org/Graphics/SVG/1.1/DTD/svg11.dtd">
<svg version="1.1" id="Layer_1" xmlns="http://www.w3.org/2000/svg" xmlns:xlink="http://www.w3.org/1999/xlink" x="0px" y="0px"
	 width="300px" height="300px" viewBox="0 0 300 300" enable-background="new 0 0 300 300" xml:space="preserve">
<g id="Layer_1_1_">
	<g>
		<path d="M299,1v298H1V1H299 M300,0H0v300h300V0L300,0z"/>
	</g>
</g>
<g id="Layer_2" display="none">
	<g display="inline">
		<path d="M196.104,155.477c1.026,4.623,1.771,7.942,2.467,11.119c-3.494,2.594-7.051,3.067-10.893,2.846
			c-3.596-0.205-7.224-0.252-10.812,0.008c-4.507,0.341-8.964,1.289-13.468,1.549c-4.703,0.277-9.73-0.971-14.088,0.286
			c-8.414,2.418-16.803,1.104-25.181,1.319c-3.881,0.104-7.797-1.09-12.005-1.74c0,6.246-0.826,12.348,0.229,18.1
			c1.09,5.953,1.031,11.318-0.459,17.217c-1.418,5.596,0.945,11.83-2.193,17.828c26.181,0,51.895,0,77.896,0
			c2.236-2.078,4.791-4.457,7.698-7.16c3.54,7.066,6.733,13.438,9.958,19.854c-9.949,3.383-20.296,3.646-29.749,7.549
			c-1.187,0.489-2.741,0.071-4.125,0.071c-24.979,0-49.951,0-74.922-0.018c-2.146,0-4.498,0.522-5.956-2.164
			c0.352-1.14,1.008-2.451,1.131-3.826c0.201-2.197,0.28-4.457,0.015-6.639c-1.126-9.326,2.245-18.398,1.581-27.615
			c-0.451-6.261-0.775-12.654-3.007-18.686c-0.269-0.727-0.352-1.659-0.166-2.402c1.193-4.734-1.612-8.897-1.782-13.467
			c-0.166-4.506-0.253-9.279-1.818-13.377c-1.332-3.498-0.375-7.181-1.664-10.121c-1.537-3.493-1.157-6.805-1.458-10.231
			c-0.086-1.012-0.66-1.979-0.762-2.996c-0.253-2.604-1.363-5.718-0.355-7.742c2.995-5.999,4.651-12.527,7.465-17.854
			c-2.225-11.666-4.355-22.841-6.829-35.814c4.956,3.343,8.37,5.639,12.183,8.211c4.276-1.177,9.022-3.157,13.954-0.174
			c1.015,0.613,3.027,0.605,4.05-0.004c3.798-2.264,7.876-1.312,11.848-1.636c0.937-0.075,1.81-0.925,3.055-1.604
			c0.672,3.233,1.344,6.537,2.039,9.84c0.652,3.083-1.549,6.671,1.656,9.303c-5.9,1.774-11.844,2.948-18.1,2.616
			c-2.509-0.134-5.169,0.767-7.591,1.656c-1.083,0.399-2.241,1.814-2.521,2.972c-1.407,5.825-3.497,11.313-6.69,16.4
			c-0.375,0.597-0.052,1.632-0.052,2.418c2.419,2.249,4.817,4.481,5.975,5.553c0.977,5.982,1.66,10.167,2.348,14.353
			c0.687,4.166,1.378,8.334,2.039,12.317c0.704,0.883,1.372,1.725,2.043,2.568c0.557-0.557,0.949-0.947,0.941-0.938
			c1.608,1.606,3.249,3.252,4.185,4.184c17.317,0,33.12,0.109,48.915-0.071c3.937-0.047,7.856-1.256,11.81-1.524
			c4.142-0.283,8.336,0.197,12.471-0.158C190.207,157.412,192.928,156.307,196.104,155.477z"/>
		<path d="M210.979,55.74c1.69,7.149,7.777,11.931,7.201,19.812c-13.762,6.185-27.766,12.468-42.348,19.016
			c-4.577-4.904-6.869-11.705-11.2-16.909c10.78-5.209,21.136-10.243,31.521-15.199C200.783,60.253,205.493,58.218,210.979,55.74z"
			/>
		<path d="M133.571,79.38c6.035,0.751,12.041-1.565,17.771,2.644c0,5.299,0,11.2,0,17.297c-6.362,0.763-11.879-1.636-17.771-3.481
			C133.571,90.702,133.571,85.545,133.571,79.38z"/>
	</g>
</g>
<g id="Layer_3" display="none">
	<path display="inline" d="M150.675,53.553v64.615H85.9v0.159v53.207v11.567v64.77h64.774v-64.77
		c35.771,0,64.771-28.99,64.771-64.774C215.445,82.563,186.445,53.553,150.675,53.553z"/>
</g>
<g id="Layer_4">
	<polygon points="182.751,67.5 182.751,131.633 115.113,131.633 78.388,131.633 78.388,234.584 115.113,234.584 115.113,162.5 
		182.751,162.5 182.751,234.584 219.499,234.584 219.499,138.031 219.499,131.633 219.499,67.5 	"/>
</g>
<g id="Layer_5" display="none">
	<path display="inline" d="M205.743,101.315c-15.505,0-28.79,9.49-34.377,22.977c-5.587-13.487-18.873-22.977-34.376-22.977
		c-13.309,0-24.978,6.995-31.552,17.506v-17.574H55.613v99.649h49.825v-42.688v-7.426h0.023c0.24-5.012,4.368-9.006,9.44-9.006
		c5.07,0,9.198,3.994,9.441,9.006h0.023v22.727v27.389h49.824v-42.69v-7.442h0.022c0.252-5.004,4.377-8.987,9.44-8.987
		s9.188,3.982,9.438,8.987h0.026v22.746v27.387h49.82v-62.38C242.939,117.968,226.284,101.315,205.743,101.315z"/>
</g>
<g id="Layer_6" display="none">
	<g display="inline">
		<path fill="#070606" d="M166.172,48.487h-17.281v33.998H131.61L58.93,253.279h39.287l13.569-33.285h37.105v-33.998h37.104
			l13.86,33.998h39.299L166.172,48.487z M148.891,151.875v33.994h-23.305l23.305-56.885v-34l23.304,56.89L148.891,151.875
			L148.891,151.875z"/>
	</g>
</g>
<g id="Layer_7" display="none">
	<circle display="inline" fill="#070606" cx="150" cy="150" r="78.447"/>
</g>
</svg>
