<?xml version="1.0" encoding="utf-8"?>
<!-- Generator: Adobe Illustrator 16.0.0, SVG Export Plug-In . SVG Version: 6.00 Build 0)  -->
<!DOCTYPE svg PUBLIC "-//W3C//DTD SVG 1.1//EN" "http://www.w3.org/Graphics/SVG/1.1/DTD/svg11.dtd">
<svg version="1.1" id="Layer_1" xmlns="http://www.w3.org/2000/svg" xmlns:xlink="http://www.w3.org/1999/xlink" x="0px" y="0px"
	 width="20px" height="20px" viewBox="0 0 20 20" enable-background="new 0 0 20 20" xml:space="preserve">
<path d="M15.072,11.334c-1.495,0-2.983,0-4.537,0c0.956,2.288,1.892,4.521,2.837,6.786c-0.755,0.317-1.5,0.635-2.295,0.972
	c-0.985-2.349-1.964-4.685-2.964-7.072c-1.068,1.029-2.105,2.029-3.185,3.071c0-4.681,0-9.302,0-13.85
	C8.285,4.581,11.668,7.947,15.072,11.334z"/>
<path fill="none" stroke="#000000" stroke-width="0.9003" stroke-miterlimit="10" d="M15.167,11.334c-1.495,0-2.983,0-4.538,0
	c0.957,2.288,1.893,4.521,2.837,6.786c-0.755,0.317-1.5,0.635-2.295,0.972c-0.985-2.349-1.964-4.685-2.964-7.072
	c-1.068,1.029-2.105,2.029-3.185,3.071c0-4.681,0-9.302,0-13.85C8.38,4.581,11.764,7.947,15.167,11.334z"/>
</svg>
