<?xml version="1.0" encoding="utf-8"?>
<!-- Generator: Adobe Illustrator 16.0.0, SVG Export Plug-In . SVG Version: 6.00 Build 0)  -->
<!DOCTYPE svg PUBLIC "-//W3C//DTD SVG 1.1//EN" "http://www.w3.org/Graphics/SVG/1.1/DTD/svg11.dtd">
<svg version="1.1" id="Layer_1" xmlns="http://www.w3.org/2000/svg" xmlns:xlink="http://www.w3.org/1999/xlink" x="0px" y="0px"
	 width="786.571px" height="269.112px" viewBox="0 0 786.571 269.112" enable-background="new 0 0 786.571 269.112"
	 xml:space="preserve">
<g>
	<polygon fill="#FFFFFF" points="163.432,205.063 162.514,204.807 163.182,204.99 161.14,204.424 159.946,204.106 	"/>
	<path fill="#FFFFFF" d="M392.363,96.621l-1.262-1.458h-1.741c-1.376,0-2.579,0.684-3.582,2.042
		c-2.142,2.907-6.379,7.373-6.425,7.418l-2.684,5.623l-1.996,0.21c-3.249,0.355-4.402-0.082-6.33-0.93l-0.387-0.173
		c-0.82-0.565-1.854-0.894-2.743-1.167c-1.896-0.592-4.976-0.72-7.956-0.556l1.699-12.021c0.005-0.046,0.406-5.031,2.63-8.995
		c2.788-4.967,4.588-13.47,5.559-18.036l0.15-0.729c0.93-4.311,0.989-12.622,0.994-13.552l-0.014-4.001l-3.987,0.392
		c-0.169,0.019-1.381,0.109-2.921-0.228l-1.103-0.237c-1.052-1.103-2.684-2.36-4.662-2.36c-0.715,0-2.734,0.2-4.023,2.306
		c-1.18-0.848-3.012-1.203-5.021-0.465c-0.565,0.209-1.08,0.365-1.545,0.51c-1.95,0.602-5.545,1.713-5.459,6.197
		c-0.487,1.367-3.345,5.395-6.288,8.84l-8.098,13.834c0.807-5.504,1.438-11.246,1.832-15.183c2.611-0.747,4.634-2.725,5.609-5.614
		c1.417-4.147,1.572-18.373-1.331-22.428c-1.244-1.741-2.848-2.005-3.691-2.005c-0.943,0-1.864,0.31-2.675,0.902
		c-0.93,0.693-3.777,1.75-6.061,2.606c-5.519,2.051-8.708,3.335-10.048,5.714c-0.574,1.012-2.123,2.014-2.766,2.333l-10.513,5.012
		l14.108,2.224c-2.966,3.308-6.584,7.81-8.854,12.267c-1.608,3.144-2.52,3.764-2.907,4.028c-2.98,2.014-2.119,4.529-1.357,6.753
		c0.342,0.993,0.811,1.704,1.326,2.224c-1.813,4.939-2.037,7.008-2.132,9.168c-0.055,1.194-0.096,2.142-1.171,4.967
		c-0.97,2.57-1.262,2.424-1.257,2.406c-3.7,1.686-2.415,4.994-1.475,7.418c0.285,0.729,0.741,1.896,1.593,2.77
		c0.05,0.419,0.109,0.894,0.173,1.431c0.406,3.363,0.751,5.422,1.025,7.054c0.465,2.761,0.697,4.147,0.702,9.132
		c0,2.834-0.123,5.368-0.283,7.446c-1.918,1.075-2.538,3.764-2.944,5.532c-1.103,4.793,1.107,9.259,2.885,12.85
		c0.15,0.31,0.305,0.619,0.456,0.93l0.588,6.707l-0.912,1.531c-2.793,4.676-5.208,8.713-6.042,12.55
		c-0.651,3.007-2.365,8.284-3.495,11.774l-0.756,2.352c-1.002,3.226-8.863,29.928-8.863,29.928l-3.782,12.851
		c-1.7,0.684-4.32,1.531-6.521,1.641l0.715-1.632c0.756-1.74,4.52-10.653,4.183-15.438c-0.132-1.924,2.051-5.942,3.568-8.057
		l0.465-0.894c0.3-0.829,7.382-20.496,8.461-27.276c1.005-6.307,4.079-19.047,4.11-19.175l0.178-0.729l-3.331-18.91
		c-0.1-2.761-0.988-27.44-1.048-34.358c-0.045-5.413,1.075-7.446,1.048-7.446h-0.004l0.879-1.066l-0.305-6.352
		c-0.018-0.374-0.032-0.684-0.045-0.948c0.528-1.039,0.756-2.232,0.92-3.098c0.319-1.695,0.505-2.698,0.447-3.463
		c0.505-1.112,1.74-3.007,2.971-4.521l3.317-7.245c1.896-4.365,2.164-7.272,0.87-9.405c-0.64-1.057-1.631-1.805-2.748-2.087
		l-10.444-3.754c-1.258-1.094-4.001-3.007-7.724-3.007c-7.573,0-13.875,7.573-18.724,22.51c-4.712,14.49-8.166,15.146-8.202,15.146
		c-0.465,0-1.7-1.34-2.319-2.698l-2.365-5.268l-3.721,4.429c-0.025,0.027-2.427,2.853-8.514,6.89
		c-1.713,1.139-2.802,1.813-3.472,2.205c-2.06-0.51-4.429-1.212-5.072-1.567c-0.319-0.182-0.661-0.346-0.998-0.501l1.03-2.917
		l-1.914-3.472l-4.657,0.392l-1.189,3.29v0.027l-1.728,4.757l1.427,14.928l0.109,0.255l-0.023,2.396l0.474-1.349l5.764,13.424
		l5.956-11.237c2.816-0.41,7.77-1.567,11.469-4.812c1.326-1.158,2.096-1.641,2.616-1.969c2.014-1.267,2.556-2.178,4.005-5.504
		c0.442-1.002,1.64-1.458,4.27-2.242c2.424-0.72,5.441-1.622,7.788-4.019c1.618-1.65,2.055-1.741,2.666-1.859
		c0.748-0.146,1.877-0.364,3.294-1.23c0.52-0.31,1.099-0.62,1.709-0.948c2.403-1.285,5.404-2.889,7.814-5.833
		c0.871-1.066,1.673-2.124,2.361-3.071c0.283,1.249,0.464,2.306,0.428,2.789c-0.2,1.686-3.613,9.35-5.181,12.13
		c-1.199,2.132-1.167,5.149-1.13,8.968c0.023,2.47,0.045,5.021-0.305,6.898c-0.351,1.841-0.925,2.771-1.786,4.184
		c-0.943,1.54-2.119,3.463-3.021,6.726l-0.351,1.267l0.542,1.194c1.7,3.746,4.188,9.497,5.769,13.607l-7.765,0.191l-0.269,3.772
		l-2.475-0.173l-1.125-2.233c-1.39-2.771-3.486-3.18-4.611-3.18c-2.502,0-4.188,1.841-5.819,3.627
		c-0.925,1.012-2.191,2.405-3.032,2.67c-1.358,0.446-2.673,0.866-3.529,1.649c-1.513,0.738-2.625,1.75-3.459,2.671
		c-0.61-1.167-1.294-2.625-1.845-3.992l-0.479-1.176l-2.798-1.576c-1.267-0.702-2.679-0.803-4.046-0.894
		c-2.15-0.155-3.641-0.347-4.762-1.559c-1.727-1.868-3.559-2.816-5.44-2.816c-2.698,0-4.479,1.886-5.182,3.5l-0.383,0.884
		l0.456,4.257c0.383,3.69,1.905,8.192,1.969,8.375l0.277,0.747l0.488,0.547c0.009,0.009,1.089,1.249,1.736,3.6
		c0.738,2.652,0.642,4.603,0.642,4.603l-0.273,3.801c-0.314,0.956-1.613,4.547-5.933,13.369c-3.687,7.537-3.417,11.128,1.062,14.244
		c0.925,0.638,1.541,1.066,2.001,2.16c0.984,2.342,1.572,3.745,2.52,4.447c-0.369,0.347-0.793,0.738-1.176,1.085
		c-1.326,1.212-3.146,2.87-5.217,5.158c-0.201,0.228-0.392,0.428-0.565,0.619c-0.879,0.137-1.645,0.538-2.301,0.938
		c-3.258,1.978-3.812,3.901-4.199,6.197c-0.171,1.03-0.362,2.188-1.288,4.083c-1.618,3.29-5.81,5.642-7.669,6.452l3.707-9.605
		c0.071-0.255,1.702-6.252,1.515-12.513c-0.087-2.825,0.784-7.108,1.788-12.066c0.823-4.064,1.757-8.667,2.358-13.47
		c0.62-4.894,0.829-6.589,0.26-7.618c-0.027-0.656-0.05-1.896-0.005-4.184c0.112-5.823,0.524-9.269,0.887-12.303
		c0.339-2.816,0.654-5.469,0.626-9.232c-0.086-10.034-1.171-16.632-3.327-20.187c-0.474-0.784-0.615-1.276-0.656-1.503l3.582-5.997
		l1.982-19.275l-2.023-12.422l0.438-2.725c1.649,0.073,3.75,0.137,5.924,0.137c8.503,0,11.273-0.948,12.818-2.37l0.62-0.574
		c2.128-1.941,4.126-3.809,5.673-7.017c1.756,0.665,3.504,1.13,5.213,1.13c9.724,0,14.094-10.49,14.276-10.936l2.948-7.254
		l-7.437,2.47c-0.433,0.146-9.614,3.208-15.488,6.233c-0.364-0.246-0.774-0.465-1.121-0.738c-3.9-3.116-4.497-3.59-6.074-3.59
		c-1.103,0-3.098,0.638-3.654,2.989c-0.209,0.027-0.483,0.045-0.829,0.055c-1.909,0.064-3.418,0.146-4.616,0.219
		c-0.474,0.027-0.889,0.045-1.308,0.063c-0.77-1.85-2.483-2.953-4.712-2.953c-0.674,0-1.513,0.119-2.506,0.273
		c-1.267,0.209-2.752,0.438-4.447,0.319c-1.632-0.109-2.342-0.155-2.629-0.155l-2.702,0.018l-0.278,0.784
		c-1.554,0.21-2.37,0.374-3.049,0.902c-0.301,0.101-0.752,0.228-1.44,0.419c-3.363,0.929-4.855,2.771-5.514,4.156
		c-0.688,1.449-0.706,2.834-0.556,3.864l-3.304,9.45l-1.326,16.997l-5.213,19.111l-2.096,2.506
		c-2.738,3.244-2.012,6.762-1.572,8.867c0.105,0.492,0.255,1.23,0.273,1.321c-0.697,2.051-1.016,3.682-0.893,4.985
		c0.214,1.358,0.255,2.971,0.132,4.037c-0.506-1.294-1.112-2.588-1.841-3.782c-0.501-0.829-0.629-1.257-0.679-1.267
		c0.077-0.182,0.191-0.328,0.296-0.501c0.652-1.048,1.736-2.816,1.536-5.632c-0.064-0.912-0.073-1.686-0.086-2.452
		c-0.046-2.743-0.091-5.577-2.11-12.476c-0.246-0.838-0.392-1.458-0.479-1.896c0.383-0.355,0.684-0.792,0.902-1.294
		c0.752-1.741,0.109-3.372-0.556-4.757c-0.077-0.173-0.132-0.301-0.164-0.401c0.005-0.009,0.014-0.018,0.023-0.027
		c0.597-0.793,2.406-3.217,0.611-6.097c-0.492-1.777,0.442-10.089,1.667-17.106l0.41-6.024c-0.004-0.875-0.187-8.384-4.411-12.978
		l12.016-3.9l-14.117-2.57c-0.059-0.009-5.6-1.121-8.443-5.286L142.503,5.395l0.164,29.491c0.037,6.753-0.465,15.32-1.342,17.361
		c-1.793,4.174,0.335,8.102,3.401,10.453l1.618,7.09L149.393,70c-0.009,1.021-0.114,1.877-0.305,2.224
		c-0.538,0.957-0.861,1.832-1.155,2.662c-0.421,1.185-0.579,1.631-1.789,2.515c-2.246,1.649-2.83,3.6-2.921,4.949
		c-0.073,1.03,0.119,1.968,0.424,2.752l-1.937,2.807c-2.324,3.363-2.62,4.794-2.98,7.236c-0.191,1.303-0.428,2.916-1.29,5.915
		c-1.805,6.27-1.549,10.252-1.121,12.331c-1.18,2.998-3.545,7.364-6.069,8.822c-5.71,3.29-4.639,11.137-3.86,16.86
		c0.05,0.364,0.101,0.729,0.146,1.085c-0.692-0.146-1.586-0.355-2.534-0.584c-1.321-2.087-3.773-5.14-7.459-5.14
		c-0.278,0-0.551,0.1-0.825,0.137c0.223-2.251,0.693-4.867,1.554-7.865c1.208-4.183,0.984-7.427-0.684-9.924
		c-2.411-3.6-6.895-4.101-10.166-4.465c-0.853-0.101-2.042-0.228-2.734-0.401c-0.187-0.938-0.292-1.695-0.383-2.378
		c-0.396-2.907-0.793-4.903-3.759-9.141c-3.112-4.447-4.11-5.258-6.689-6.553c-0.41-0.209-0.894-0.446-1.486-0.783
		c-1.121-0.629-2.438-0.976-3.914-1.012c0.661-1.167,1.271-2.524,1.761-4.083c0.795-2.497,1.26-4.365,1.401-5.842l0.893-0.456
		c3.887-1.996,4.539-3.864,5.35-6.99c0.228-0.866,0.505-1.95,0.979-3.363c0.866-2.57,1.144-4.411,1.194-5.979
		c0.485,0.802,0.911,1.549,1.354,2.315c-0.879,1.121-0.857,2.743-0.793,4.903c0.155,4.903,0.191,11.438,0.191,11.447l-0.137,0.538
		l0.387,0.757c0.014,0.045,0.355,1.093,0.852,5.003l1.559,11.884l1.682,0.866c0.346,0.182,1.39,0.829,2.078,1.713
		c1.385,1.769,3.682,2.661,6.826,2.661c1.089,0,1.891-0.109,1.891-0.109l1.567-0.219l0.897-1.285
		c0.684-0.966,2.283-3.226,3.778-46.26l0.679-19.566l-12.121,28.68c-0.625-0.574-1.185-1.212-1.518-1.868
		c-0.082-0.164-0.183-0.346-0.31-0.574c0.109-3.235-1.335-5.906-2.616-8.083c-1.431-2.434-2.292-4.028-1.996-6.042
		c0.533-3.655,0.661-4.521-0.483-5.851l-1.098-1.257h-1.654l-1.909,0.437c-0.027-0.082-0.055-0.173-0.086-0.273
		c-0.916-2.816-2.752-4.42-3.81-5.149l-1.955-2.233c-1.33-1.531-2.137-2.46-3.877-2.46L86.92,35.37
		c-0.679-0.228-1.089-0.319-1.631-0.319l-3.458,0.137l-0.087,1.23c-0.31,0.027-0.93,0.101-2.219,0.31
		c-2.67,0.437-4.02,1.886-4.68,3.017c-1.135,1.95-0.866,4.01-0.595,5.094c0.034,1.021,0.098,3.828-0.084,7.145
		c-0.807,1.148-0.852,2.442-0.934,4.875c-0.078,2.206-0.183,5.231-0.875,7.737c-0.2,0.729-0.333,1.222-0.428,1.55
		c-0.501,0.701-1.016,1.75-1.8,3.59l-0.597,1.422c-1.148,2.716-1.148,2.716-2.36,3.572l-0.797,0.565
		c-0.242,0.173-0.438,0.31-0.597,0.429c-0.843,0.055-2.137,0.292-4.629,1.112l-1.987,0.647l-3.513,16.896l1.978,5.204
		c1.13,3.017,2.853,4.539,5.122,4.539c0.971,0,1.809-0.301,2.511-0.784c1.559,0.255,3.764,0.438,6.48,0.137
		c0.779,0.52,1.59,0.775,2.019,0.911c0.127,0.037,0.246,0.073,0.351,0.109c0.296,0.219,0.638,0.438,1.039,0.629
		c0.93,0.474,1.536,0.902,1.805,1.103l5.732,7.591c1.331,1.695,2.388,2.679,3.326,3.545c1.098,1.021,1.964,1.822,3.258,3.9
		c1.627,2.625,3.764,3.017,4.894,3.017c1.043,0,1.946-0.301,2.72-0.702c0.661,1.395,1.39,2.388,2.051,3.09l0.41,5.158
		c0.287,3.572,0.597,5.204,0.925,6.936c0.301,1.586,0.647,3.399,1.071,7.327c0.747,6.854,5.058,9.515,8.448,11.392
		c0.014,0.419,0.032,0.82,0.043,1.167c0.098,2.15,0.125,2.798-0.317,5.076l-0.707,3.663l-1.413,3.181
		c-0.961,1.194-3.549,4.584-4.744,7.729c-1.216,3.198-2.47,7.71-3.331,10.809c-0.178,0.629-0.561,1.439-1.007,2.242
		c-1.176-3.054-1.745-11.647-1.235-19.995l0.014-0.256l-0.018-0.255c-0.014-0.146-0.31-3.718-1.577-8.229
		c-1.321-4.611-2.734-7.437-4.452-10.234l-0.538-0.93c-1.536-2.688-3.007-4.757-7.96-6.799l-7.521-3.08l-0.667,0.966
		c-0.242-0.063-0.538-0.146-0.898-0.255c-1.112-0.347-2.228-0.556-3.326-0.747c-2.374-0.41-3.199-0.638-3.896-1.714
		c-0.852-1.312-1.841-2.241-2.638-2.979c-1.55-1.449-2.256-2.115-1.486-6.143l1.65-8.604l-0.012-0.383
		c-0.13-7.281-0.189-10.608-4.126-10.608l-2.939,0.027L56.084,114c-0.141,0.173-0.695,0.547-1.053,0.802
		c-1.376,0.938-3.673,2.515-3.882,5.523c-0.064,0.884-0.055,1.521-0.046,2.205c0.023,1.167,0.046,2.488-0.576,6.644l-0.896,6.115
		l-3.188,9.496c-1.064,0.565-2.518,1.468-4.112,2.853c-1.016,0.875-2.037,1.987-2.242,3.637c-0.31,0.31-0.907,0.848-2.014,1.723
		c-0.442,0.346-0.752,0.556-0.953,0.692c-2.415,0-2.447,0.036-10.467,11.191c-4.68,6.516-6.794,7.828-8.339,8.795
		c-3.071,1.913-4.552,3.436-7.924,11.938c-2.971,7.491-3.686,9.059-4.046,9.843c-0.392,0.847-0.401,0.838-2.046,5.522l-0.72,2.06
		c-2.542,7.19-3.568,9.888-3.582,9.925l6.438,3.217c0.046-0.073,4.384-6.944,7.45-10.617c1.918-2.288,3.518-5.404,4.803-7.911
		c0.447-0.865,1.007-1.959,1.44-2.697c0.022,0.092,0.05,0.183,0.077,0.273c0.572,2.005,1.531,5.359,4.803,5.359
		c3.363,0,4.279-3.309,5.25-6.817l1.276-4.62l1.95-4.584c0.812-0.693,1.526-1.35,2.188-1.951c1.667-1.531,2.593-2.342,3.627-2.661
		c0.419,0.183,0.998,0.365,1.709,0.365c1.877,0,3.372-1.103,6.849-4.028c3.13-2.625,4.867-5.678,6.015-7.692
		c0.005-0.009,0.005-0.009,0.005-0.009c3.199,3.208,6.708,5.878,8.279,7.026c1.107,2.442,4.184,9.187,5.65,12.058
		c1.527,3.007,5.541,4.019,10.185,5.194c0.615,0.155,1.367,0.347,2.124,0.556c-0.46,1.268,0.027,2.57,1.13,5.541
		c0.51,1.386,0.301,4.083,0.078,6.936c-0.583,7.455-1.463,18.729,9.574,26.803c9.938,7.272,10.982,9.141,12.421,11.729
		c0.542,0.975,1.13,2.022,2.039,3.335c0.914,1.312,2.235,2.196,3.771,2.032c2.57,0,6.858-0.282,15.461-36.69l0.15-0.465
		c3.153-9.615,5.058-15.42,5.714-24.743l0.811-11.574c0.333-0.419,0.606-0.92,0.788-1.504c0.615-1.968,0.62,1.048,0.406,4.138
		c-0.271,3.746,0.068,5.486,0.337,6.89c0.16,0.829,0.251,1.285,0.183,2.233c-0.324,4.647,1.426,6.607,2.191,7.236l0.67,0.546
		l12.914,2.853l1.084-0.482c1.03-0.456,4.397-2.206,4.388-5.56c-0.005-1.54-0.725-3.69-4.101-5.158
		c-1.923-1.03-4.707-10.024-5.302-15.739c-0.189-1.768-0.636-4.219-1.087-6.644c-0.401-2.142-0.797-4.265-0.966-5.769
		c-0.142-1.294-0.084-2.087-0.005-3.181c0.086-1.203,0.191-2.707,0.027-5.03c-0.096-1.386,0.469-1.987,1.189-2.753
		c0.588-0.629,1.477-1.576,1.54-2.679c0.082-0.328,0.328-1.094,0.659-2.16c1.082-3.454,3.124-9.952,4.317-15.912l0.132,1.285
		c0.301,2.798,1.262,5.568,1.791,6.936l-0.223,3.262c-0.164,2.279-0.18,2.461-0.059,3.199c0.045,0.273,0.114,0.838,0.168,3.764
		c0.096,5.724,2.137,10.426,3.185,12.477l-0.223,3.199l2.593,6.042c0.037,1.176,0.041,3.955-0.524,6.625
		c-0.501,2.324,0.082,6.398,1.153,13.388c0.843,5.486,2.119,13.78,1.458,16.259l1.189,0.337l2.296,0.602c0,0.01,0,0.027-0.004,0.037
		c0,0,0.009-0.027,0.009-0.037l3.495,0.93c0.169-0.638,1.677-6.425,2.251-14.509c0.168-2.405,0.451-3.271,0.433-3.354
		c1.135-0.665,2.365-1.668,2.953-4.01c0.296-1.203,0.438-2.825,0.615-4.876c0.378-4.338,0.943-10.891,3.422-15.247
		c2.72-4.793,2.984-7.145,3.058-9.952c0.032-1.193,0.059-2.214,0.533-3.937c0.865-3.126,1.157-4.165,0.46-5.368
		c0.009-0.082,0.014-0.173,0.018-0.273c0.16-2.323,1.577-5.577,2.948-8.73c1.05-2.415,2.142-4.912,2.866-7.391
		c1.125-3.828,1.039-8.084,0.975-11.501c-0.027-1.431-0.068-3.381,0.073-3.919c0.702-2.014,3.044-6.479,5.445-9.934
		c-0.451,2.442-1.039,5.25-1.568,7.765c-1.376,6.562-2.935,13.999-3.659,20.897c-0.324,3.107-0.524,5.212-0.638,6.607
		c-0.499,0.793-0.802,1.677-1.034,2.37c-1.454,4.237-1.595,5.851-1.754,8.812c-0.087,1.604-0.201,3.745-0.675,7.4
		c-0.742,5.668-0.606,7.81,0.625,9.305c-0.16,3.235-0.579,8.476-1.69,14.317c-1.053,5.522-1.271,6.68-0.483,7.883
		c-0.324,6.525-1.021,19.102-1.791,24.26c-0.574,3.81-0.469,10.162-0.214,15.693l-10.645,4.129l10.822-0.812
		c0.241,4.056,0.508,7.137,0.537,7.446l2.688,30.083l5.527-36.818l0.542-1.412l4.115-0.301
		c15.486-1.167,28.799-11.283,33.807-15.092c0.747-0.565,1.29-0.994,1.613-1.186c0.651-0.4,1.298-0.619,1.9-0.848
		c1.677-0.619,3.969-1.476,5.468-4.164c0.187-0.328,0.834-0.338,0.783-0.338l6.042,0.42l7.191-2.589l10.587,22.902
		c-0.59,0.602-0.891,1.258-0.996,1.577c-0.342,1.029-0.283,2.06,0.2,3.126c-10.973,3.181-14.399,4.748-15.693,5.659
		c-0.711-0.091-1.784-0.438-2.378-0.692l-2.16-0.938l-1.732,1.604c-1.298,1.193-4.229,4.356-3.34,7.847
		c0.296,1.167,1.281,3.244,4.516,4.056c2.907,0.738,4.019,0.774,5.381,0.61c0.287-0.036,0.62-0.082,1.294-0.063l0.447,0.902h2.288
		c0.597,0,0.911-0.082,3.349-0.656c0.674-0.164,1.117-0.246,1.394-0.283l1.222,0.146c1.18,0,1.781-0.365,3.772-1.567
		c0.725-0.438,1.509-0.976,2.156-1.668c2.178,0.055,4.375-0.301,5.997-0.665c1.28,0.482,2.661,0.392,5.236-0.429
		c4.133-1.321,6.776-3.399,7.701-4.21c1.321-0.839,5.942-4.011,8.648-8.832c1.267-2.25,1.632-3.654,1.905-4.675
		c0.296-1.13,0.51-1.941,3.13-5.14c1.043-1.267,2.16-2.861,2.383-4.603c0.41-0.183,0.87-0.383,1.398-0.62
		c4.625-2.041,6.147-2.515,6.881-2.733c1.403-0.438,1.791-0.72,3.436-1.923c0.707-0.52,1.185-1.066,1.504-1.604
		c0.005,0,0.014,0,0.019,0c3.126-0.51,5.245-0.72,6.775-0.865c4.484-0.447,5.732-0.866,8.795-4.302
		c5.158-5.787,7.678-7.929,8.279-8.238l1.796-0.702c0.159-0.063,0.328-0.128,0.496-0.191l0.652-0.255l-0.004-0.019
		c1.754-0.766,3.632-1.95,3.367-4.338c0.164,0.292,0.26,0.629,0.265,1.021c0.041,5.705,3.941,5.987,4.725,5.987
		c5.381,0,11.374-11.428,12.039-12.731c2.229-4.365,1.408-8.694,0.962-10.325c-0.101-4.693,0.191-9.597,0.656-11.41
		c0.743-0.511,1.335-1.222,1.722-2.069c1.194-2.633,0.055-5.878-0.495-7.153l-0.863-2.032c0,0-18.527,8.312-19.159,8.994l1-11.546
		c0.004-0.037,0.118-1.304,0.351-3.199c0.574-1.986,1.741-3.864,3.522-5.577c0.763-0.738,1.294-1.23,1.663-1.55
		c1.062-0.246,1.791-1.139,4.384-4.302c2.055-2.497,2.98-3.964,3.554-5.103c0.096-0.045,0.201-0.1,0.319-0.155l0.415-0.191
		c1.472,1.458,3.805,3.153,7.364,4.383c3.121,1.085,5.131,1.75,6.958,1.75c2.598,0,4.192-1.275,5.732-2.688l2.06-1.896
		l-1.066,15.119l7.737-7.91c3.536-3.582,5.04-5.331,6.751-12.741c0.971-4.21,0.775-6.489,0.604-8.512
		c-0.141-1.695-0.269-3.162,0.447-6.261C394.445,99.237,393.388,97.906,392.363,96.621z M262.227,192.495
		c-0.063-0.072-0.118-0.146-0.173-0.219c-0.146-0.838-0.446-1.54-0.634-1.978c-1.043-2.405-3.139-3.791-5.769-3.791
		c-1.18,0-2.273,0.273-3.326,0.547c-1.654,0.419-3.14,0.729-4.488,0.137c-1.91-0.829-2.939-1.248-3.637-1.531
		c-1.185-0.474-1.18-0.492-3.613-1.85c-0.661-0.374-0.61-0.511-0.574-0.675l0.319-1.321c0,0,0.451-5.177,0.524-7.564
		c0.123-0.409,0.857-1.349,1.554-2.005c1.527-0.975,5.223-3.882,7.164-10.115c0.365-1.167,0.652-2.17,0.843-3.044l5.281-3.172
		l1.335,0.101l8.389,7.746l5.117,8.913l-6.89,21.344C263.197,193.634,262.71,193.133,262.227,192.495z M341.983,74.302
		c-0.305,0.984-0.301,2.598-0.296,6.325c0,5.158-0.205,6.498-0.424,7.911c-0.132,0.875-0.271,1.777-0.378,3.308l-0.679,9.569
		c-0.096,0.41-0.195,0.847-0.31,1.331c-1.203,5.076-1.066,7.118-0.761,9.259c0.164,1.148,0.292,2.06-0.246,4.821
		c-0.72,3.709-0.447,5.951-0.224,7.756c0.237,1.932,0.369,3.007-1.07,6.188c-2.283,5.058-3.603,12.795-4.311,18.418
		c-0.611,2.524-0.46,4.338-0.419,4.693l1.892,14.864c-2.57,1.53-5.108,2.26-5.141,2.269l-1.403,0.393l-0.738,1.248
		c-0.096,0.164-0.214,0.347-0.342,0.538c-0.492-0.21-1.066-0.347-1.722-0.347c-2.296,0-3.737,1.687-4.215,2.242
		c-0.729,0.856-1.18,1.658-1.444,2.388c-3.646,1.048-6.402,1.813-7.728,2.188c0.164-0.492,0.406-1.112,0.779-1.905
		c2.347-4.994,2.729-8.73,3.035-11.729c0.287-2.798,0.456-4.484,2.092-6.489c4.611-5.668,5.163-7.637,6.061-11.938l0.137-0.647
		c0.642-3.099,0.747-6.479,0.747-8.43c0.975-1.385,1.538-3.509,0.711-6.516c-0.101-0.355-0.273-0.984-0.629-1.622
		c-0.06-0.383-0.132-0.83-0.219-1.358c-1.258-7.747-2.092-12.859-3.231-15.785c-0.328-0.847-0.82-1.458-1.376-1.886
		c0.086-0.857,0.191-1.887,0.324-3.108c0.875-8.129,0.61-11,0.355-12.531c0.137-0.355,0.414-0.802,0.879-1.632
		c1.281-2.278,2.425-7.974,3.354-14.125l14.918-4.575l2.023-1.167V74.302z"/>
	<path fill="#FFFFFF" d="M785.56,198.51l-1.508-1.258h-1.572c-1.035,0-2.319,0.291-4.097,0.692
		c-2.119,0.483-4.757,1.075-6.698,1.075c-0.319,0-0.565-0.018-0.752-0.036c-0.082-1.54,0.446-4.393,0.811-6.37
		c0.834-4.484,1.495-8.038-0.465-10.39c-1.371-1.649-3.567-2.15-5.969-1.221l-6.124,2.378l-0.542,0.557
		c-1.035,1.048-4.471,4.721-5.4,7.728c-0.26,0.839-1.822,2.816-3.222,4.293l-3.03,1.485c-4.051-4.056-7.924-4.985-10.612-4.985
		c-2.917,0-4.849,1.075-5.204,1.294l-1.846,1.112l0.105,2.15c0.004,0.128-0.078,0.747-0.552,0.866
		c-3.176-0.219-7.92,0.146-11.159,0.419c-1.172,0.091-2.16,0.173-2.953,0.2c-1.973-3.144-2.196-6.124-2.383-8.584
		c-0.15-2.033-0.511-6.799-5.067-6.799c-1.444,0-2.984,0.574-5.317,1.986c-4.493,2.716-5.527,3.563-6.065,4.02
		c-0.287,0.164-0.793,0.373-2.068,0.93l-0.67,0.3c-0.396,0.174-0.866,0.383-1.354,0.593c0.118-0.629,0.142-1.357-0.091-2.105
		c0.236-2.188,0.4-4.793,0.574-7.527c0.236-3.764,0.482-7.664,0.934-10.955c0.606-4.483-1.772-6.606-3.736-7.709
		c0.291-1.695,0.646-3.81,1.029-6.325c1.545-2.261,3.454-4.784,5.91-7.783l20.451-24.953l16.322-30.074l-0.06-1.021
		c-0.752-12.914-2.082-18.218-3.222-20.569c0.196-2.935,1.044-8.54,3.522-11.191c4.644-4.985,10.631-15.247,10.882-15.685
		l0.26-0.556c1.723-4.63,1.198-6.361,0.373-7.546l-1.335-1.686h-1.891c-2.087,0-3.705,1.294-6.908,5.55
		c-3.472,4.603-4.871,5.013-5.796,5.277c-1.65,0.483-3.268,1.13-4.936,3.819c-1.398,2.26-8.097,6.024-12.18,7.855l-0.479,0.265
		c-2.488,1.604-5.596,3.645-7.938,5.186l-0.442-0.419h-1.577c-2.957,0-4.57,2.862-6.37,6.598c-1.74,3.627-5.468,12.13-8.069,18.583
		c-0.479-0.857-1.099-1.604-1.632-2.26c-0.287-0.346-0.72-0.875-0.998-1.358c1.513-0.492,2.092-2.096,3.486-5.96l3.427-9.478
		l-0.67-1.376c-0.465-0.957-1.213-3.263-0.916-4.511c0.761-3.208,0.988-12.185,1.016-13.789l0.283-4.128l-0.615-0.984
		c-0.461-0.747-0.93-1.622-1.285-2.388l2.711-1.048l-4.67-12.649l-3.437-5.796l-7.432-7.227c1.545-3.189,2.446-6.689,1.444-9.779
		C676.243,0.51,673.003,0,671.683,0c-3.305,0-5.833,2.78-6.525,3.627l-1.81,1.604l1.335,2.188c0.205,0.756-0.355,3.791-5.399,8.64
		c-2.324,2.242-4.771,3.381-7.277,3.381c-2.935,0-5.095-1.549-5.095-1.549l-1.125-0.856l-21.759,2.05l24.812,16.122l1.646-2.944
		c0.605,0.219,1.093,0.346,1.612,0.456l3.382,0.693c0.815,0.219,1.858,0.51,3.222,0.938l4.948,1.531
		c0.62,2.98,1.003,7.546,1.176,10.38c-0.702,1.413-1.03,3.29-1.354,5.14c-0.853,4.939-3.417,14.062-3.905,15.785
		c-1.567,3.281-3.518,7.164-4.041,7.911l0.014,0.009c-1.755,1.951-3.491,6.152-2.994,8.831c-2.666,4.648-4.02,9.906-0.82,12.549
		l-1.718,6.854c-0.415,0.738-0.866,1.349-1.304,1.941c-0.314,0.429-0.624,0.866-0.911,1.304c-0.128-4.42-0.146-9.46-0.009-15.22
		l-7.209-0.438l-1.791,18.09c-0.072-0.109-0.15-0.209-0.246-0.31c-0.018-0.255-0.036-0.547-0.055-0.884
		c-0.036-0.574-0.063-1.094-0.086-1.567l0.191-4.42c0.318-7.5,1.007-16.504,1.617-19.02c1.029-1.267,2.06-4.338,1.937-14.135
		l-0.036-3.089l-32.193-4.666l-7.351,1.978l-0.802,0.319c-1.973,1.075-11.897,6.525-13.729,7.774
		c-2.528,1.731-4.206,5.86-4.657,7.081l-0.296,0.857l0.101,0.856c0.004,0.019,0.072,0.656,0.031,2.014
		c-1.627-3.764-3.978-6.006-8.202-7.765c0.188,0.119,0.747,0.656,0.861,1.604c0.063,0.492-0.022,0.911-0.137,1.212l-3.121-6.233
		l-5.437,2.652c-1.002,0.201-5.604,0.884-13.61-2.296c-0.347-0.137-0.665-0.265-0.952-0.392l0.482-0.155l-3.586-25.591l-4.443,2.105
		c-1.029,0.483-10.166,4.821-13.301,6.999c-1.759,1.221-2.82,1.968-2.957,3.563c-0.005,0.027-0.196,0.483-1.145,1.813
		c-0.455,0.638-0.774,1.084-0.997,1.403c-0.62,0.492-1.212,1.185-1.937,2.042c-1.545,1.813-2.73,3.217-2.32,5.003
		c-0.091,0.273-0.236,0.684-0.487,1.285c-1.043,2.506-1.868,5.076-1.161,7.172l-5.938,21.034c-0.229,0.547-2.206,5.541-2.092,10.316
		c0.2,8.312-0.502,15.092-1.974,19.083c-1.722,4.667-2.465,5.031-5.591,6.571l-0.542,0.273c-0.433,0.219-0.766,0.511-1.126,0.775
		c1.167-1.631,2.142-3.39,2.848-5.632c0.306-0.993,1.121-2.16,1.987-3.39c2.301-3.281,5.778-8.229,2.47-15.365
		c-4.047-8.758-14.992-14.035-15.365-14.208c-2.866-1.467-7.141-3.946-10.549-5.969c1.239-0.611,2.324-1.112,3.062-1.395
		c1.284,0.902,4.114,1.759,7.905-0.191c0.583-0.301,0.798-0.337,1.062-0.31l0.789,0.045c2.597,0,4.388-1.631,7.199-5.049
		c5.522-6.744,6.652-11.82,6.821-12.805c0.027-0.346,0.055-0.702,0.06-1.057h0.014l0.646-9.141
		c0.611-8.649,1.719-12.495,2.247-14.345c1.039-3.609,0.355-5.341-2.816-7.118c-1.559-0.866-3.112-1.194-4.47-1.012l-0.857-1.841
		h-2.465c-0.282,0-0.856,0.045-1.969,0.155c-0.446-0.838-1.631-3.062-4.379-3.062c-2.041,0-3.769,1.322-5.741,3.299
		c-2.297,2.314-4.01,4.283-5.391,5.869c-1.362,1.558-2.775,3.171-3.34,3.39c-1.563,0.574-2.912,1.75-4.22,2.879
		c-0.57,0.501-1.477,1.285-1.731,1.559c-1.567-0.419-3.245,0.046-4.343,0.62c-2.793-4.812-7.746-6.425-8.33-6.607l-1.198-0.337
		L462.3,43.69c-0.023,0-3.399,0.839-4.698-0.118c-1.817-1.349-4.338-2.032-7.486-2.032c-2.274,0-4.379,0.364-5.372,0.565
		l-3.655-0.255l-5.76,4.001c-2.588-1.759-6.43-4.247-8.307-4.867c-0.602-0.264-2.365-1.686-3.531-2.625
		c-3.464-2.789-5.705-4.511-7.737-4.63c-0.479-0.137-1.864-0.911-2.698-1.385c-2.282-1.276-3.646-2.005-5.131-2.005l-2.419,0.137
		l-1.039,1.841c-1.254,2.224,0.104,4.466,0.756,5.541c3.354,5.514,19.744,17.562,22.994,19.922l13.684,9.942
		c-0.639,2.497-1.649,3.828-1.682,3.874l-0.351,0.51c-2.138,3.8-5.045,5.659-5.054,5.659l-1.166,0.711l-0.406,1.304
		c-1.636,5.222-1.704,6.124-1.764,6.516c-0.305,1.176-0.61,2.67-0.305,5.523c0.041,0.401-0.082,0.793-0.42,1.731
		c-0.697,1.932-1.754,4.849-0.178,9.679c1.066,3.281,1.039,3.691,0.898,5.66c-0.082,1.175-0.191,2.725-0.164,5.213
		c0.027,2.479,0.273,4.037,0.615,5.149c-0.42,0.656-1.654,1.722-2.748,2.67c-2.984,2.588-7.067,6.124-6.074,10.918
		c0.215,1.012,0.552,1.777,0.952,2.352c-0.022,0.118-0.05,0.246-0.077,0.373c-1.636,8.111-2.014,24.251-2.087,28.443l-8.694,14.5
		l0.101,1.166c0.004,0.027,0.209,2.643-0.757,5.732c-1.354,0.738-3.186,2.123-3.254,4.484c-0.009,0.236,0.023,0.583,0.101,0.975
		c-0.46,0.492-0.938,0.948-1.463,1.357l-0.187,0.146l1.312,1.713l-0.369,0.902l0.793-0.346l0.46,0.602l2.393,2.715l4.743-3.627
		l5.491-4.602l-1.6-0.429c0.306-0.21,0.61-0.438,0.984-0.738c0.419-0.328,0.989-0.774,1.978-1.485
		c1.012-0.72,1.736-0.856,2.748-1.039c1.658-0.301,4.164-0.747,6.115-3.928l1.062-1.759c0.041,0.018,0.077,0.045,0.118,0.063
		c4.343,2.434,6.785,2.989,8.398,3.354c0.979,0.219,1.098,0.265,1.253,0.355c0.091,0.128,0.246,0.574,0.347,0.875
		c0.474,1.358,1.727,4.977,6.238,4.977c0.556,0,1.197-0.055,1.936-0.201c1.673-0.328,2.816,0.019,4.038,0.401
		c1.485,0.446,3.317,0.692,4.926,0.137c0.911,0.583,1.813,0.711,2.442,0.711c3.468,0,5.568-3.765,6.717-6.927l3.436-9.441
		l-10.289,6.061c-3.053-4.703-7.732-8.74-9.355-10.062c-0.4-0.347-1.139-1.768-1.581-2.624c-1.263-2.425-2.688-5.177-5.782-5.177
		c-0.516,0-1.025,0.091-1.772,0.246c-0.255,0-0.538-0.019-0.834-0.046c0.355-2.27,0.757-4.42,1.08-5.55
		c1.339-1.103,2.292-3.227,2.966-6.517l4.635-9.979l6.734-25.172l-0.059-0.638c-0.333-3.49-2.051-6.853-3.987-9.642
		c3.463,0.137,6.288,0.009,8.612-0.091c1.139-0.055,2.15-0.101,3.058-0.101c1.94,0,2.615,0.237,3.071,0.602
		c1.467,1.203,2.715,2.907,3.918,4.548c1.181,1.613,2.293,3.135,3.637,4.229l1.07,0.884c0.123,1.604,0.032,3.227-0.25,3.746
		c-1.444,2.579-3.49,9.059-3.887,10.334l-0.224,0.711l0.077,0.738c0.396,3.791-3.239,9.049-4.994,11.173
		c-1.978,1.248-4.347,4.146-3.367,9.04c0.606,3.035,0.702,3.5,1.572,4.931c0.241,0.401,0.605,0.993,1.217,2.232
		c0.287,0.565,0.711,1.422,1.458,2.051c0.606,1.449,1.449,3.473,2.515,6.079c5.359,13.022,6.252,18.637,6.631,21.033
		c0.109,0.675,0.191,1.203,0.337,1.687c0.087,1.786-0.684,9.031-0.889,10.426l2.803,0.465l-2.839-0.237l-0.133,1.695l0.082,4.985
		l9.355,4.693c0.752,0.528,2.256,1.403,4.064,1.403c1.618,0,3.08-0.692,4.119-1.959c2.197-2.68,1.941-7.51,1.345-11.073
		c-0.388-2.425-2.274-5.96-3.399-7.92c0.045-0.492,0.109-1.148,0.182-1.877l5.915-2.333c1.299-0.511,12.81-5.177,16.637-11.347
		c0.063-0.109,0.123-0.2,0.178-0.282c0.191,0.009,0.388,0.027,0.593,0.027c2.666,0,5.076-1.559,8.334-5.377
		c0.993-1.176,1.549-1.449,1.554-1.504c0.328,0.118,1.071,0.711,1.572,1.121c1.854,1.485,4.853,3.582,8.503,2.752
		c0.113,0.128,0.223,0.246,0.323,0.355c1.654,1.649,4.302,1.987,7.277,1.649c0.492-0.055,0.989-0.091,1.69-0.109
		c0.774,0.629,1.731,0.966,2.743,0.966c1.162,0,3.313,0,7.505-5.96l4.402,11.392l12.13-15.839c1.043-0.675,2.656-1.832,4.083-3.335
		c0.132,1.103,0.269,1.968,0.351,2.451l0.009,4.548l-0.387,11.783l15.748-2.26c0.086-0.009,7.619-0.465,10.681-0.019
		c0.884,0.128,1.157,0.319,1.249,0.401l1.362,1.258h1.48c2.22,0,3.204-1.668,3.855-2.78c0.159-0.273,0.328-0.4,1.28-0.966
		c1.244-0.738,2.953-1.75,4.907-4.119c0.328,0.036,1.14,0.602,1.586,1.103l1.736,2.023l4.16-1.805l0.829-0.501
		c1.773-1.431,10.686-8.895,12.025-15.484l0.082-0.392l-0.009-0.41c-0.005-0.154-0.205-8.886-0.278-18.582
		c0.055,0.137,0.105,0.273,0.16,0.41c0.701,1.768,1.453,3.673,2.451,6.744l0.605,1.85c1.418,4.329,2.061,6.307,1.91,8.512
		c-0.096,1.35,0.022,2.688,0.137,3.992c0.109,1.221,0.214,2.406,0.109,3.408l-0.857,0.009l-1.066,1.076
		c-1.139,1.166-1.125,1.94-1.057,5.659c0.059,3.244,0.52,4.839,1.682,6.015c0.022,0.082,0.232,0.839,0.15,3.883
		c-0.246,8.676-1.008,14.381-1.017,14.436l-2.128,15.685l15.033-22.748c0,0-0.164-3.745-0.087-2.815
		c-0.014-0.137-0.077-1.559,1.234-7.4c1.444-6.416,1.094-9.305,0.779-11.848c-0.25-2.041-0.446-3.654,0.583-7.765
		c0.119-0.474,0.229-0.884,0.328-1.275V118.43l9.333-25.664l7.582-15.457l-1.736,14.335c-0.009,1.048,0,2.005,0.019,2.698
		l-0.424,0.638l-1.357,11.2l-4.666,9.624v7.583l-1.454,9.596l-0.014,0.073c-0.009,0.091-0.027,0.155-0.041,0.237l-1.7,10.216v22.492
		c0.169,1.367,0.297,2.26,0.292,2.297l5.833,1.749c0.387-1.504-2.06-10.134-0.693-12.33c1.473-2.37,2.393-5.049,3.204-7.419
		c0.414-1.212,0.82-2.396,1.284-3.48c0.743-1.705,1.309-4.849,2.179-9.825c0.492-2.834,1.29-7.418,1.832-8.967l1.731-1.385
		l-0.774-2.27c0.583-0.62,1.385-1.421,2.474-2.46c7.528-7.172,9.715-10.034,13.028-14.372c0.915-1.194,1.932-2.524,3.189-4.11
		c2.142-2.707,4.384-6.106,6.389-9.369c-0.132,0.738-0.314,1.413-0.538,2.242c-0.332,1.23-0.733,2.725-1.189,4.931
		c-1.604,7.837-6.238,15.629-7.081,16.577c-1.458,1.212-2.068,2.479-2.692,4.311c-0.183-0.018-0.374-0.036-0.57-0.036
		c-4.584,0-4.984,5.659-5.531,13.488c-0.461,6.516-1.104,12.448-1.933,18.145c-2.93,4.538-3.923,7.573-3.253,10.161
		c0.236,0.902,0.665,1.695,1.275,2.397c-0.009,0.109-0.027,0.246-0.036,0.346c-0.196,1.304-3.172,5.65-6.243,9.104l-2.911,6.562
		c-0.273,0.273-0.588,0.656-0.925,1.104l-3.437-1.167l-6.188,17.298l0.537,0.246c-0.455,1.439-0.852,2.697-1.12,3.554
		c-0.584,1.868-0.675,2.015-1.058,2.661c-0.62,1.048-1.641,2.789-4.319,8.959c-4.635,10.635-10.882,19.785-10.868,19.785
		c0,0,0,0,0.005,0l-2.356,2.871c-1.012,0.255-1.873,0.82-2.451,1.704c-0.442,0.684-0.574,1.376-0.615,2.032l-1.376,1.677l1.663,0.52
		c0.055,0.146,0.113,0.328,0.154,0.419l2.384,5.332l2.916-3.555c0.027,0.019,0.041,0.027,0.068,0.046
		c2.246,1.485,4.548,2.241,6.84,2.241c5.076,0,9.286-3.618,13.164-7.318c3.14-2.998,6.188-6.898,8.645-10.043
		c1.499-1.923,3.559-4.565,4.246-5.058c1.832-1.157,2.744-3.144,3.546-4.903c0.173-0.364,0.41-0.884,0.634-1.312
		c2.068,0.976,4.092,3.072,7.058,7.228c5.254,7.346,9.46,11.902,14.163,11.902c1.212,0,2.351-0.319,3.39-0.948
		c1.304-0.793,1.8-1.212,2.37-1.695c0.929-0.783,2.332-1.968,14.549-8.548c6.585-3.545,17.312-5.86,27.688-8.084
		c18.286-3.937,34.079-7.327,34.799-17.881C786.635,200.305,786.271,199.266,785.56,198.51z M479.196,80.226l-2.314-0.638
		l-1.719,1.686c-2.533,2.488-3.039,2.716-5.158,3.673l-1.321,0.711c-0.142-0.027-0.556-0.201-0.856-0.319
		c-1.116-0.465-2.816-1.167-5.136-1.167c-0.506,0-1.007,0.027-1.544,0.1c0.022-0.064,0.036-0.127,0.059-0.182
		c0.725-2.178,0.328-3.737-0.228-4.857c0.091-0.283,0.26-0.738,0.551-1.395c1.946-4.365,1.896-9.123,1.572-12.084
		c3.336-2.479,5.204-4.539,6.298-6.316c3.212,0.848,4.771,0.082,5.044-0.036c0.392,0,1.376,0.063,3.555,0.456
		c3.896,0.702,7.044,1.048,9.792,1.048c0.807,1.558,1.567,3.253,1.723,4.174c0.091,0.583,0.25,1.103,0.455,1.549
		c-0.706,2.861-0.97,4.83-1.188,6.416c-0.324,2.406-0.483,3.509-1.996,6.225c-0.651,1.157-2.524,1.403-3.982,1.403
		C480.873,80.672,479.196,80.226,479.196,80.226z M495.249,183.181c0.237-2.434,0.483-4.967,0.693-7.163l0.861,0.018l1.075-1.768
		c1.085-1.777,0.87-2.178-1.736-7.045c-2.055-3.837-3.677-6.233-4.753-7.811c-0.405-0.592-0.856-1.257-1.048-1.604
		c0.005-0.975-0.237-1.896-0.492-2.861c-0.173-0.675-0.542-2.078-0.392-2.47c2.287-1.687,3.094-3.336,3.878-4.939
		c0.638-1.304,1.357-2.78,3.271-5.122c1.194-1.449,2.288-2.67,3.271-3.773c0.446-0.501,0.853-0.975,1.271-1.448
		c-1.613,3.518-0.993,8.339,0.47,12.248c0.318,0.856,0.597,2.808,0.889,4.866c0.419,2.944,0.938,6.59,1.991,10.882l0.346,1.687
		c0.183,0.875,0.446,3.408,0.638,5.504L495.249,183.181z M553.672,148.631c-1.381,1.158-3.445,2.315-4.074,2.352l-0.88-0.072
		c-0.505,0-1.398,0.082-2.282,0.574c-0.355-0.21-0.793-0.483-1.335-0.83c-3.842-2.47-7.305-5.222-9.441-7.018
		c1.453-2.679,2.793-6.023,2.255-8.557c-0.2-0.948,0.241-4.411,0.935-7.364c0.273-1.084,1.6-6.662,0.988-10.125
		c-0.2-1.595,0.784-9.642,1.869-16.696c2.697-2.36,7.974-6.699,10.936-8.047c1.153-0.528,1.882-1.176,2.342-1.841
		c0.082,0.009,0.164,0.018,0.251,0.037c3.818,0.546,7.478,0.72,10.048,0.583c-0.62,1.331-1.071,2.989-1.162,6.598
		c-0.073,2.789-0.346,4.566-0.569,5.988c-0.306,1.968-0.569,3.672,0.123,5.887c0.605,1.959,1.708,7.774,2.027,9.396l1.039,19.849
		C562.033,142.909,554.022,148.376,553.672,148.631z M619.375,132.164l0.142,6.89c-0.966,2.16-2.606,6.234-3.066,9.706
		c-1.186,1.058-3.386,3.336-2.999,8.248c0.041,0.528-0.127,1.504-0.387,2.661c-1.189-2.051-3.131-3.864-6.229-5.158
		c-4.001-1.677-7.332-2.388-9.829-2.643l0.474-16.076l2.826-29.154l-2.16-1.887c-0.201-0.182-0.424-0.383-0.634-0.602
		c0.446-1.395,0.921-3.117,1.522-5.24c2.287-8.175,5.769-16.186,6.977-18.865c0.086-0.064,0.195-0.127,0.314-0.191
		c0.241,5.659,2.223,7.482,3.316,8.448c0.051,0.3,0.032,0.592,0.037,0.902c0.036,1.531,0.091,3.855,1.371,6.653
		c7.546,16.45,11.051,18.837,13.994,19.093c0.848,1.376,2.041,2.688,3.678,3.782L619.375,132.164z M643.407,244.606L643.407,244.606
		h0.005H643.407z"/>
</g>
</svg>
