<?xml version="1.0" encoding="utf-8"?>
<!-- Generator: Adobe Illustrator 16.0.0, SVG Export Plug-In . SVG Version: 6.00 Build 0)  -->
<!DOCTYPE svg PUBLIC "-//W3C//DTD SVG 1.1//EN" "http://www.w3.org/Graphics/SVG/1.1/DTD/svg11.dtd">
<svg version="1.1" xmlns="http://www.w3.org/2000/svg" xmlns:xlink="http://www.w3.org/1999/xlink" x="0px" y="0px" width="300px"
	 height="300px" viewBox="0 0 300 300" enable-background="new 0 0 300 300" xml:space="preserve">
<g id="Layer_2">
	<g>
		<g>
			<path fill="#231F20" d="M61.471,256.008c0.012-0.014,0.024-0.027,0.036-0.041c0.289-0.321-0.097-0.904-0.484-0.628
				c-1.614,1.151-0.905-2.485-0.28-3.185c0.751-0.842,1.963-1.322,2.968-1.775c2.597-1.171,4.579-2.847,6.604-4.863
				c4.467-4.448,7.486-10.057,10.559-15.489c2.964-5.24,6.414-10.945,6.187-17.181c-0.233-6.381-4.088-12.416-5.536-18.57
				c-2.167-9.208-12.193-22.515-4.139-31.169c4.091-4.396,10.07-6.266,15.173-9.119c3.783-2.115,7.472-4.405,11.348-6.352
				c0.571-0.287,1.23-0.698,1.878-0.769c0.507-0.056,0.513-0.856,0-0.8c-1.078,0.118-2.154,0.808-3.095,1.292
				c-2.181,1.121-4.304,2.356-6.429,3.578c-4.292,2.467-8.789,4.501-13.096,6.932c-4.105,2.316-8.389,5.408-9.374,10.289
				c-0.966,4.785,1.015,10.021,2.648,14.427c0.93,2.51,1.959,4.982,2.896,7.49c0.984,2.631,1.534,5.341,2.359,8.017
				c2.156,6.995,5.942,13.088,3.736,20.604c-1.878,6.401-5.999,12.675-9.525,18.298c-1.79,2.853-3.821,5.53-6.156,7.958
				c-2.223,2.311-4.545,3.823-7.391,5.178c-1.863,0.888-3.334,2.202-3.268,4.38c0.045,1.472,1.003,2.473,2.336,1.521
				c-0.162-0.209-0.323-0.418-0.485-0.628c-0.012,0.014-0.024,0.027-0.036,0.04C60.562,255.824,61.126,256.393,61.471,256.008
				L61.471,256.008z"/>
		</g>
	</g>
	<g>
		<g>
			<path fill="#231F20" d="M59.94,256.884c1.818-2.5,5.236-0.557,7.641-0.393c2.19,0.149,4.137-0.761,5.926-1.949
				c2.188-1.453,3.817-3.569,5.629-5.431c1.871-1.922,4.163-3.302,6.418-4.715c10.221-6.401,14.845-18.366,24.437-25.436
				c4.277-3.151,8.801-5.81,12.683-9.475c2.302-2.174,3.703-4.547,0.098-6.068c-2.947-1.243-5.832,3.317-7.261,5.174
				c-2.886,3.749-6.817,11.162-11.994,6.077c-0.368-0.361-0.934,0.204-0.565,0.566c6.557,6.439,11.65-4.644,15.401-8.877
				c0.719-0.812,1.524-1.531,2.468-2.07c0.579-0.335,1.158-0.368,1.737-0.099c2.888,1.057,1.591,2.562,0.694,3.595
				c-1.709,1.97-3.887,3.646-5.974,5.178c-4.261,3.129-8.83,5.75-12.648,9.452c-3.829,3.712-6.685,8.505-10.087,12.597
				c-1.739,2.092-3.613,4.06-5.64,5.873c-2.206,1.973-4.769,3.374-7.195,5.037c-4.456,3.057-7.074,8.457-12.663,9.737
				c-3.296,0.755-7.266-2.658-9.795,0.821C58.945,256.897,59.64,257.297,59.94,256.884L59.94,256.884z"/>
		</g>
	</g>
	<g>
		<g>
			<path fill="#231F20" d="M126.771,203.839c-3.801-3.387-9.693,0.338-13.312,2.23c-2.591,1.354-5.344,3.035-8.303,3.376
				c-3.793,0.437-4.518-3.701-4.707-6.598c-0.033-0.512-0.833-0.516-0.8,0c0.16,2.469,0.511,5.565,2.873,6.943
				c1.927,1.124,4.529,0.16,6.386-0.603c2.893-1.188,5.583-2.831,8.405-4.17c2.607-1.237,6.376-2.855,8.892-0.613
				C126.589,204.747,127.157,204.183,126.771,203.839L126.771,203.839z"/>
		</g>
	</g>
	<g>
		<g>
			<path fill="#231F20" d="M103.954,210.174c-0.91-8.621-3.032-17.04-4.766-25.516c-0.906-4.432-1.234-9.524,2.332-12.903
				c2.624-2.486,6.47-3.367,9.324-5.573c0.408-0.315-0.163-0.877-0.565-0.566c-3.046,2.354-6.941,3.315-9.764,5.989
				c-2.708,2.566-2.93,6.685-2.593,10.138c0.438,4.482,1.775,8.94,2.687,13.343c1.035,4.992,2.01,10.016,2.545,15.089
				C103.208,210.682,104.008,210.687,103.954,210.174L103.954,210.174z"/>
		</g>
	</g>
	<g>
		<g>
			<path fill="#231F20" d="M102.849,156.449c0.794,2.335,1.672,4.642,3.289,6.543c1.615,1.898,4.094,2.783,6.417,3.438
				c3.562,1.003,7.311,1.682,10.951,2.34c2.953,0.534,6.232,1.037,9.141,0.062c0.486-0.163,0.278-0.936-0.213-0.771
				c-5.461,1.83-12.208-0.86-17.625-1.91c-2.631-0.51-5.4-1.311-7.469-3.084c-1.988-1.704-2.906-4.438-3.72-6.83
				C103.456,155.751,102.683,155.959,102.849,156.449L102.849,156.449z"/>
		</g>
	</g>
	<g>
		<g>
			<path fill="#231F20" d="M103.271,134.964c1.005,0.795,1.962,1.639,1.639,3.074c-0.143,0.634-0.419,1.236-0.469,1.893
				c-0.142,1.873,0.593,3.804,1.087,5.589c1.016,3.671,2.526,7.048,5.132,9.858c2.72,2.934,6.243,5.122,9.609,7.224
				c3.274,2.044,6.474,4.039,10.078,5.464c7.349,2.905,15.876,3.897,23.561,1.827c3.455-0.932,6.362-2.751,9.022-5.092
				c3.268-2.876,4.017-7.488,8.038-9.707c0.451-0.25,0.048-0.94-0.404-0.691c-3.059,1.688-4.49,4.606-6.287,7.454
				c-2.235,3.543-6.057,5.802-9.957,7.078c-7.642,2.502-16.397,1.137-23.761-1.641c-3.553-1.341-6.679-3.393-9.886-5.384
				c-3.544-2.199-7.054-4.517-9.906-7.593c-3.021-3.259-4.221-7.777-5.236-11.988c-0.461-1.915,0.107-3.162,0.295-4.973
				c0.133-1.279-1.129-2.278-1.989-2.958C103.437,134.082,102.866,134.644,103.271,134.964L103.271,134.964z"/>
		</g>
	</g>
	<g>
		<g>
			<path fill="#231F20" d="M167.462,160.19c10.291-7.617,19.887-17.498,24.713-29.543c0.192-0.479-0.582-0.686-0.771-0.213
				c-4.74,11.832-14.236,21.583-24.346,29.065C166.648,159.803,167.046,160.497,167.462,160.19L167.462,160.19z"/>
		</g>
	</g>
	<g>
		<g>
			<path fill="#231F20" d="M156.832,156.343c-0.218-5.929,7.037-10.344,11.301-13.163c4.286-2.834,9.275-5.073,13.109-8.534
				c0.384-0.346-0.185-0.91-0.566-0.565c-4.513,4.073-10.496,6.624-15.457,10.12c-3.885,2.737-9.383,6.801-9.188,12.143
				C156.051,156.857,156.851,156.859,156.832,156.343L156.832,156.343z"/>
		</g>
	</g>
	<g>
		<g>
			<path fill="#231F20" d="M136.762,156.343c-0.199-5.879,2.815-12.589-1.228-17.786c-2.731-3.511-8.607-4.588-12.657-3.305
				c-0.49,0.155-0.28,0.928,0.213,0.771c4.248-1.346,9.949,0.065,12.461,3.924c3.081,4.732,0.235,11.218,0.411,16.396
				C135.98,156.857,136.78,156.859,136.762,156.343L136.762,156.343z"/>
		</g>
	</g>
	<g>
		<g>
			<path fill="#231F20" d="M141.845,149.759c0.778-3.963-0.189-8.874,1.801-12.501c1.028-1.873,5.243-1.793,6.991-1.938
				c1.965-0.164,3.961-0.191,5.901-0.571c0.506-0.099,0.291-0.87-0.213-0.771c-2.671,0.522-5.451,0.465-8.15,0.788
				c-1.716,0.205-3.699,0.465-4.972,1.75c-1.201,1.212-1.243,3.66-1.42,5.236c-0.291,2.584-0.208,5.24-0.71,7.796
				C140.974,150.05,141.745,150.265,141.845,149.759L141.845,149.759z"/>
		</g>
	</g>
	<g>
		<g>
			<path fill="#231F20" d="M133.244,149.44c1.309-5.956-7.411-10.109-11.577-12.091c-3.571-1.698-7.331-3.031-11.153-4.035
				c-2.489-0.654-5.435-1.428-8.023-0.93c-0.506,0.098-0.291,0.869,0.213,0.771c2.31-0.445,4.901,0.271,7.132,0.812
				c3.396,0.824,6.713,2.008,9.918,3.389c4.052,1.747,14.001,6.03,12.718,11.87C132.362,149.73,133.133,149.944,133.244,149.44
				L133.244,149.44z"/>
		</g>
	</g>
	<g>
		<g>
			<path fill="#231F20" d="M121.675,146.184c-1.344-1.125-3.333-1.289-4.999-1.534c-2.318-0.342-4.71-0.438-6.964-1.116
				c-0.496-0.149-0.706,0.623-0.213,0.771c1.708,0.514,3.512,0.675,5.275,0.895c1.875,0.234,4.794,0.261,6.334,1.549
				C121.502,147.078,122.071,146.515,121.675,146.184L121.675,146.184z"/>
		</g>
	</g>
	<g>
		<g>
			<path fill="#231F20" d="M152.492,143.946c8.809-5.433,19.029-8.03,27.714-13.698c0.43-0.281,0.029-0.974-0.404-0.69
				c-8.684,5.667-18.904,8.265-27.714,13.698C151.65,143.525,152.052,144.218,152.492,143.946L152.492,143.946z"/>
		</g>
	</g>
	<g>
		<g>
			<path fill="#231F20" d="M178.198,155.134c2.453-0.436,4.434-1.792,6.425-3.222c3.082-2.213,5.724-3.588,9.554-4.084
				c6.073-0.787,11.696-1.953,16.369-6.175c0.383-0.347-0.185-0.911-0.566-0.565c-5.169,4.671-11.566,5.367-18.19,6.254
				c-5.337,0.715-8.563,6.092-13.804,7.021C177.479,154.452,177.693,155.224,178.198,155.134L178.198,155.134z"/>
		</g>
	</g>
	<g>
		<g>
			<path fill="#231F20" d="M207.432,138.469c3.157,3.021,2.616,7.051,2.842,11.042c0.197,3.497,1.008,6.928,1.71,10.347
				c0.821,3.997,1.387,7.716-0.311,11.562c-1.489,3.375-4.568,6.078-7.694,7.901c-3.032,1.769-5.801,4.724-9.308,5.53
				c-2.087,0.479-4.329,0.056-6.205,1.292c-2.609,1.72-1.044,6.429,2.251,4.309c0.432-0.278,0.031-0.972-0.404-0.691
				c-1.509,0.972-2.617-1.495-1.676-2.704c0.416-0.533,1.167-0.724,1.782-0.889c1.095-0.292,2.291-0.283,3.416-0.394
				c2.402-0.235,4.397-1.599,6.357-2.919c4.818-3.245,9.996-6.103,12.446-11.655c2.274-5.155,0.181-10.979-0.828-16.182
				c-0.685-3.527-0.69-6.994-0.903-10.557c-0.153-2.572-1.046-4.774-2.909-6.558C207.625,137.547,207.059,138.112,207.432,138.469
				L207.432,138.469z"/>
		</g>
	</g>
	<g>
		<g>
			<path fill="#231F20" d="M211.255,176.445c-3.103,3.627-6.801,6.522-10.75,9.175c-3.391,2.278-7.521,3.11-10.478,6.05
				c-1.361,1.353-2.388,3.721-4.247,4.491c-0.836,0.347-1.853,0.413-2.733,0.592c-1.738,0.352-3.91,0.782-4.986,2.341
				c-2.702,3.911,7.429,3.379,8.658,3.262c2.824-0.268,4.984-1.96,7.239-3.555c1.804-1.275,3.775-2.049,5.732-3.038
				c2.178-1.102,4.195-2.512,6.315-3.717c-0.196-0.151-0.392-0.302-0.588-0.452c-0.992,4.024-6.661,6.102-9.709,8.327
				c-2.092,1.527-2.946,3.557-0.064,4.763c2.271,0.949,4.766,1.304,7.157,1.843c1.567,0.354,3.798,0.854,4.978-0.571
				c1.096-1.324,0.17-3.521-0.791-4.599c-1.589-1.78-4.728-1.99-6.917-1.774c-0.509,0.051-0.514,0.852,0,0.801
				c2.204-0.219,4.614,0.041,6.351,1.539c1.11,0.958,1.606,3.516-0.123,4.076c-1.01,0.327-2.292-0.036-3.284-0.243
				c-1.443-0.302-9.622-1.413-8.379-3.707c1.154-2.131,4.691-3.518,6.627-4.812c1.981-1.325,4.323-2.982,4.927-5.429
				c0.084-0.341-0.277-0.628-0.588-0.452c-3.106,1.767-6.047,3.647-9.324,5.099c-2.992,1.325-5.234,4.212-8.505,4.948
				c-2.242,0.505-4.849,0.412-7.105,0.072c-1.236-0.186-2.956-0.938-1.568-2.398c0.782-0.823,2.216-1.092,3.273-1.354
				c1.53-0.381,3.166-0.397,4.484-1.315c1.141-0.794,1.966-2.015,2.812-3.092c1.236-1.575,2.757-2.721,4.522-3.642
				c3.251-1.696,6.398-3.074,9.409-5.221c3.024-2.157,5.805-4.615,8.222-7.439C212.154,176.622,211.591,176.053,211.255,176.445
				L211.255,176.445z"/>
		</g>
	</g>
	<g>
		<g>
			<path fill="#231F20" d="M207.6,204.468c6.326-4.356,12.628-8.729,20.344-4.944c1.791,0.878,3.604,2.061,4.977,3.506
				c0.624,0.657,1.115,1.343,1.884,1.844c1.845,1.202,4.986,0.659,6.938,0.03c2.953-0.951,5.649-6.073,2.279-8.097
				c-2.785-1.672-7.751,0.635-9.83,2.572c-0.378,0.353,0.189,0.917,0.566,0.566c1.844-1.72,7.764-4.559,9.669-1.687
				c0.736,1.108,0.085,2.938-0.454,3.967c-0.881,1.681-3.015,2.198-4.729,2.398c-1.321,0.154-2.819,0.131-4.036-0.442
				c-0.842-0.396-1.455-1.438-2.079-2.095c-3.106-3.271-8.304-5.37-12.793-4.924c-4.876,0.483-9.255,3.939-13.14,6.613
				C206.773,204.067,207.173,204.761,207.6,204.468L207.6,204.468z"/>
		</g>
	</g>
	<g>
		<g>
			<path fill="#231F20" d="M215.645,194.849c2.751-2.268,6.9-5.944,6.807-9.839c-0.263,0.035-0.524,0.071-0.786,0.106
				c1.057,2.667,2.531,5.082,4.18,7.422c0.295,0.418,0.989,0.019,0.691-0.404c-1.607-2.279-3.069-4.629-4.1-7.23
				c-0.157-0.396-0.798-0.376-0.786,0.106c0.089,3.632-3.979,7.137-6.572,9.272C214.68,194.611,215.249,195.174,215.645,194.849
				L215.645,194.849z"/>
		</g>
	</g>
	<g>
		<g>
			<path fill="#231F20" d="M241.188,196.595c-4.913-8.444-9.047-24.853-22.112-20.57c-0.488,0.16-0.279,0.933,0.213,0.771
				c12.54-4.11,16.506,12.121,21.208,20.203C240.757,197.444,241.448,197.042,241.188,196.595L241.188,196.595z"/>
		</g>
	</g>
	<g>
		<g>
			<path fill="#231F20" d="M231.035,179.702c2.138-5.729-5.661-6.811-9.517-7.501c-0.505-0.09-0.72,0.681-0.213,0.771
				c3.395,0.608,10.87,1.392,8.958,6.517C230.083,179.974,230.856,180.181,231.035,179.702L231.035,179.702z"/>
		</g>
	</g>
	<g>
		<g>
			<path fill="#231F20" d="M230.399,176.198c2.259-7.759,2.273-15.948,2.23-23.962c-0.022-4.042-0.13-8.093,0.04-12.133
				c0.11-2.645,0.276-5.361-0.427-7.942c-1.419-5.206-7.709-5.943-12.215-6.292c-8.208-0.634-16.72,0.429-24.301,3.688
				c-0.473,0.203-0.064,0.892,0.404,0.69c7.284-3.131,15.205-3.982,23.073-3.628c3.27,0.147,6.802,0.499,9.656,2.231
				c2.191,1.33,2.861,3.79,3.05,6.183c0.21,2.673-0.077,5.394-0.113,8.069c-0.049,3.613,0.026,7.227,0.039,10.84
				c0.025,7.382-0.132,14.906-2.209,22.043C229.483,176.482,230.256,176.692,230.399,176.198L230.399,176.198z"/>
		</g>
	</g>
	<g>
		<g>
			<path fill="#231F20" d="M226.801,132.972c6.661,10.851-1.767,23.182,1.872,34.627c0.155,0.489,0.928,0.28,0.771-0.213
				c-3.664-11.524,4.796-23.825-1.952-34.817C227.223,132.129,226.53,132.531,226.801,132.972L226.801,132.972z"/>
		</g>
	</g>
	<g>
		<g>
			<path fill="#231F20" d="M193.036,136.157c0.75,1.042,1.939,1.394,3.105,1.776c0.491,0.161,0.7-0.611,0.213-0.771
				c-0.934-0.307-2.021-0.565-2.627-1.408C193.429,135.339,192.734,135.738,193.036,136.157L193.036,136.157z"/>
		</g>
	</g>
	<g>
		<g>
			<path fill="#231F20" d="M206.787,126.517c-0.639-1.029-2.806-1.1-3.833-1.288c-2.4-0.438-4.92-0.646-7.236-1.446
				c-0.489-0.169-0.697,0.604-0.213,0.771c1.682,0.581,3.484,0.811,5.232,1.104c1.022,0.171,4.739,0.264,5.358,1.261
				C206.367,127.357,207.06,126.956,206.787,126.517L206.787,126.517z"/>
		</g>
	</g>
	<g>
		<g>
			<path fill="#231F20" d="M201.429,125.125c-0.151-3.383-2.766-6.364-4.669-8.963c-2.093-2.856-6.177-7.426-4.309-11.222
				c0.227-0.461-0.463-0.866-0.691-0.403c-1.566,3.184,0.513,6.532,2.268,9.166c2.22,3.333,6.412,7.189,6.601,11.422
				C200.651,125.638,201.451,125.641,201.429,125.125L201.429,125.125z"/>
		</g>
	</g>
	<g>
		<g>
			<path fill="#231F20" d="M83.486,224.271c0.516,0,0.516-0.801,0-0.801S82.97,224.271,83.486,224.271L83.486,224.271z"/>
		</g>
	</g>
	<g>
		<g>
			<path fill="#231F20" d="M83.688,223.525c-1.641-0.949-2.56-4.101-3.707-5.601c-1.267-1.657-3.458-2.722-5.51-2.846
				c-1.865-0.113-3.567,1.188-4.925,2.287c-2.04,1.651-3.716,3.413-6.194,4.397c-1.94,0.771-4.187,1.257-6.243,0.729
				c-3.702-0.951-1.922-5.15-0.311-7.028c2.826-3.296,7.375-5.376,9.514-9.228c0.251-0.451-0.44-0.855-0.69-0.404
				c-2.462,4.432-7.932,6.511-10.703,10.805c-2.011,3.115-0.172,6.51,3.36,6.864c4.505,0.451,8.201-2.395,11.343-5.152
				c1.413-1.24,2.914-2.35,4.849-2.47c2.17-0.135,4.294,1.644,5.444,3.312c1.018,1.478,1.747,4.088,3.369,5.026
				C83.731,224.476,84.134,223.784,83.688,223.525L83.688,223.525z"/>
		</g>
	</g>
	<g>
		<g>
			<path fill="#231F20" d="M57.801,214.98c1.1,0.823,3.336-5.709,3.583-6.374c2.082-5.593,0.059-11.816,4.227-16.623
				c0.336-0.388-0.227-0.956-0.565-0.566c-1.548,1.785-2.531,3.652-2.962,5.981c-0.444,2.401-0.034,4.87-0.375,7.275
				c-0.2,1.406-3.749,9.433-3.505,9.615C57.792,213.979,57.394,214.675,57.801,214.98L57.801,214.98z"/>
		</g>
	</g>
	<g>
		<g>
			<path fill="#231F20" d="M60.338,216.932c1.639-0.587,3.539-0.395,5.203,0c0.502,0.119,0.715-0.652,0.213-0.771
				c-1.8-0.427-3.855-0.636-5.628,0C59.644,216.333,59.852,217.106,60.338,216.932L60.338,216.932z"/>
		</g>
	</g>
	<g>
		<g>
			<path fill="#231F20" d="M77.15,190.46c-4.287,3.769-9.213,3.956-12.75-0.794c-2.853-3.83-3.923-9.278-3.167-13.943
				c0.508-3.137,2.703-5.708,4.349-8.323c1.821-2.893,2.841-6.052,5.064-8.724c4.229-5.083,10.27-8.032,15.908-11.226
				c0.449-0.254,0.046-0.945-0.403-0.69c-6.383,3.616-13.049,6.99-17.43,13.11c-2.196,3.067-3.515,6.691-5.608,9.849
				c-1.787,2.696-2.803,5.24-2.91,8.468c-0.161,4.894,1.614,10.349,5.167,13.796c3.841,3.729,8.738,2.218,12.347-0.955
				C78.104,190.685,77.536,190.121,77.15,190.46L77.15,190.46z"/>
		</g>
	</g>
	<g>
		<g>
			<path fill="#231F20" d="M63.382,181.472c4.091-4.644,4.302-11.134,10.973-13.276c0.489-0.157,0.28-0.93-0.213-0.771
				c-2.769,0.89-4.859,2.408-6.451,4.849c-1.828,2.802-2.624,6.078-4.875,8.633C62.477,181.291,63.04,181.859,63.382,181.472
				L63.382,181.472z"/>
		</g>
	</g>
	<g>
		<g>
			<path fill="#231F20" d="M102.28,197.516c1.597-0.2,4.109-0.993,3.175-3.093c-0.836-1.88-3.614-2.392-5.405-2.169
				c-0.505,0.063-0.511,0.864,0,0.801c1.558-0.194,3.302,0.125,4.412,1.317c1.392,1.494-1.079,2.205-2.181,2.343
				C101.775,196.778,101.769,197.579,102.28,197.516L102.28,197.516z"/>
		</g>
	</g>
	<g>
		<g>
			<path fill="#231F20" d="M99.413,187.64c4.349,0.484,13.027,0.374,14.72-4.753c0.162-0.491-0.61-0.7-0.771-0.213
				c-1.532,4.64-10.009,4.604-13.949,4.165C98.9,186.782,98.906,187.583,99.413,187.64L99.413,187.64z"/>
		</g>
	</g>
	<g>
		<g>
			<path fill="#231F20" d="M101.207,180.896c1.562-0.849,3.207-0.525,4.693,0.32c0.449,0.255,0.852-0.437,0.403-0.691
				c-1.741-0.989-3.687-1.306-5.5-0.32C100.35,180.451,100.754,181.142,101.207,180.896L101.207,180.896z"/>
		</g>
	</g>
	<g>
		<g>
			<path fill="#231F20" d="M105.9,181.216c0.474,0.303,0.902,1.046,1.473,1.203c0.463,0.127,1.176-0.489,1.532-0.216
				c2.018,1.548,4.874,2.019,7.283,2.557c0.502,0.112,0.716-0.659,0.213-0.771c-2.64-0.589-5.359-1.146-7.55-2.827
				c-0.103-0.078-0.3-0.073-0.403,0c-0.998,0.706-1.33-0.114-2.145-0.637C105.868,180.246,105.467,180.938,105.9,181.216
				L105.9,181.216z"/>
		</g>
	</g>
	<g>
		<g>
			<path fill="#231F20" d="M116.826,184.76c1.673,0.378,3.412,0.326,5.097,0.636c0.504,0.093,0.72-0.679,0.213-0.771
				c-1.685-0.31-3.426-0.258-5.097-0.636C116.536,183.875,116.323,184.646,116.826,184.76L116.826,184.76z"/>
		</g>
	</g>
	<g>
		<g>
			<path fill="#231F20" d="M122.002,184.895c0.509,0.892,1.623,1.136,2.575,1.153c0.516,0.009,0.515-0.791,0-0.801
				c-0.657-0.012-1.524-0.126-1.884-0.757C122.438,184.043,121.746,184.445,122.002,184.895L122.002,184.895z"/>
		</g>
	</g>
	<g>
		<g>
			<path fill="#231F20" d="M124.551,185.212c0.893,1.267,2.184,1.336,3.413,0.462c0.417-0.297,0.018-0.991-0.403-0.691
				c-0.839,0.598-1.673,0.743-2.319-0.175C124.947,184.39,124.253,184.789,124.551,185.212L124.551,185.212z"/>
		</g>
	</g>
	<g>
		<g>
			<path fill="#231F20" d="M127.879,185.355c0.766,0.349,1.602,0.372,2.431,0.373c0.516,0,0.516-0.8,0-0.801
				c-0.671,0-1.403,0.021-2.028-0.264C127.817,184.452,127.41,185.142,127.879,185.355L127.879,185.355z"/>
		</g>
	</g>
	<g>
		<g>
			<path fill="#231F20" d="M130.109,185.038c0.886,0.408,1.678,0.284,2.396-0.381c0.379-0.352-0.188-0.916-0.565-0.566
				c-0.438,0.407-0.88,0.509-1.427,0.256C130.047,184.132,129.641,184.821,130.109,185.038L130.109,185.038z"/>
		</g>
	</g>
	<g>
		<g>
			<path fill="#231F20" d="M133.294,183.445c0.444,0.286,0.943,0.546,1.487,0.484c0.581-0.064,0.973-0.494,1.29-0.947
				c0.297-0.424-0.397-0.823-0.69-0.404c-0.503,0.72-1.002,0.614-1.683,0.176C133.262,182.474,132.862,183.167,133.294,183.445
				L133.294,183.445z"/>
		</g>
	</g>
	<g>
		<g>
			<path fill="#231F20" d="M135.443,183.063c0.8,0.744,1.677,0.743,2.478,0c0.379-0.352-0.188-0.916-0.565-0.566
				c-0.474,0.44-0.873,0.44-1.347,0C135.631,182.146,135.064,182.711,135.443,183.063L135.443,183.063z"/>
		</g>
	</g>
	<g>
		<g>
			<path fill="#231F20" d="M137.117,183.126c0.916,0.415,1.914,0.334,2.856,0.04c0.491-0.153,0.281-0.926-0.213-0.771
				c-0.713,0.223-1.532,0.361-2.24,0.04C137.055,182.224,136.647,182.913,137.117,183.126L137.117,183.126z"/>
		</g>
	</g>
	<g>
		<g>
			<path fill="#231F20" d="M140.221,182.108c0.75,0.723,1.617,1.087,2.477,0.319c0.386-0.345-0.182-0.908-0.565-0.566
				c-0.501,0.448-0.948,0.064-1.346-0.319C140.415,181.185,139.849,181.75,140.221,182.108L140.221,182.108z"/>
		</g>
	</g>
	<g>
		<g>
			<path fill="#231F20" d="M143.088,180.833c0.446,0.377,0.991,0.436,1.557,0.438c0.516,0.001,0.516-0.799,0-0.801
				c-0.323,0-0.729,0.019-0.991-0.203C143.263,179.937,142.694,180.499,143.088,180.833L143.088,180.833z"/>
		</g>
	</g>
	<g>
		<g>
			<path fill="#231F20" d="M145.081,180.577c0.792,0.359,1.522,0.359,2.314,0c0.469-0.213,0.062-0.902-0.403-0.691
				c-0.507,0.23-1,0.23-1.507,0C145.019,179.674,144.612,180.363,145.081,180.577L145.081,180.577z"/>
		</g>
	</g>
	<g>
		<g>
			<path fill="#231F20" d="M147.485,179.798c0.492,0.905,1.424,1.103,2.364,0.819c0.493-0.148,0.282-0.921-0.213-0.771
				c-0.605,0.183-1.138,0.142-1.46-0.452C147.929,178.94,147.238,179.345,147.485,179.798L147.485,179.798z"/>
		</g>
	</g>
	<g>
		<g>
			<path fill="#231F20" d="M149.541,179.623c0.894,0.434,1.905,0.658,2.713-0.062c0.385-0.345-0.183-0.908-0.566-0.566
				c-0.505,0.451-1.208,0.198-1.744-0.062C149.482,178.708,149.076,179.397,149.541,179.623L149.541,179.623z"/>
		</g>
	</g>
	<g>
		<g>
			<path fill="#231F20" d="M152.088,178.666c0.918,0.414,1.914,0.334,2.857,0.04c0.491-0.153,0.281-0.926-0.213-0.771
				c-0.714,0.223-1.532,0.36-2.24,0.04C152.025,177.764,151.619,178.453,152.088,178.666L152.088,178.666z"/>
		</g>
	</g>
	<g>
		<g>
			<path fill="#231F20" d="M155.051,177.114c1.647,0.563,3.371-0.09,4.767-0.996c0.431-0.28,0.03-0.973-0.404-0.691
				c-1.222,0.794-2.697,1.413-4.149,0.916C154.774,176.176,154.565,176.948,155.051,177.114L155.051,177.114z"/>
		</g>
	</g>
	<g>
		<g>
			<path fill="#231F20" d="M159.652,175.737c0.787,0.744,1.91,1.109,2.796,0.318c0.385-0.345-0.183-0.909-0.566-0.566
				c-0.537,0.48-1.222,0.101-1.663-0.318C159.844,174.817,159.277,175.382,159.652,175.737L159.652,175.737z"/>
		</g>
	</g>
	<g>
		<g>
			<path fill="#231F20" d="M162.802,175.217c0.744,0,1.487,0,2.231,0c0.516,0,0.516-0.801,0-0.801c-0.744,0-1.487,0-2.231,0
				C162.286,174.416,162.286,175.217,162.802,175.217L162.802,175.217z"/>
		</g>
	</g>
	<g>
		<g>
			<path fill="#231F20" d="M164.688,174.382c0.358,0.501,0.777,0.842,1.402,0.913c0.642,0.074,1.177-0.439,1.516-0.913
				c0.3-0.421-0.394-0.82-0.691-0.404c-0.461,0.646-1.074,0.646-1.535,0C165.081,173.562,164.388,173.961,164.688,174.382
				L164.688,174.382z"/>
		</g>
	</g>
	<g>
		<g>
			<path fill="#231F20" d="M167.058,174.207c0.918,0.414,1.916,0.333,2.859,0.04c0.491-0.152,0.281-0.925-0.213-0.771
				c-0.714,0.222-1.534,0.36-2.242,0.04C166.995,173.306,166.588,173.995,167.058,174.207L167.058,174.207z"/>
		</g>
	</g>
	<g>
		<g>
			<path fill="#231F20" d="M169.527,173.825c0.704,0.654,1.671,0.871,2.221-0.081c0.258-0.448-0.434-0.851-0.691-0.404
				c-0.271,0.47-0.646,0.215-0.963-0.081C169.716,172.908,169.149,173.473,169.527,173.825L169.527,173.825z"/>
		</g>
	</g>
	<g>
		<g>
			<path fill="#231F20" d="M172.154,172.933c1.042,0.635,2.163,0.44,3.034-0.382c0.375-0.355-0.191-0.92-0.566-0.566
				c-0.613,0.58-1.33,0.704-2.063,0.257C172.116,171.973,171.715,172.664,172.154,172.933L172.154,172.933z"/>
		</g>
	</g>
	<g>
		<g>
			<path fill="#231F20" d="M175.022,171.978c0.725,0.343,1.272,0.343,1.997,0c0.466-0.221,0.06-0.91-0.404-0.691
				c-0.447,0.212-0.741,0.212-1.188,0C174.963,171.067,174.557,171.757,175.022,171.978L175.022,171.978z"/>
		</g>
	</g>
	<g>
		<g>
			<path fill="#231F20" d="M177.254,171.34c0.886,0.413,1.679,0.285,2.396-0.381c0.378-0.353-0.188-0.917-0.566-0.566
				c-0.438,0.408-0.878,0.512-1.425,0.256C177.193,170.432,176.787,171.121,177.254,171.34L177.254,171.34z"/>
		</g>
	</g>
	<g>
		<g>
			<path fill="#231F20" d="M179.164,170.703c0.765,0.366,1.39,0.338,1.821-0.462c0.244-0.454-0.446-0.858-0.691-0.404
				c-0.209,0.39-0.34,0.36-0.726,0.175C179.105,169.79,178.699,170.479,179.164,170.703L179.164,170.703z"/>
		</g>
	</g>
	<g>
		<g>
			<path fill="#231F20" d="M180.613,169.605c0.293,0.427,0.594,0.853,1.142,0.913c0.508,0.057,0.904-0.567,1.143-0.913
				c0.293-0.427-0.4-0.826-0.691-0.404c-0.079,0.115-0.282,0.499-0.451,0.518c-0.14,0.016-0.393-0.434-0.45-0.518
				C181.015,168.779,180.32,169.179,180.613,169.605L180.613,169.605z"/>
		</g>
	</g>
	<g>
		<g>
			<path fill="#231F20" d="M182.35,168.792c0.408,0.261,0.853,0.474,1.343,0.335c0.51-0.144,0.841-0.707,1.115-1.115
				c0.288-0.43-0.405-0.83-0.691-0.404c-0.165,0.246-0.33,0.532-0.575,0.71c-0.248,0.179-0.581-0.084-0.787-0.217
				C182.317,167.821,181.917,168.515,182.35,168.792L182.35,168.792z"/>
		</g>
	</g>
	<g>
		<g>
			<path fill="#231F20" d="M184.144,167.893c0.796-0.03,1.266-0.471,1.619-1.154c0.236-0.458-0.454-0.862-0.691-0.404
				c-0.215,0.417-0.424,0.739-0.928,0.758C183.629,167.111,183.627,167.911,184.144,167.893L184.144,167.893z"/>
		</g>
	</g>
	<g>
		<g>
			<path fill="#231F20" d="M185.853,165.926c0.854,0.379,1.418-0.002,1.821-0.782c0.236-0.458-0.454-0.862-0.691-0.404
				c-0.167,0.323-0.314,0.679-0.726,0.495C185.789,165.027,185.382,165.717,185.853,165.926L185.853,165.926z"/>
		</g>
	</g>
	<g>
		<g>
			<path fill="#231F20" d="M187.53,164.651c1.243-0.929,2.479-1.836,3.586-2.93c0.367-0.363-0.199-0.929-0.566-0.566
				c-1.058,1.046-2.234,1.917-3.424,2.805C186.718,164.265,187.116,164.96,187.53,164.651L187.53,164.651z"/>
		</g>
	</g>
	<g>
		<g>
			<path fill="#231F20" d="M191.035,160.828c2.44-1.105,4.041-3.677,5.323-5.916c0.772-1.349,1.043-2.02,2.203-3.024
				c1.085-0.941,1.593-2.012,1.896-3.403c0.109-0.503-0.662-0.717-0.771-0.213c-0.369,1.693-1.094,2.832-2.684,3.583
				c-0.489,0.231-0.786,1.606-1.039,2.106c-1.179,2.325-2.875,5.062-5.332,6.175C190.162,160.35,190.568,161.039,191.035,160.828
				L191.035,160.828z"/>
		</g>
	</g>
	<g>
		<g>
			<path fill="#231F20" d="M196.921,149.051c-2.037,2.25-4.891,3.364-7.787,4.04c-0.502,0.117-0.289,0.889,0.213,0.771
				c3.022-0.705,6.017-1.9,8.141-4.246C197.832,149.235,197.269,148.668,196.921,149.051L196.921,149.051z"/>
		</g>
	</g>
	<g>
		<g>
			<path fill="#231F20" d="M114.738,174.216c-0.086,0.075-0.225,0.194-0.354,0.2c-0.513,0.026-0.516,0.826,0,0.801
				c0.363-0.019,0.653-0.203,0.919-0.435C115.693,174.443,115.125,173.88,114.738,174.216L114.738,174.216z"/>
		</g>
	</g>
	<g>
		<g>
			<path fill="#231F20" d="M106.138,176.127c-0.177,0.097-0.14,0.156,0.111,0.177c-0.036-0.089-0.043-0.19-0.052-0.285
				c-0.017-0.188-0.013-0.377-0.014-0.564c0-0.516-0.8-0.516-0.8,0c0,0.422-0.027,0.916,0.2,1.291c0.285,0.47,0.81,0.231,1.12-0.052
				C107.085,176.344,106.518,175.78,106.138,176.127L106.138,176.127z"/>
		</g>
	</g>
	<g>
		<g>
			<path fill="#231F20" d="M111.553,176.445c-0.408,0.374-0.574,0.126-0.592-0.354c-0.02-0.515-0.819-0.516-0.8,0
				c0.019,0.502,0.146,0.984,0.596,1.261c0.467,0.287,1.014-0.022,1.361-0.341C112.5,176.662,111.933,176.098,111.553,176.445
				L111.553,176.445z"/>
		</g>
	</g>
	<g>
		<g>
			<path fill="#231F20" d="M115.057,180.587c-0.151,0.15-0.207,0.098,0.016,0.09c0.094,0.039,0.188,0.078,0.283,0.117
				c0.065,0.178,0.088,0.192,0.067,0.043c-0.001-0.096-0.002-0.191-0.002-0.287c0-0.516-0.801-0.516-0.8,0
				c0,0.29-0.046,0.699,0.25,0.872c0.294,0.173,0.556-0.074,0.752-0.269C115.989,180.789,115.423,180.224,115.057,180.587
				L115.057,180.587z"/>
		</g>
	</g>
	<g>
		<g>
			<path fill="#231F20" d="M119.772,177.8c-0.206,0.346-0.47-0.113-0.584-0.318c-0.25-0.45-0.941-0.047-0.69,0.404
				c0.434,0.781,1.405,1.259,1.965,0.318C120.727,177.76,120.035,177.357,119.772,177.8L119.772,177.8z"/>
		</g>
	</g>
	<g>
		<g>
			<path fill="#231F20" d="M122.701,181.224c-0.305,0.255-0.796,0.079-1.107-0.062c-0.466-0.212-0.873,0.478-0.403,0.691
				c0.688,0.312,1.454,0.457,2.076-0.062C123.663,181.459,123.094,180.896,122.701,181.224L122.701,181.224z"/>
		</g>
	</g>
	<g>
		<g>
			<path fill="#231F20" d="M125.649,177.975c-0.183,0.116-0.441,0.305-0.674,0.259c-0.191-0.037-0.033-0.67-0.012-0.762
				c0.114-0.503-0.658-0.716-0.771-0.213c-0.117,0.515-0.209,1.209,0.262,1.584c0.491,0.391,1.136,0.117,1.599-0.177
				C126.487,178.39,126.086,177.697,125.649,177.975L125.649,177.975z"/>
		</g>
	</g>
	<g>
		<g>
			<path fill="#231F20" d="M130.841,175.068c-0.584,0.24-1.075-0.016-1.604-0.278c-0.46-0.229-0.866,0.462-0.403,0.691
				c0.708,0.352,1.438,0.68,2.22,0.358C131.524,175.646,131.318,174.872,130.841,175.068L130.841,175.068z"/>
		</g>
	</g>
	<g>
		<g>
			<path fill="#231F20" d="M135.38,174.934c-0.249,0.432-0.645,0.36-1.045,0.175c-0.464-0.215-0.871,0.475-0.403,0.691
				c0.799,0.37,1.657,0.376,2.139-0.462C136.329,174.89,135.637,174.487,135.38,174.934L135.38,174.934z"/>
		</g>
	</g>
	<g>
		<g>
			<path fill="#231F20" d="M130.921,180.668c-0.085,0.152-0.025,0.168-0.17,0.053c-0.171-0.135-0.322-0.3-0.476-0.454
				c-0.365-0.365-0.931,0.201-0.565,0.566c0.581,0.58,1.35,1.223,1.902,0.239C131.865,180.621,131.173,180.219,130.921,180.668
				L130.921,180.668z"/>
		</g>
	</g>
	<g>
		<g>
			<path fill="#231F20" d="M126.169,183.336c-0.763-0.024-0.991-0.663-1.206-1.298c-0.165-0.485-0.938-0.277-0.771,0.213
				c0.341,1.003,0.812,1.848,1.978,1.886C126.685,184.153,126.684,183.354,126.169,183.336L126.169,183.336z"/>
		</g>
	</g>
	<g>
		<g>
			<path fill="#231F20" d="M127.798,178.675c-0.207,0.204,0.135,0.204-0.071,0c-0.367-0.362-0.933,0.203-0.565,0.566
				c0.435,0.43,0.767,0.429,1.202,0C128.731,178.878,128.166,178.312,127.798,178.675L127.798,178.675z"/>
		</g>
	</g>
	<g>
		<g>
			<path fill="#231F20" d="M135.726,179.831c-0.425,0-0.849,0-1.274,0c-0.516,0-0.516,0.801,0,0.801c0.425,0,0.849,0,1.274,0
				C136.242,180.632,136.242,179.831,135.726,179.831L135.726,179.831z"/>
		</g>
	</g>
	<g>
		<g>
			<path fill="#231F20" d="M134.806,182.497c-0.564,0.549-1.049,0.69-1.746,0.257c-0.439-0.273-0.84,0.419-0.403,0.691
				c1.002,0.623,1.896,0.414,2.715-0.382C135.742,182.703,135.176,182.138,134.806,182.497L134.806,182.497z"/>
		</g>
	</g>
	<g>
		<g>
			<path fill="#231F20" d="M138.391,178.294c-0.387,0.186-0.517,0.214-0.727-0.176c-0.245-0.454-0.935-0.05-0.69,0.404
				c0.431,0.8,1.056,0.83,1.821,0.463C139.26,178.762,138.854,178.072,138.391,178.294L138.391,178.294z"/>
		</g>
	</g>
	<g>
		<g>
			<path fill="#231F20" d="M140.104,181.507c-0.03,0.532-0.765,0.35-1.087,0.252c-0.495-0.149-0.705,0.623-0.213,0.771
				c0.903,0.272,2.036,0.111,2.1-1.023C140.933,180.991,140.133,180.994,140.104,181.507L140.104,181.507z"/>
		</g>
	</g>
	<g>
		<g>
			<path fill="#231F20" d="M143.344,177.8c-0.537,0.76-1.223,0.89-1.92,0.237c-0.376-0.352-0.943,0.213-0.565,0.566
				c0.467,0.438,1.016,0.758,1.676,0.675c0.658-0.083,1.134-0.557,1.5-1.074C144.333,177.781,143.639,177.383,143.344,177.8
				L143.344,177.8z"/>
		</g>
	</g>
	<g>
		<g>
			<path fill="#231F20" d="M139.548,176.328c-0.438-0.031-0.542-0.512-0.556-0.874c-0.018-0.515-0.818-0.517-0.8,0
				c0.03,0.844,0.446,1.608,1.355,1.675C140.063,177.166,140.06,176.365,139.548,176.328L139.548,176.328z"/>
		</g>
	</g>
	<g>
		<g>
			<path fill="#231F20" d="M146.529,172.703c-0.292,0.492-1.245,0.375-1.682,0.177c-0.466-0.211-0.873,0.479-0.403,0.691
				c0.849,0.385,2.232,0.452,2.776-0.464C147.483,172.662,146.792,172.26,146.529,172.703L146.529,172.703z"/>
		</g>
	</g>
	<g>
		<g>
			<path fill="#231F20" d="M148.759,175.252c-0.093,0.191-0.157,0.424-0.28,0.598c0.08-0.061,0.16-0.122,0.239-0.184
				c-0.004,0.002-0.009,0.004-0.013,0.006c0.15,0.061,0.301,0.122,0.452,0.184c0.032,0.12,0.042,0.122,0.03,0.008
				c-0.005-0.136-0.002-0.272-0.002-0.409c0-0.516-0.8-0.516-0.8,0c0,0.23-0.058,0.598,0.081,0.805
				c0.092,0.137,0.281,0.254,0.452,0.184c0.32-0.13,0.392-0.499,0.531-0.786C149.674,175.194,148.985,174.788,148.759,175.252
				L148.759,175.252z"/>
		</g>
	</g>
	<g>
		<g>
			<path fill="#231F20" d="M146.354,177.656c-0.253,0.17-0.501,0.348-0.767,0.496c-0.021,0.012-0.168,0.045-0.118,0.055
				c0.021,0.004-0.097-0.249-0.12-0.312c-0.172-0.482-0.945-0.274-0.771,0.213c0.137,0.383,0.358,0.897,0.845,0.896
				c0.501-0.001,0.941-0.393,1.334-0.656C147.183,178.062,146.783,177.368,146.354,177.656L146.354,177.656z"/>
		</g>
	</g>
	<g>
		<g>
			<path fill="#231F20" d="M145.683,175.772c0-0.106,0-0.212,0-0.318c0-0.516-0.8-0.516-0.8,0c0,0.106,0,0.212,0,0.318
				C144.883,176.288,145.683,176.288,145.683,175.772L145.683,175.772z"/>
		</g>
	</g>
	<g>
		<g>
			<path fill="#231F20" d="M154.771,174.71c-0.254,0.715-0.726,1.274-1.526,1.3c-0.515,0.017-0.517,0.817,0,0.801
				c1.177-0.038,1.921-0.826,2.298-1.888C155.716,174.436,154.942,174.228,154.771,174.71L154.771,174.71z"/>
		</g>
	</g>
	<g>
		<g>
			<path fill="#231F20" d="M150.297,173.226c0.001,0.09-0.003,0.18-0.012,0.27c-0.033,0.233,0.35,0.006,0.197-0.116
				c-0.164-0.131-0.309-0.289-0.457-0.437c-0.366-0.364-0.931,0.201-0.565,0.566c0.3,0.3,0.604,0.668,1.049,0.719
				c0.52,0.06,0.582-0.664,0.589-1.002C151.107,172.709,150.308,172.71,150.297,173.226L150.297,173.226z"/>
		</g>
	</g>
	<g>
		<g>
			<path fill="#231F20" d="M153.599,171.349c-0.051,0.046-0.103,0.091-0.154,0.136c0.206,0.184,0.277,0.192,0.216,0.026
				c-0.022-0.17-0.015-0.346-0.015-0.517c-0.001-0.516-0.802-0.516-0.801,0c0.001,0.355-0.041,0.859,0.236,1.138
				c0.354,0.354,0.795,0.05,1.084-0.217C154.544,171.564,153.978,171,153.599,171.349L153.599,171.349z"/>
		</g>
	</g>
	<g>
		<g>
			<path fill="#231F20" d="M158.06,172.232c0.189,0.219,0.2,0.403,0.201,0.673c0.004,0.516,0.804,0.516,0.801,0
				c-0.004-0.492-0.111-0.863-0.436-1.239C158.288,171.275,157.725,171.844,158.06,172.232L158.06,172.232z"/>
		</g>
	</g>
	<g>
		<g>
			<path fill="#231F20" d="M159.332,176.445c-0.27,0.248-0.646,0.202-0.989,0.202c-0.516,0.001-0.516,0.801,0,0.801
				c0.587-0.001,1.104-0.023,1.556-0.437C160.279,176.662,159.712,176.098,159.332,176.445L159.332,176.445z"/>
		</g>
	</g>
	<g>
		<g>
			<path fill="#231F20" d="M163.412,171.112c-0.269,0.483-0.695,0.735-1.247,0.755c-0.515,0.019-0.517,0.818,0,0.801
				c0.827-0.03,1.532-0.422,1.938-1.151C164.354,171.065,163.663,170.662,163.412,171.112L163.412,171.112z"/>
		</g>
	</g>
	<g>
		<g>
			<path fill="#231F20" d="M160.81,169.403c-0.023,0.731-0.49,0.605-0.992,0.29c-0.438-0.274-0.84,0.418-0.404,0.691
				c0.447,0.28,0.999,0.517,1.52,0.294c0.511-0.218,0.661-0.766,0.678-1.275C161.627,168.887,160.827,168.889,160.81,169.403
				L160.81,169.403z"/>
		</g>
	</g>
	<g>
		<g>
			<path fill="#231F20" d="M164.112,167.526c-0.072,0.065-0.156,0.104-0.251,0.118c-0.132-0.022-0.144-0.003-0.036,0.059
				c-0.097-0.506-0.868-0.291-0.771,0.213c0.152,0.795,1.193,0.538,1.625,0.177C165.074,167.761,164.505,167.197,164.112,167.526
				L164.112,167.526z"/>
		</g>
	</g>
	<g>
		<g>
			<path fill="#231F20" d="M166.914,166.101c0.093,0.144,0.344,0.448,0.24,0.632c-0.134,0.235-0.728,0.314-0.956,0.374
				c-0.499,0.129-0.287,0.901,0.213,0.771c0.535-0.139,1.084-0.288,1.434-0.742c0.335-0.436,0.006-1.058-0.239-1.439
				C167.327,165.265,166.635,165.665,166.914,166.101L166.914,166.101z"/>
		</g>
	</g>
	<g>
		<g>
			<path fill="#231F20" d="M167.296,171.666c-0.141,0.14-0.164,0.2-0.354,0.201c-0.516,0.005-0.516,0.805,0,0.801
				c0.414-0.004,0.631-0.149,0.921-0.436C168.229,171.869,167.663,171.304,167.296,171.666L167.296,171.666z"/>
		</g>
	</g>
	<g>
		<g>
			<path fill="#231F20" d="M172.392,170.322c0.136,0.139,0.264,0.277,0.375,0.436c0.04,0.058,0.073,0.118,0.101,0.182
				c0.021-0.02,0.043-0.039,0.065-0.058c-0.083,0.029-0.169,0.04-0.258,0.032c-0.514,0.021-0.516,0.82,0,0.801
				c0.412-0.017,0.92-0.131,0.99-0.616c0.075-0.53-0.368-0.994-0.707-1.343C172.597,169.387,172.032,169.952,172.392,170.322
				L172.392,170.322z"/>
		</g>
	</g>
	<g>
		<g>
			<path fill="#231F20" d="M175.461,164.623c-0.027,1.015-0.784,1.42-1.723,1.208c-0.503-0.113-0.716,0.657-0.213,0.771
				c1.452,0.328,2.694-0.429,2.736-1.979C176.275,164.106,175.476,164.108,175.461,164.623L175.461,164.623z"/>
		</g>
	</g>
	<g>
		<g>
			<path fill="#231F20" d="M169.727,167.81c-0.02,0.51-0.268,0.481-0.67,0.291c-0.464-0.219-0.87,0.471-0.404,0.691
				c0.399,0.188,0.85,0.343,1.279,0.159c0.461-0.195,0.578-0.687,0.596-1.142C170.547,167.294,169.747,167.295,169.727,167.81
				L169.727,167.81z"/>
		</g>
	</g>
	<g>
		<g>
			<path fill="#231F20" d="M170.482,163.066c-0.117,0.104-0.257,0.163-0.271-0.035c-0.038-0.512-0.839-0.515-0.801,0
				c0.068,0.917,0.976,1.18,1.639,0.602C171.438,163.292,170.869,162.729,170.482,163.066L170.482,163.066z"/>
		</g>
	</g>
	<g>
		<g>
			<path fill="#231F20" d="M174.305,160.837c-0.197,0.166-0.511,0.166-0.708,0c-0.393-0.328-0.962,0.234-0.566,0.566
				c0.552,0.461,1.289,0.461,1.841,0C175.267,161.071,174.697,160.509,174.305,160.837L174.305,160.837z"/>
		</g>
	</g>
	<g>
		<g>
			<path fill="#231F20" d="M177.456,162.158c0.516,0,0.516-0.801,0-0.801S176.94,162.158,177.456,162.158L177.456,162.158z"/>
		</g>
	</g>
	<g>
		<g>
			<path fill="#231F20" d="M179.936,166.43c-0.254,0.707-0.717,0.891-1.418,0.677c-0.495-0.151-0.705,0.621-0.213,0.771
				c1.142,0.349,2.005-0.129,2.402-1.235C180.882,166.156,180.108,165.948,179.936,166.43L179.936,166.43z"/>
		</g>
	</g>
	<g>
		<g>
			<path fill="#231F20" d="M178.647,162.713c0.001,0.09-0.003,0.179-0.012,0.269c0.337,0.021,0.427-0.03,0.27-0.15
				c-0.184-0.186-0.323-0.424-0.468-0.64c-0.286-0.426-0.979-0.025-0.691,0.404c0.227,0.337,0.615,1.101,1.112,1.092
				c0.526-0.008,0.581-0.566,0.59-0.975C179.458,162.196,178.658,162.197,178.647,162.713L178.647,162.713z"/>
		</g>
	</g>
	<g>
		<g>
			<path fill="#231F20" d="M183.12,158.466c-0.093,0.262-0.205,0.505-0.399,0.706c-0.272,0.282-0.639-0.055-0.843-0.246
				c-0.377-0.352-0.943,0.213-0.566,0.566c0.425,0.396,0.943,0.722,1.539,0.521c0.568-0.191,0.855-0.813,1.041-1.335
				C184.064,158.191,183.292,157.983,183.12,158.466L183.12,158.466z"/>
		</g>
	</g>
	<g>
		<g>
			<path fill="#231F20" d="M178.846,157.27c-0.154,0.08-0.307,0.163-0.464,0.239c-0.071,0.034-0.099-0.002-0.054,0.036
				c-0.088-0.074-0.136-0.257-0.17-0.353c-0.174-0.481-0.947-0.273-0.771,0.213c0.141,0.389,0.307,0.779,0.733,0.909
				c0.384,0.117,0.809-0.189,1.13-0.354C179.709,157.726,179.304,157.035,178.846,157.27L178.846,157.27z"/>
		</g>
	</g>
	<g>
		<g>
			<path fill="#231F20" d="M184.715,155.599c-0.005,0.032-0.166,0.024-0.253,0.024c-0.516,0.004-0.516,0.804,0,0.801
				c0.453-0.004,0.941-0.087,1.024-0.612C185.565,155.307,184.795,155.09,184.715,155.599L184.715,155.599z"/>
		</g>
	</g>
	<g>
		<g>
			<path fill="#231F20" d="M184.437,162.191c-0.217,0.417-0.427,0.739-0.931,0.758c-0.515,0.02-0.516,0.819,0,0.801
				c0.797-0.03,1.266-0.472,1.622-1.154C185.366,162.139,184.676,161.734,184.437,162.191L184.437,162.191z"/>
		</g>
	</g>
	<g>
		<g>
			<path fill="#231F20" d="M189.159,159.527c-0.001,0.232,0.014,0.225-0.237,0.236c-0.514,0.025-0.516,0.825,0,0.801
				c0.673-0.033,1.034-0.358,1.038-1.037C189.963,159.012,189.162,159.012,189.159,159.527L189.159,159.527z"/>
		</g>
	</g>
	<g>
		<g>
			<path fill="#231F20" d="M190.231,155.74c-0.473,0.44-0.872,0.44-1.345,0c-0.378-0.351-0.944,0.214-0.566,0.566
				c0.801,0.743,1.677,0.743,2.478,0C191.176,155.954,190.609,155.39,190.231,155.74L190.231,155.74z"/>
		</g>
	</g>
	<g>
		<g>
			<path fill="#231F20" d="M185.853,157.909c-0.64,0.331-1.084,0.776-1.416,1.416c-0.236,0.458,0.454,0.862,0.691,0.404
				c0.272-0.527,0.602-0.856,1.129-1.129C186.715,158.363,186.311,157.673,185.853,157.909L185.853,157.909z"/>
		</g>
	</g>
	<g>
		<g>
			<path fill="#231F20" d="M189.56,158.334c0.36-0.047,0.653-0.184,0.919-0.436c0.374-0.356-0.192-0.922-0.566-0.566
				c-0.095,0.091-0.219,0.185-0.353,0.201C189.056,157.6,189.049,158.4,189.56,158.334L189.56,158.334z"/>
		</g>
	</g>
	<g>
		<g>
			<path fill="#231F20" d="M192.708,155.671c0.72-0.724,1.4-1.466,1.976-2.312c0.29-0.429-0.403-0.828-0.691-0.404
				c-0.537,0.791-1.178,1.476-1.851,2.15C191.777,155.471,192.344,156.036,192.708,155.671L192.708,155.671z"/>
		</g>
	</g>
	<g>
		<g>
			<path fill="#231F20" d="M109.857,171.208c-0.025,0.163-0.411,0.352-0.534,0.458c-0.389,0.341,0.179,0.904,0.565,0.566
				c0.298-0.261,0.672-0.378,0.74-0.812C110.708,170.916,109.937,170.699,109.857,171.208L109.857,171.208z"/>
		</g>
	</g>
	<g>
		<g>
			<path fill="#231F20" d="M109.96,171.031c-0.292,0.253-0.661,0.379-0.956,0.635c-0.391,0.339,0.178,0.902,0.565,0.566
				c0.292-0.253,0.661-0.379,0.956-0.635C110.916,171.259,110.348,170.695,109.96,171.031L109.96,171.031z"/>
		</g>
	</g>
	<g>
		<g>
			<path fill="#231F20" d="M103.589,175.171c-0.126,0.114,0.061,0.274,0.046-0.035c-0.025-0.514-0.825-0.516-0.8,0
				c0.041,0.836,0.667,1.195,1.319,0.602C104.537,175.389,103.969,174.825,103.589,175.171L103.589,175.171z"/>
		</g>
	</g>
	<g>
		<g>
			<path fill="#231F20" d="M101.643,175.691c-0.292,0-0.543,0.093-0.556-0.237c-0.02-0.515-0.82-0.516-0.8,0
				c0.033,0.859,0.592,1.036,1.356,1.038C102.159,176.493,102.158,175.692,101.643,175.691L101.643,175.691z"/>
		</g>
	</g>
	<g>
		<g>
			<path fill="#231F20" d="M103.908,177.4c-0.198,0.166-0.511,0.166-0.709,0c-0.393-0.328-0.961,0.234-0.565,0.566
				c0.552,0.462,1.288,0.461,1.84,0C104.87,177.636,104.301,177.072,103.908,177.4L103.908,177.4z"/>
		</g>
	</g>
	<g>
		<g>
			<path fill="#231F20" d="M103.352,174.79c-0.531,0.236-0.848-0.284-1.005-0.717c-0.175-0.48-0.949-0.272-0.771,0.213
				c0.357,0.979,1.126,1.663,2.18,1.195C104.226,175.272,103.819,174.583,103.352,174.79L103.352,174.79z"/>
		</g>
	</g>
	<g>
		<g>
			<path fill="#231F20" d="M104.191,172.668c0.516,0,0.516-0.801,0-0.801S103.675,172.668,104.191,172.668L104.191,172.668z"/>
		</g>
	</g>
	<g>
		<g>
			<path fill="#231F20" d="M106.456,171.349c-0.219,0.188-0.404,0.199-0.672,0.2c-0.516,0.004-0.516,0.804,0,0.801
				c0.492-0.004,0.862-0.111,1.238-0.435C107.413,171.577,106.845,171.014,106.456,171.349L106.456,171.349z"/>
		</g>
	</g>
	<g>
		<g>
			<path fill="#231F20" d="M104.944,173.196c-0.114,0.073-0.225,0.146-0.353,0.192c-0.099,0.035,0.085,0.153,0.038-0.008
				c-0.071-0.246-0.038-0.541-0.039-0.794c0-0.516-0.8-0.516-0.8,0c0,0.432-0.059,1.035,0.254,1.385
				c0.371,0.415,0.916,0.161,1.302-0.084C105.782,173.612,105.381,172.919,104.944,173.196L104.944,173.196z"/>
		</g>
	</g>
	<g>
		<g>
			<path fill="#231F20" d="M104.308,172.241c-0.123,0.06-0.242,0.109-0.373,0.147c-0.025,0.007,0.026,0.052,0.019-0.121
				c-0.02-0.515-0.82-0.516-0.8,0c0.014,0.359,0.098,0.735,0.469,0.879c0.366,0.143,0.762-0.058,1.088-0.214
				C105.176,172.709,104.77,172.02,104.308,172.241L104.308,172.241z"/>
		</g>
	</g>
	<g>
		<g>
			<path fill="#231F20" d="M109.004,174.216c-0.388,0.373-0.613,0.493-1.108,0.255c-0.462-0.222-0.868,0.468-0.403,0.691
				c0.834,0.4,1.416,0.257,2.077-0.38C109.942,174.424,109.376,173.858,109.004,174.216L109.004,174.216z"/>
		</g>
	</g>
	<g>
		<g>
			<path fill="#231F20" d="M109.579,177.8c-0.135,0.235-0.387,0.463-0.646,0.237c-0.387-0.337-0.956,0.227-0.565,0.566
				c0.652,0.567,1.491,0.316,1.901-0.399C110.526,177.756,109.835,177.353,109.579,177.8L109.579,177.8z"/>
		</g>
	</g>
	<g>
		<g>
			<path fill="#231F20" d="M108.757,180.484c-0.731-0.249-1.355-0.545-1.632-1.313c-0.174-0.481-0.947-0.273-0.771,0.213
				c0.381,1.057,1.169,1.523,2.191,1.872C109.034,181.423,109.242,180.649,108.757,180.484L108.757,180.484z"/>
		</g>
	</g>
	<g>
		<g>
			<path fill="#231F20" d="M111.131,179.489c-0.262,0.724-0.696,0.793-1.323,0.396c-0.438-0.276-0.838,0.417-0.403,0.691
				c0.463,0.292,1.006,0.504,1.547,0.301c0.512-0.192,0.776-0.69,0.951-1.176C112.078,179.216,111.305,179.008,111.131,179.489
				L111.131,179.489z"/>
		</g>
	</g>
	<g>
		<g>
			<path fill="#231F20" d="M112.589,182.435c-0.312,0.143-0.803,0.318-1.109,0.062c-0.393-0.328-0.962,0.234-0.565,0.566
				c0.622,0.521,1.39,0.376,2.078,0.062C113.462,182.912,113.055,182.223,112.589,182.435L112.589,182.435z"/>
		</g>
	</g>
	<g>
		<g>
			<path fill="#231F20" d="M116.73,182.754c0.025-0.011-0.341,0.166-0.354,0.026c-0.046-0.51-0.847-0.514-0.8,0
				c0.08,0.87,0.881,0.956,1.557,0.665C117.606,183.241,117.199,182.552,116.73,182.754L116.73,182.754z"/>
		</g>
	</g>
	<g>
		<g>
			<path fill="#231F20" d="M83.567,159.209c0.147-3.067,3.375-5.379,5.854-6.662c0.458-0.237,0.054-0.928-0.403-0.691
				c-2.759,1.429-6.088,3.971-6.25,7.354C82.742,159.725,83.542,159.723,83.567,159.209L83.567,159.209z"/>
		</g>
	</g>
	<g>
		<g>
			<path fill="#231F20" d="M86.738,153.899c0.69-3.1,0.24-6.088-0.317-9.171c-0.633-3.499-0.723-6.556-0.056-10.026
				c1.016-5.281,2.796-11.086,6.066-15.427c0.311-0.412-0.384-0.81-0.69-0.403c-3.21,4.261-4.876,9.853-6.017,14.99
				c-0.543,2.448-0.826,4.883-0.634,7.388c0.323,4.223,1.827,8.168,0.876,12.436C85.854,154.189,86.625,154.402,86.738,153.899
				L86.738,153.899z"/>
		</g>
	</g>
	<g>
		<g>
			<path fill="#231F20" d="M63.018,175.772c0.087,0.662,0.808,1.128,0.651,1.805c0.262,0.035,0.524,0.071,0.786,0.106
				c0.038-1.644,0.583-3.24,1.538-4.576c0.301-0.421-0.394-0.82-0.69-0.404c-1.033,1.447-1.606,3.204-1.647,4.98
				c-0.01,0.449,0.683,0.549,0.786,0.106c0.088-0.379,0.099-0.684-0.051-1.048c-0.135-0.33-0.525-0.61-0.572-0.97
				C63.751,175.269,62.951,175.262,63.018,175.772L63.018,175.772z"/>
		</g>
	</g>
	<g>
		<g>
			<path fill="#231F20" d="M67.308,171.421c0.026-0.167,0.409-0.353,0.534-0.462c0.389-0.341-0.179-0.904-0.565-0.566
				c-0.299,0.262-0.672,0.381-0.74,0.815C66.458,171.713,67.229,171.93,67.308,171.421L67.308,171.421z"/>
		</g>
	</g>
	<g>
		<g>
			<path fill="#231F20" d="M68.16,170.003c0.956-0.955,1.911-1.911,2.867-2.865c0.365-0.365-0.2-0.931-0.565-0.566
				c-0.956,0.955-1.911,1.911-2.867,2.865C67.229,169.802,67.795,170.367,68.16,170.003L68.16,170.003z"/>
		</g>
	</g>
	<g>
		<g>
			<path fill="#231F20" d="M82.598,158.04c0.343-1.874,0.29-3.747,0-5.625c-0.079-0.509-0.85-0.292-0.771,0.213
				c0.267,1.728,0.316,3.475,0,5.199C81.734,158.331,82.505,158.547,82.598,158.04L82.598,158.04z"/>
		</g>
	</g>
	<g>
		<g>
			<path fill="#231F20" d="M75.589,188.089c-0.259-1.164,0.032-2.246,0.853-3.113c0.354-0.375-0.21-0.941-0.565-0.566
				c-1.023,1.081-1.381,2.443-1.059,3.893C74.929,188.805,75.701,188.592,75.589,188.089L75.589,188.089z"/>
		</g>
	</g>
	<g>
		<g>
			<path fill="#231F20" d="M73.93,206.115c0.516,0,0.516-0.801,0-0.801S73.414,206.115,73.93,206.115L73.93,206.115z"/>
		</g>
	</g>
	<g>
		<g>
			<path fill="#231F20" d="M74.011,208.263c0.044-1.669,0.707-3.155,1.538-4.575c0.261-0.446-0.43-0.849-0.69-0.404
				c-0.904,1.544-1.599,3.169-1.647,4.979C73.197,208.779,73.997,208.777,74.011,208.263L74.011,208.263z"/>
		</g>
	</g>
	<g>
		<g>
			<path fill="#231F20" d="M95.389,108.853c-1.922,1.339-2.295,4.471-2.508,6.598c-0.229,2.279-0.085,5.581,2.189,6.836
				c0.452,0.25,0.855-0.441,0.403-0.69c-3.072-1.696-2.377-10.175,0.319-12.053C96.212,109.25,95.813,108.557,95.389,108.853
				L95.389,108.853z"/>
		</g>
	</g>
	<g>
		<g>
			<path fill="#231F20" d="M95.484,122.327c18.862,2.736,37.897,3.387,56.935,3.281c4.727-0.026,9.475,0.019,14.192-0.308
				c4.387-0.303,8.553-1.503,12.881-2.061c4.539-0.584,11.897,1.893,15.447-1.972c0.348-0.379-0.217-0.946-0.566-0.565
				c-2.004,2.182-5.826,1.83-8.521,1.77c-2.629-0.059-5.274-0.342-7.857,0.26c-8.77,2.044-17.6,2.032-26.55,2.082
				c-18.634,0.104-37.287-0.58-55.748-3.258C95.192,121.482,94.975,122.253,95.484,122.327L95.484,122.327z"/>
		</g>
	</g>
	<g>
		<g>
			<path fill="#231F20" d="M94.886,123.426c-1.263,3.464,2.965,4.276,5.376,4.952c0.498,0.14,0.709-0.632,0.213-0.771
				c-1.956-0.548-5.87-1.082-4.817-3.967C95.834,123.153,95.061,122.946,94.886,123.426L94.886,123.426z"/>
		</g>
	</g>
	<g>
		<g>
			<path fill="#231F20" d="M104.935,129.333c4.339-1.484,7.936,0.163,12.21,0.773c3.837,0.548,7.718,0.76,11.573,1.143
				c3.954,0.393,7.676,1.382,11.662,0.93c3.393-0.385,6.684-1.445,10.052-1.995c4.032-0.658,8.263-0.064,12.343-0.285
				c4.049-0.219,8.081-0.659,12.131-0.87c5.606-0.292,11.911-0.295,16.529-3.939c0.404-0.319-0.166-0.881-0.566-0.565
				c-5.345,4.218-13.337,3.479-19.752,3.943c-3.696,0.268-7.381,0.627-11.085,0.754c-3.592,0.122-7.086-0.253-10.655,0.33
				c-3.576,0.583-7.017,1.706-10.646,1.986c-3.867,0.299-8.05-0.91-11.923-1.271c-4.354-0.406-8.7-0.628-12.954-1.693
				c-3.136-0.785-6.025-1.072-9.131-0.01C104.237,128.728,104.445,129.501,104.935,129.333L104.935,129.333z"/>
		</g>
	</g>
	<g>
		<g>
			<path fill="#231F20" d="M94.953,108.643c0.106,0,0.212,0,0.319,0c0.516,0,0.516-0.8,0-0.8c-0.106,0-0.212,0-0.319,0
				C94.437,107.843,94.437,108.643,94.953,108.643L94.953,108.643z"/>
		</g>
	</g>
	<g>
		<g>
			<path fill="#231F20" d="M94.872,108.243c-0.535,5.986,8.164,3.354,10.677,1.17c3.999-3.477,4.096-11.015,3.64-15.887
				c-0.452-4.833-3.052-24.086-11.651-17.101c-0.401,0.325,0.169,0.888,0.565,0.565c7.307-5.935,9.681,11.285,10.169,15.431
				c0.446,3.786,0.27,7.552-0.599,11.281c-0.756,3.243-2.579,5.687-5.697,6.937c-2.256,0.904-6.61,1.041-6.304-2.396
				C95.717,107.729,94.917,107.733,94.872,108.243L94.872,108.243z"/>
		</g>
	</g>
	<g>
		<g>
			<path fill="#231F20" d="M98.112,113.542c2.971,5.428,7.812-2.753,10.184-4.697c0.399-0.327-0.17-0.89-0.565-0.565
				c-1.455,1.192-2.597,2.736-3.868,4.112c-1.518,1.643-3.579,3.451-5.06,0.747C98.555,112.686,97.864,113.089,98.112,113.542
				L98.112,113.542z"/>
		</g>
	</g>
	<g>
		<g>
			<path fill="#231F20" d="M98.74,76.035c3.318-3.308,10.64-2.044,14.604-0.735c5.595,1.849,9.477,6.808,12.163,11.802
				c0.244,0.455,0.935,0.051,0.69-0.403c-2.996-5.571-7.181-10.366-13.336-12.4c-4.087-1.351-11.337-2.167-14.686,1.171
				C97.809,75.833,98.374,76.399,98.74,76.035L98.74,76.035z"/>
		</g>
	</g>
	<g>
		<g>
			<path fill="#231F20" d="M159.501,85.017c4.185-1.796,5.521-6.811,9.915-8.549c6.122-2.423,12.22-2.098,16.993,2.753
				c0.362,0.368,0.928-0.198,0.566-0.565c-4.111-4.179-9.122-5.289-14.752-3.934c-2.621,0.63-5.062,1.603-7,3.5
				c-2.064,2.021-3.353,4.914-6.127,6.104C158.624,84.529,159.032,85.218,159.501,85.017L159.501,85.017z"/>
		</g>
	</g>
	<g>
		<g>
			<path fill="#231F20" d="M191.587,104.075c-4.78,2.229-10.444,9.951-15.442,3.885c-0.329-0.398-0.892,0.171-0.566,0.565
				c5.355,6.501,11.241-1.348,16.413-3.76C192.458,104.548,192.052,103.858,191.587,104.075L191.587,104.075z"/>
		</g>
	</g>
	<g>
		<g>
			<path fill="#231F20" d="M188.258,107.17c0.738,1.551-5.104,2.797-6.007,2.983c-2.627,0.544-5.416,0.123-7.845-0.98
				c-5.004-2.272-6.482-7.936-6.534-12.945c-0.09-8.6,3.982-20.689,14.361-20.395c0.517,0.015,0.515-0.785,0-0.8
				c-12.15-0.346-16.149,14.893-14.94,24.593c0.753,6.043,4.818,10.587,10.904,11.436c1.957,0.273,12.463-0.699,10.752-4.295
				C188.728,106.301,188.038,106.708,188.258,107.17L188.258,107.17z"/>
		</g>
	</g>
	<g>
		<g>
			<path fill="#231F20" d="M175.889,107.405c-4.854-7.045-8.484-14.58-4.141-22.852c0.239-0.456-0.451-0.86-0.691-0.403
				c-4.479,8.53-0.912,16.326,4.141,23.658C175.488,108.23,176.182,107.831,175.889,107.405L175.889,107.405z"/>
		</g>
	</g>
	<g>
		<g>
			<path fill="#231F20" d="M188.497,104.353c-5.354,2.227-10.705-0.958-13.665-5.457c-1.423-2.162-2.137-4.728-1.966-7.307
				c0.226-3.404,2.776-5.815,5.464-7.555c2.739-1.772,6.342-3.148,9.608-2.295c3.041,0.794,4.558,4.494,5.408,7.151
				c0.845,2.64,1.219,5.568,0.792,8.318c-0.571,3.673-4.084,5.529-7.013,7.185c-0.448,0.253-0.046,0.945,0.404,0.69
				c3.063-1.732,6.319-3.564,7.284-7.2c0.83-3.128,0.079-6.783-0.882-9.787c-0.9-2.813-2.442-5.522-5.152-6.89
				c-3.002-1.516-6.958,0.059-9.678,1.456c-6.061,3.113-8.68,8.886-5.754,15.214c2.595,5.612,9.292,9.771,15.361,7.247
				C189.179,104.929,188.974,104.154,188.497,104.353L188.497,104.353z"/>
		</g>
	</g>
	<g>
		<g>
			<path fill="#231F20" d="M175.861,94.308c1.716,0.067,3.425,0.95,4.991,1.579c0.351,0.141,0.6-0.309,0.452-0.587
				c-1.019-1.924-2.707-3.029-4.912-2.733c-0.509,0.068-0.291,0.839,0.213,0.771c1.844-0.248,3.179,0.798,4.008,2.365
				c0.151-0.196,0.302-0.392,0.452-0.587c-1.648-0.662-3.398-1.537-5.204-1.607C175.346,93.488,175.348,94.288,175.861,94.308
				L175.861,94.308z"/>
		</g>
	</g>
	<g>
		<g>
			<path fill="#231F20" d="M97.82,109.917c12.761,0.042,11.114-18.067,8.668-26.307c-0.146-0.493-0.918-0.283-0.771,0.213
				c2.285,7.696,4.184,25.334-7.896,25.294C97.304,109.115,97.304,109.916,97.82,109.917L97.82,109.917z"/>
		</g>
	</g>
	<g>
		<g>
			<path fill="#231F20" d="M90.467,83.515C87.4,88.039,86.514,94.3,87.953,99.548c1.404,5.116,5.697,6.673,10.304,4.374
				c5.871-2.931,7.254-9.062,5.015-14.927c-1.945-5.095-6.968-8.926-12.344-6.261c-0.462,0.229-0.057,0.919,0.403,0.69
				c5.396-2.674,9.847,1.882,11.516,6.74c2.045,5.954-0.509,11.37-6.329,13.668c-4.721,1.864-7.424-2.034-8.178-6.193
				c-0.83-4.581,0.205-9.869,2.816-13.721C91.448,83.49,90.754,83.09,90.467,83.515L90.467,83.515z"/>
		</g>
	</g>
	<g>
		<g>
			<path fill="#231F20" d="M96.652,108.177c-2.992-0.698-4.207-3.573-5.813-5.87c-0.293-0.419-0.987-0.021-0.69,0.403
				c1.737,2.484,3.063,5.484,6.291,6.238C96.941,109.065,97.154,108.294,96.652,108.177L96.652,108.177z"/>
		</g>
	</g>
	<g>
		<g>
			<path fill="#231F20" d="M92.431,82.006c1.389-2.349,3.438-4.241,6.132-4.913c0.5-0.125,0.288-0.896-0.213-0.771
				c-2.889,0.721-5.12,2.76-6.61,5.281C91.478,82.048,92.169,82.45,92.431,82.006L92.431,82.006z"/>
		</g>
	</g>
	<g>
		<g>
			<path fill="#231F20" d="M101.072,94.438c-0.032-0.21-0.167-1.044,0.036-1.193c-0.042,0.031-0.146-0.001-0.131,0.011
				c0.083,0.067,0.136,0.163,0.189,0.253c0.206,0.346,0.308,0.756,0.409,1.142c0.13,0.499,0.902,0.287,0.771-0.213
				c-0.145-0.555-0.554-2.217-1.467-1.956c-0.839,0.24-0.675,1.539-0.579,2.169C100.379,95.16,101.149,94.943,101.072,94.438
				L101.072,94.438z"/>
		</g>
	</g>
	<g>
		<g>
			<path fill="#231F20" d="M122.782,81.194c5.936,4.398,14.725,0.249,21.415,0.753c3.758,0.283,7.507,0.841,11.281,0.521
				c3.747-0.318,7.07-1.958,10.072-4.141c0.412-0.3,0.014-0.995-0.404-0.69c-3.126,2.272-6.433,3.757-10.309,4.085
				c-3.527,0.299-7.13-0.286-10.641-0.575c-3.188-0.262-6.247,0.175-9.394,0.646c-3.892,0.583-8.245,1.21-11.618-1.289
				C122.771,80.196,122.373,80.891,122.782,81.194L122.782,81.194z"/>
		</g>
	</g>
	<g>
		<g>
			<path fill="#231F20" d="M137.319,86.664c3.403,0.29,6.663,0.201,9.981-0.65c0.5-0.128,0.287-0.9-0.213-0.771
				c-3.256,0.835-6.438,0.906-9.768,0.622C136.805,85.82,136.809,86.62,137.319,86.664L137.319,86.664z"/>
		</g>
	</g>
	<g>
		<g>
			<path fill="#231F20" d="M144.964,91.441c1.474,0.02,2.919,0.265,4.257,0.901c0.463,0.221,0.869-0.469,0.403-0.69
				c-1.468-0.699-3.041-0.989-4.661-1.011C144.448,90.635,144.448,91.435,144.964,91.441L144.964,91.441z"/>
		</g>
	</g>
	<g>
		<g>
			<path fill="#231F20" d="M135.514,98.754c3.491-1.083,7.2,0.152,10.607-1.315c0.473-0.204,0.065-0.893-0.403-0.69
				c-3.305,1.423-7.005,0.176-10.417,1.234C134.81,98.135,135.02,98.907,135.514,98.754L135.514,98.754z"/>
		</g>
	</g>
	<g>
		<g>
			<path fill="#231F20" d="M120.822,108.986c0.368-1.747,0.939-3.439,1.593-5.097c-0.128,0.098-0.257,0.196-0.386,0.293
				c0.101,0.009,0.209,0.559,0.25,0.662c0.19,0.472,0.964,0.266,0.771-0.213c-0.269-0.668-0.184-1.174-1.022-1.249
				c-0.188-0.017-0.324,0.137-0.386,0.293c-0.654,1.658-1.226,3.351-1.593,5.097C119.944,109.277,120.715,109.491,120.822,108.986
				L120.822,108.986z"/>
		</g>
	</g>
	<g>
		<g>
			<path fill="#231F20" d="M149.809,107.18c-0.358-1.509-0.588-2.828-1.696-3.998c-0.129,0.223-0.259,0.446-0.389,0.668
				c0.551,0.166,1.179,0.317,1.307,0.946c0.115,0.56,0.122,1.095,0.326,1.641c0.179,0.479,0.952,0.271,0.771-0.213
				c-0.235-0.631-0.181-1.311-0.407-1.933c-0.268-0.738-1.104-1.007-1.785-1.212c-0.396-0.119-0.657,0.386-0.389,0.668
				c1.002,1.06,1.168,2.289,1.49,3.646C149.156,107.895,149.928,107.682,149.809,107.18L149.809,107.18z"/>
		</g>
	</g>
	<g>
		<g>
			<path fill="#231F20" d="M145.283,100.679c0.516,0,0.516-0.8,0-0.8S144.767,100.679,145.283,100.679L145.283,100.679z"/>
		</g>
	</g>
	<g>
		<g>
			<path fill="#231F20" d="M125.734,101.58c1.651-0.926,3.564-1.183,5.426-0.915c0.504,0.072,0.722-0.698,0.213-0.771
				c-2.083-0.299-4.191-0.043-6.042,0.996C124.881,101.142,125.284,101.833,125.734,101.58L125.734,101.58z"/>
		</g>
	</g>
	<g>
		<g>
			<path fill="#231F20" d="M140.302,99.669c2.815,1.584,6.032,1.046,9.121,1.01c0.516-0.006,0.516-0.806,0-0.8
				c-2.921,0.034-6.049,0.601-8.717-0.9C140.256,98.725,139.853,99.416,140.302,99.669L140.302,99.669z"/>
		</g>
	</g>
	<g>
		<g>
			<path fill="#231F20" d="M117.65,120.347c0-1.146,0.042-2.277,0.304-3.398c0.117-0.502-0.654-0.715-0.771-0.213
				c-0.278,1.19-0.332,2.394-0.333,3.611C116.85,120.863,117.65,120.863,117.65,120.347L117.65,120.347z"/>
		</g>
	</g>
	<g>
		<g>
			<path fill="#231F20" d="M182.552,114.695c3.116-0.098,5.889-1.926,7.354-4.657c0.243-0.454-0.447-0.858-0.691-0.403
				c-1.331,2.482-3.819,4.171-6.662,4.261C182.037,113.911,182.035,114.711,182.552,114.695L182.552,114.695z"/>
		</g>
	</g>
	<g>
		<g>
			<path fill="#231F20" d="M186.692,113.74c0.981,0.03,1.958,0.599,2.521,1.394c0.296,0.417,0.99,0.019,0.691-0.403
				c-0.733-1.034-1.933-1.751-3.213-1.791C186.176,112.924,186.178,113.725,186.692,113.74L186.692,113.74z"/>
		</g>
	</g>
	<g>
		<g>
			<path fill="#231F20" d="M188.72,112.411c1.313,0.677,2.51,1.554,3.823,2.229c0.458,0.236,0.863-0.455,0.404-0.69
				c-1.314-0.676-2.51-1.553-3.823-2.229C188.666,111.484,188.261,112.174,188.72,112.411L188.72,112.411z"/>
		</g>
	</g>
	<g>
		<g>
			<path fill="#231F20" d="M95.245,110.993c0.724,1.059,1.633,1.969,2.692,2.693c0.427,0.292,0.827-0.401,0.403-0.69
				c-0.94-0.644-1.762-1.465-2.405-2.406C95.646,110.166,94.953,110.566,95.245,110.993L95.245,110.993z"/>
		</g>
	</g>
	<g>
		<g>
			<path fill="#231F20" d="M115.339,79.494c-1.777,0.064-0.176,1.649,0.425,2.105c1.635,1.241,3.455,2.207,5.107,3.418
				c0.417,0.306,0.815-0.389,0.403-0.69c-1.003-0.736-2.091-1.363-3.133-2.044c-0.617-0.403-1.227-0.818-1.819-1.257
				c-0.25-0.185-0.489-0.383-0.718-0.593c-0.092-0.084-0.186-0.176-0.262-0.274c-0.113-0.147-0.235,0.144-0.003,0.135
				C115.854,80.275,115.855,79.475,115.339,79.494L115.339,79.494z"/>
		</g>
	</g>
	<g>
		<g>
			<path fill="#231F20" d="M197.098,114.362c0.041,0.008,0.082,0.016,0.123,0.023c0-0.257,0-0.514,0-0.771
				c-0.621,0.188-1.28,0.244-1.927,0.281c-0.512,0.03-0.52,0.795,0,0.8c5.232,0.047,10.402,0.834,15.612,1.215
				c5.423,0.397,10.78,1.877,16.24,1.652c0.514-0.021,0.516-0.821,0-0.8c-5.163,0.212-10.169-1.203-15.29-1.594
				c-5.518-0.422-11.022-1.224-16.562-1.274c0,0.267,0,0.533,0,0.8c0.708-0.041,1.458-0.103,2.14-0.31
				c0.356-0.108,0.408-0.693,0-0.771c-0.041-0.008-0.082-0.016-0.123-0.023C196.807,113.494,196.592,114.265,197.098,114.362
				L197.098,114.362z"/>
		</g>
	</g>
	<g>
		<g>
			<path fill="#231F20" d="M203.574,121.066c6.381-0.668,12.699-1.862,19.111-2.229c4.059-0.232,7.809-0.491,11.408,1.653
				c1.603,0.955,3.74,1.896,3.859,3.847c0.102,1.682,0.267,3.356,0.308,5.041c0.096,3.993-0.84,8.177-5.698,7.771
				c-0.515-0.043-0.51,0.757,0,0.8c3.842,0.322,5.846-1.951,6.357-5.589c0.271-1.935,0.134-3.92-0.006-5.86
				c-0.052-0.728,0.19-3.507-0.417-3.948c-3.814-2.763-6.896-4.718-11.681-4.663c-7.827,0.091-15.481,1.564-23.242,2.377
				C203.066,120.319,203.062,121.12,203.574,121.066L203.574,121.066z"/>
		</g>
	</g>
	<g>
		<g>
			<path fill="#231F20" d="M210.061,157.909c-1.277,0.757-2.786,0.808-3.877-0.296c-1.324-1.34-0.288-3.164,0.859-4.174
				c0.388-0.342-0.181-0.905-0.566-0.566c-1.479,1.305-2.346,3.312-1.058,5.064c1.202,1.637,3.437,1.615,5.046,0.663
				C210.908,158.338,210.506,157.646,210.061,157.909L210.061,157.909z"/>
		</g>
	</g>
	<g>
		<g>
			<path fill="#231F20" d="M206.335,152.452c-3.396,1.071-6.67,0.041-10.087-0.331c-0.513-0.056-0.507,0.745,0,0.801
				c3.509,0.382,6.816,1.4,10.3,0.302C207.038,153.069,206.828,152.297,206.335,152.452L206.335,152.452z"/>
		</g>
	</g>
	<g>
		<g>
			<path fill="#231F20" d="M231.925,158.973c3.23-0.157,5.729-1.975,8.721-2.949c3.71-1.209,8.124,0.587,11.982,0.082
				c2.973-0.39,8.104-0.568,9.788-3.537c0.704-1.241-0.331-2.65-1.19-3.473c-1.181-1.13-3.153-0.932-4.605-0.656
				c-1.312,0.249-7.973,2.721-5.867,5c0.352,0.379,0.915-0.188,0.566-0.566c-0.802-0.867,2.229-2.427,2.776-2.706
				c1.584-0.81,3.506-1.33,5.284-1.06c2.167,0.328,3.211,2.819,1.303,4.125c-1.209,0.827-2.8,1.161-4.208,1.474
				c-3.851,0.854-7.526,0.737-11.432,0.338c-2.071-0.212-3.914-0.102-5.854,0.654c-2.454,0.956-4.553,2.343-7.264,2.475
				C231.411,158.197,231.409,158.997,231.925,158.973L231.925,158.973z"/>
		</g>
	</g>
	<g>
		<g>
			<path fill="#231F20" d="M255.921,148.63c-4.164-0.574-7.742-3.185-11.566-4.776c-4.205-1.75-8.822-2.772-12.466-5.633
				c-0.401-0.315-0.972,0.247-0.566,0.565c3.15,2.474,6.945,3.63,10.658,4.985c4.583,1.672,8.841,4.956,13.728,5.63
				C256.213,149.471,256.43,148.701,255.921,148.63L255.921,148.63z"/>
		</g>
	</g>
	<g>
		<g>
			<path fill="#231F20" d="M247.851,150.846c-2.491-0.209-4.896-3.174-6.615-4.755c-1.728-1.59-3.479-3.368-5.604-4.428
				c-0.46-0.229-0.866,0.46-0.404,0.69c2.781,1.388,5,3.93,7.286,5.983c1.462,1.313,3.271,3.136,5.337,3.31
				C248.365,151.689,248.36,150.889,247.851,150.846L247.851,150.846z"/>
		</g>
	</g>
	<g>
		<g>
			<path fill="#231F20" d="M206.123,153.557c0.516,0,0.516-0.801,0-0.801S205.607,153.557,206.123,153.557L206.123,153.557z"/>
		</g>
	</g>
	<g>
		<g>
			<path fill="#231F20" d="M206.469,153.358c1.626-2.636,2.83-5.324,2.604-8.484c-0.037-0.511-0.837-0.515-0.801,0
				c0.218,3.027-0.939,5.56-2.494,8.08C205.506,153.395,206.198,153.796,206.469,153.358L206.469,153.358z"/>
		</g>
	</g>
	<g>
		<g>
			<path fill="#231F20" d="M73.225,196.584c0.903,2.807,3.169,5.137,5.199,7.185c0.363,0.366,0.929-0.199,0.565-0.566
				c-1.934-1.949-4.134-4.158-4.993-6.831C73.839,195.882,73.067,196.092,73.225,196.584L73.225,196.584z"/>
		</g>
	</g>
	<g>
		<g>
			<path fill="#231F20" d="M209.308,187.005c0.516,0,0.516-0.801,0-0.801S208.792,187.005,209.308,187.005L209.308,187.005z"/>
		</g>
	</g>
	<g>
		<g>
			<path fill="#231F20" d="M208.962,186.402c-0.592,1.146-1.271,2.169-2.167,3.104c-0.358,0.374,0.187,0.913,0.566,0.566
				c2.44-2.234,3.268-5.007,3.302-8.247c0.005-0.516-0.795-0.516-0.801,0c-0.031,3.038-0.774,5.583-3.067,7.681
				c0.188,0.188,0.378,0.378,0.566,0.566c0.943-0.984,1.666-2.055,2.292-3.266C209.89,186.349,209.199,185.944,208.962,186.402
				L208.962,186.402z"/>
		</g>
	</g>
	<g>
		<g>
			<path fill="#231F20" d="M234.19,192.938c1.061,1.04,2.262,1.931,3.583,2.611c0.458,0.235,0.863-0.455,0.404-0.691
				c-1.265-0.65-2.407-1.49-3.421-2.486C234.389,192.01,233.822,192.575,234.19,192.938L234.19,192.938z"/>
		</g>
	</g>
	<g>
		<g>
			<path fill="#231F20" d="M91.516,141.582c-0.272-0.802-0.618-1.567-0.995-2.325c-0.229-0.462-0.919-0.057-0.69,0.403
				c0.346,0.697,0.663,1.397,0.914,2.134C90.909,142.28,91.682,142.072,91.516,141.582L91.516,141.582z"/>
		</g>
	</g>
	<g>
		<g>
			<path fill="#231F20" d="M89.184,135.673c-0.189-0.219-0.199-0.405-0.201-0.674c-0.003-0.516-0.803-0.516-0.8,0
				c0.003,0.493,0.111,0.864,0.436,1.239C88.956,136.629,89.519,136.061,89.184,135.673L89.184,135.673z"/>
		</g>
	</g>
	<g>
		<g>
			<path fill="#231F20" d="M89.564,131.698c0.248-0.519,0.39-1.076,0.637-1.594c0.221-0.463-0.469-0.869-0.69-0.403
				c-0.247,0.519-0.389,1.076-0.637,1.594C88.652,131.757,89.342,132.163,89.564,131.698L89.564,131.698z"/>
		</g>
	</g>
	<g>
		<g>
			<path fill="#231F20" d="M90.776,127.957c0.444-0.485,0.726-1.092,1.018-1.675c0.23-0.459-0.46-0.865-0.69-0.403
				c-0.258,0.515-0.5,1.084-0.893,1.513C89.863,127.771,90.427,128.338,90.776,127.957L90.776,127.957z"/>
		</g>
	</g>
	<g>
		<g>
			<path fill="#231F20" d="M95.154,142.299c-0.6-0.326-0.746-0.921-0.758-1.566c-0.01-0.515-0.81-0.516-0.8,0
				c0.018,0.922,0.303,1.794,1.154,2.256C95.204,143.236,95.608,142.545,95.154,142.299L95.154,142.299z"/>
		</g>
	</g>
	<g>
		<g>
			<path fill="#231F20" d="M93.442,137.866c0-0.425,0-0.849,0-1.274c0-0.516-0.8-0.516-0.8,0c0,0.425,0,0.849,0,1.274
				C92.642,138.382,93.442,138.382,93.442,137.866L93.442,137.866z"/>
		</g>
	</g>
	<g>
		<g>
			<path fill="#231F20" d="M92.804,134.681c0-0.318,0-0.636,0-0.955c0-0.516-0.8-0.516-0.8,0c0,0.318,0,0.636,0,0.955
				C92.004,135.197,92.804,135.197,92.804,134.681L92.804,134.681z"/>
		</g>
	</g>
	<g>
		<g>
			<path fill="#231F20" d="M93.123,132.453c0.002-0.27,0.012-0.455,0.202-0.674c0.336-0.388-0.228-0.957-0.565-0.565
				c-0.325,0.375-0.433,0.747-0.436,1.239C92.32,132.969,93.12,132.968,93.123,132.453L93.123,132.453z"/>
		</g>
	</g>
	<g>
		<g>
			<path fill="#231F20" d="M93.997,129.348c0.516,0,0.516-0.8,0-0.8S93.48,129.348,93.997,129.348L93.997,129.348z"/>
		</g>
	</g>
	<g>
		<g>
			<path fill="#231F20" d="M98.74,140.132c-0.361-0.391-0.593-0.881-0.956-1.272c-0.351-0.379-0.916,0.188-0.565,0.565
				c0.361,0.391,0.593,0.881,0.956,1.272C98.525,141.077,99.09,140.51,98.74,140.132L98.74,140.132z"/>
		</g>
	</g>
	<g>
		<g>
			<path fill="#231F20" d="M98.524,136.062c0.035-0.233,0.28-0.376,0.318-0.637c0.075-0.504-0.696-0.722-0.771-0.213
				c-0.035,0.233-0.279,0.376-0.318,0.637C97.678,136.354,98.449,136.571,98.524,136.062L98.524,136.062z"/>
		</g>
	</g>
	<g>
		<g>
			<path fill="#231F20" d="M99.094,133.488c0.516,0,0.516-0.8,0-0.8S98.578,133.488,99.094,133.488L99.094,133.488z"/>
		</g>
	</g>
	<g>
		<g>
			<path fill="#231F20" d="M69.116,252.574c-1.303-1.59-3.008-2.949-5.167-2.331c-0.495,0.142-0.284,0.914,0.213,0.771
				c1.875-0.537,3.282,0.774,4.389,2.126C68.877,253.54,69.44,252.97,69.116,252.574L69.116,252.574z"/>
		</g>
	</g>
	<g>
		<g>
			<path fill="#231F20" d="M80.583,242.948c1.701-1.873,1.143-4.503,2.611-6.451c-0.209,0.026-0.418,0.054-0.628,0.081
				c0.516,0.511,1.042,0.973,1.674,1.336c0.117,0.066,0.288,0.08,0.403,0c0.531-0.369,1.065-0.829,0.78-1.504
				c-0.2-0.474-0.889-0.065-0.69,0.404c-0.075,0.065-0.149,0.13-0.224,0.195c-0.206,0.24-0.267,0.251-0.183,0.03
				c-0.446-0.256-0.831-0.667-1.195-1.028c-0.199-0.197-0.475-0.122-0.628,0.081c-1.428,1.896-0.865,4.505-2.486,6.289
				C79.671,242.763,80.235,243.33,80.583,242.948L80.583,242.948z"/>
		</g>
	</g>
	<g>
		<g>
			<path fill="#231F20" d="M89.502,232.118c1.743-1.781,3.194-3.817,4.777-5.734c0.326-0.395-0.237-0.964-0.565-0.566
				c-1.584,1.918-3.035,3.954-4.777,5.734C88.575,231.921,89.141,232.487,89.502,232.118L89.502,232.118z"/>
		</g>
	</g>
	<g>
		<g>
			<path fill="#231F20" d="M99.614,222.308c1.313-1.003,2.554-2.171,3.329-3.649c0.239-0.457-0.451-0.861-0.69-0.404
				c-0.709,1.354-1.838,2.443-3.042,3.362C98.807,221.925,99.204,222.62,99.614,222.308L99.614,222.308z"/>
		</g>
	</g>
	<path fill="#231F20" d="M188.762,82.601c-3.11-1.824-16.087-0.319-13.856,8.918c2.231,9.238,4.938,13.38,10.989,11.468
		C191.947,101.075,200.707,89.607,188.762,82.601z"/>
	<path fill="#231F20" d="M87.946,92.315c0,0-0.956-0.796,1.274-4.937c2.229-4.141-0.319-6.052,4.778-5.416
		c5.098,0.638,6.053,1.913,6.689,5.097c0.637,3.186-3.185,16.883-7.007,14.653C89.857,99.482,89.22,99.322,87.946,92.315z"/>
</g>
<g id="Layer_1">
	<g>
		<path d="M299,1v298H1V1H299 M300,0H0v300h300V0L300,0z"/>
	</g>
</g>
</svg>
