<?xml version="1.0" encoding="utf-8"?>
<!-- Generator: Adobe Illustrator 16.0.0, SVG Export Plug-In . SVG Version: 6.00 Build 0)  -->
<!DOCTYPE svg PUBLIC "-//W3C//DTD SVG 1.1//EN" "http://www.w3.org/Graphics/SVG/1.1/DTD/svg11.dtd">
<svg version="1.1" xmlns="http://www.w3.org/2000/svg" xmlns:xlink="http://www.w3.org/1999/xlink" x="0px" y="0px" width="300px"
	 height="300px" viewBox="0 0 300 300" enable-background="new 0 0 300 300" xml:space="preserve">
<g id="Layer_2">
	<g>
		<g>
			<g>
				<path fill="#231F20" d="M93.993,114.65c-4.369-5.005-10.067-1.226-11.021,4.404c-0.55,3.243,0.616,6.828,1.382,9.938
					c0.963,3.911,1.487,7.898,2.468,11.812c1.554,6.198,3.439,11.889,8.159,16.349c1.3,1.229,3.016,2.548,4.899,2.436
					c2.154-0.129,2.751-2.891,3.008-4.547c0.078-0.505-0.692-0.722-0.771-0.213c-0.365,2.353-1.315,4.821-4.083,3.557
					c-1.809-0.826-3.28-2.492-4.548-3.976c-3.325-3.891-4.63-8.958-5.891-13.818c-1.376-5.307-2.378-10.795-3.476-16.168
					c-0.613-2.999-0.694-5.925,0.844-8.666c1.979-3.524,6.005-3.36,8.466-0.541C93.767,115.605,94.331,115.037,93.993,114.65
					L93.993,114.65z"/>
			</g>
		</g>
		<g>
			<g>
				<path fill="#231F20" d="M101.223,154.935c0.565,10.321,3.246,20.355,10.245,28.219c3.613,4.06,8.208,7.144,13.019,9.599
					c5.455,2.784,10.521,6.301,16.191,8.658c5.851,2.433,11.884,2.483,18.092,1.847c4.795-0.492,9.125-1.962,13.119-4.671
					c4.447-3.018,8.877-6.955,12.379-11.036c3.533-4.117,4.944-9.315,5.681-14.589c0.693-4.964,0.348-9.974,1.737-14.841
					c0.142-0.497-0.63-0.708-0.771-0.213c-1.913,6.703-1.116,13.807-2.867,20.575c-1.385,5.353-4.693,9.249-8.712,12.867
					c-4.298,3.87-8.632,7.868-14.188,9.797c-5.631,1.954-12.721,2.274-18.535,1.217c-6.143-1.116-11.531-4.561-16.847-7.639
					c-5.388-3.12-10.878-5.646-15.523-9.898c-8.438-7.723-11.613-18.792-12.22-29.892
					C101.995,154.422,101.194,154.419,101.223,154.935L101.223,154.935z"/>
			</g>
		</g>
		<g>
			<g>
				<path fill="#231F20" d="M190.02,156.693c0,1.026,0,2.052,0,3.078c0,0.168,0.121,0.352,0.294,0.386
					c5.62,1.1,7.225-5.685,7.882-9.872c0.936-5.961,0.6-11.999,0.538-18.002c-0.042-4.149,1.729-8.219,2.018-12.37
					c0.181-2.598-0.604-6.703-3.623-7.452c-4.444-1.104-5.955,10.925-6.229,13.46c-0.038,0.355,0.459,0.518,0.684,0.283
					c2.155-2.257,3.778-4.989,6.155-7.033c-0.228-0.094-0.456-0.188-0.684-0.283c0.069,1.187,0.346,2.334,0.438,3.518
					c0.041,0.511,0.841,0.515,0.801,0c-0.094-1.183-0.37-2.328-0.438-3.518c-0.021-0.36-0.415-0.514-0.684-0.283
					c-2.377,2.044-4,4.776-6.155,7.033c0.228,0.094,0.456,0.188,0.684,0.283c0.264-2.452,2.691-16.12,6.745-11.619
					c2.836,3.149,1.227,8.493,0.427,12.126c-0.554,2.516-0.971,4.874-0.907,7.445c0.125,5.118,0.204,10.248-0.422,15.34
					c-0.322,2.627-0.866,5.357-2.151,7.697c-0.569,1.034-1.398,1.929-2.506,2.376c-2.215,0.892-2.065-0.863-2.065-2.594
					C190.82,156.178,190.02,156.178,190.02,156.693L190.02,156.693z"/>
			</g>
		</g>
		<g>
			<g>
				<path fill="#231F20" d="M98.16,148.008c0.361,0.931,0.792,1.662-0.597,1.365c-0.858-0.184-1.641-0.857-2.284-1.404
					c-1.513-1.285-2.732-2.944-3.864-4.557c-1.727-2.463-3.552-5.216-3.873-8.268c-0.252-2.404,0.163-18.403,5.005-14.216
					c0.388,0.336,0.957-0.228,0.565-0.565c-6.423-5.554-6.642,12.657-6.293,15.459c0.492,3.956,3.594,7.87,6.062,10.821
					c1.237,1.479,2.831,3.149,4.793,3.57c2.12,0.455,1.753-1.136,1.255-2.418C98.747,147.32,97.973,147.526,98.16,148.008
					L98.16,148.008z"/>
			</g>
		</g>
		<g>
			<g>
				<path fill="#231F20" d="M86.622,126.908c0.708-2.356,1.202-4.78,2.085-7.081c0.388-1.01,1.13-2.678,2.446-1.924
					c1.51,0.864,2.412,3.239,3.128,4.712c1.947,4.005,1.527,7.907,0.479,12.061c-0.806,3.199-1.095,6.175-0.119,9.376
					c0.068,0.224,0.272,0.317,0.492,0.279c0.929-0.161,0.817,0.339,1.37,0.776c0.399,0.317,0.97-0.245,0.565-0.565
					c-0.322-0.256-0.427-0.79-0.797-1.007c-0.753-0.441-0.937,0.149-1.245-1.093c-0.674-2.716-0.019-5.471,0.646-8.111
					c1.32-5.235,0.822-9.513-1.817-14.281c-0.899-1.625-2.88-4.479-4.807-2.449c-2.068,2.181-2.372,6.339-3.199,9.094
					C85.702,127.19,86.474,127.4,86.622,126.908L86.622,126.908z"/>
			</g>
		</g>
		<g>
			<g>
				<path fill="#231F20" d="M97.07,144.981c-1.972-1.888-4.34-3.678-5.165-6.375c-0.516-1.688-0.729-3.458-0.638-5.218
					c0.042-0.553,0.152-1.09,0.329-1.613c0.334-1.32,1.324-1.722,2.97-1.206c0.748,1.112,0.139,2.614-0.699,3.422
					c-0.372,0.359,0.194,0.924,0.565,0.565c1.397-1.348,1.734-3.643,0.261-5.076c-1.562-1.519-3.354,0.821-3.869,2.081
					c-1.043,2.553-0.187,6.078,0.741,8.534c0.817,2.164,3.321,3.902,4.939,5.451C96.877,145.903,97.443,145.338,97.07,144.981
					L97.07,144.981z"/>
			</g>
		</g>
		<g>
			<g>
				<path fill="#231F20" d="M192.58,149.66c-0.15-3.739,1.201-7.191,1.635-10.857c0.196-1.658,0.202-3.242-0.054-4.89
					c-0.131-0.848-0.446-1.648-0.758-2.44c-0.238-0.604,1.256-1.097,1.614-1.25c-0.196-0.15-0.392-0.301-0.588-0.452
					c-0.59,3.227-1.161,6.45-1.478,9.717c-0.187,1.933-0.219,3.875-0.058,5.81c0.056,0.678,0.184,1.348,0.322,2.013
					c0.209,1.003-0.183,0.886-1.144,1.084c-0.505,0.104-0.291,0.875,0.213,0.771c0.596-0.123,1.161-0.317,1.757-0.44
					c0.206-0.042,0.344-0.295,0.279-0.492c-1.883-5.752-0.174-12.484,0.879-18.25c0.067-0.368-0.259-0.592-0.588-0.452
					c-0.713,0.304-1.478,0.573-2.197,0.879c-0.211,0.089-0.229,0.371-0.144,0.547c3.045,6.27-0.75,12.27-0.493,18.701
					C191.8,150.174,192.601,150.176,192.58,149.66L192.58,149.66z"/>
			</g>
		</g>
		<g>
			<g>
				<path fill="#231F20" d="M110.454,182.629c0.067,11.197,2.474,23.339,7.967,33.172c0.251,0.45,0.942,0.047,0.69-0.404
					c-5.418-9.699-7.792-21.728-7.858-32.768C111.251,182.113,110.451,182.113,110.454,182.629L110.454,182.629z"/>
			</g>
		</g>
		<g>
			<g>
				<path fill="#231F20" d="M119.3,192.062c2.829,6.131,9.268,9.782,14.114,14.146c5.937,5.345,9.393,11.82,10.902,19.607
					c0.098,0.506,0.869,0.291,0.771-0.213c-1.448-7.474-4.572-13.112-9.745-18.64c-4.896-5.231-12.234-8.548-15.352-15.306
					C119.775,191.19,119.085,191.598,119.3,192.062L119.3,192.062z"/>
			</g>
		</g>
		<g>
			<g>
				<path fill="#231F20" d="M158.291,220.435c-0.647-6.428,3.884-10.847,7.418-15.623c0.307-0.416-0.388-0.813-0.691-0.404
					c-3.626,4.902-8.189,9.448-7.527,16.027C157.542,220.942,158.342,220.948,158.291,220.435L158.291,220.435z"/>
			</g>
		</g>
		<g>
			<g>
				<path fill="#231F20" d="M166.188,219.222c0.435-1.092,0.337-2.476,0.344-3.623c0.01-1.65-0.094-3.31-0.344-4.941
					c-0.078-0.509-0.849-0.292-0.771,0.213c0.24,1.564,0.306,3.148,0.315,4.729c0.006,1.076,0.09,2.393-0.315,3.41
					C165.227,219.488,166,219.695,166.188,219.222L166.188,219.222z"/>
			</g>
		</g>
		<g>
			<g>
				<path fill="#231F20" d="M168.441,219.076c6.62-0.335,8.67-10.185,9.191-15.348c0.052-0.514-0.749-0.508-0.801,0
					c-0.475,4.708-2.364,14.242-8.391,14.547C167.928,218.302,167.926,219.102,168.441,219.076L168.441,219.076z"/>
			</g>
		</g>
		<g>
			<g>
				<path fill="#231F20" d="M180.363,191.088c1.414,7.483,1.403,17.594-3.844,23.653c-5.4,6.238-14.188,8.788-21.874,10.808
					c-4.46,1.172-8.677,1.955-13.275,1.089c-4.65-0.875-8.915-3.28-12.955-5.637c-7.222-4.214-14.833-8.587-14.085-18.15
					c0.041-0.515-0.76-0.511-0.8,0c-0.695,8.876,5.795,14.099,12.947,17.93c4.594,2.46,8.838,5.181,13.954,6.47
					c4.686,1.18,9.185,0.411,13.771-0.761c8.398-2.145,17.47-4.932,23.337-11.707c5.187-5.99,4.974-16.609,3.595-23.907
					C181.039,190.368,180.269,190.584,180.363,191.088L180.363,191.088z"/>
			</g>
		</g>
		<g>
			<g>
				<path fill="#231F20" d="M112.212,203.29c-0.077,10.744-2.556,21.33-2.198,32.091c0.017,0.515,0.817,0.517,0.8,0
					c-0.357-10.761,2.121-21.347,2.198-32.091C113.016,202.774,112.216,202.774,112.212,203.29L112.212,203.29z"/>
			</g>
		</g>
		<g>
			<g>
				<path fill="#231F20" d="M181.242,193.727c3.19,8.111,7.47,16.219,15.131,20.898c0.441,0.27,0.844-0.423,0.404-0.691
					c-7.473-4.563-11.653-12.512-14.764-20.42C181.827,193.039,181.053,193.246,181.242,193.727L181.242,193.727z"/>
			</g>
		</g>
		<g>
			<g>
				<path fill="#231F20" d="M196.189,213.067c0.853,5.013,1.13,9.997-0.401,14.911c-1.486,4.772-4.854,8.469-8.943,11.178
					c-6.343,4.203-14.007,6.288-19.127,12.206c-0.335,0.389,0.228,0.957,0.566,0.566c5.817-6.725,15.016-8.657,21.782-14.146
					c7.607-6.17,8.426-15.925,6.895-24.929C196.875,212.347,196.104,212.562,196.189,213.067L196.189,213.067z"/>
			</g>
		</g>
		<g>
			<g>
				<path fill="#231F20" d="M113.106,209.339c-2.836,8.754-15.055,17.737-6.051,26.765c0.365,0.365,0.93-0.2,0.565-0.566
					c-8.571-8.593,3.552-17.636,6.257-25.985C114.037,209.06,113.264,208.851,113.106,209.339L113.106,209.339z"/>
			</g>
		</g>
		<g>
			<g>
				<path fill="#231F20" d="M106.112,221.112c-2.845,4.28-9.017,4.166-12.246,8.271c-0.179,0.228-0.141,0.584,0.176,0.669
					c1.488,0.397,2.967,0.448,4.502,0.453c0.516,0.001,0.516-0.799,0-0.801c-1.456-0.004-2.872-0.045-4.29-0.424
					c0.059,0.223,0.118,0.445,0.176,0.669c3.281-4.17,9.431-4.011,12.371-8.433C107.089,221.085,106.396,220.686,106.112,221.112
					L106.112,221.112z"/>
			</g>
		</g>
		<g>
			<g>
				<path fill="#231F20" d="M94.306,228.504c-1.336,1.427-2,3.309-1.773,5.261c0.105,0.9,0.581,2.248,1.723,2.002
					c0.504-0.108,0.29-0.88-0.213-0.771c-0.756,0.163-0.765-1.953-0.752-2.326c0.045-1.354,0.668-2.624,1.581-3.599
					C95.224,228.694,94.659,228.127,94.306,228.504L94.306,228.504z"/>
			</g>
		</g>
		<g>
			<g>
				<path fill="#231F20" d="M92.058,230.6c-4.639-1.394-10.132,1.144-7.596,6.699c2.147,4.706,9.864,4.736,13.978,6.381
					c0.479,0.191,0.686-0.582,0.213-0.771c-3.403-1.36-7.096-1.683-10.422-3.314c-2.466-1.209-4.09-3.366-3.394-6.226
					c0.719-2.954,4.852-2.645,7.009-1.997C92.34,231.52,92.55,230.748,92.058,230.6L92.058,230.6z"/>
			</g>
		</g>
		<g>
			<g>
				<path fill="#231F20" d="M83.639,231.864c-0.275,2.228-3.918,3.573-5.633,4.342c-3.713,1.665-7.657,2.843-11.547,4.009
					c-6.962,2.089-14.353,3.547-21.009,6.523c-9.045,4.046-18.615,9.651-24.621,17.694c-3.732,4.997-6.538,10.692-9.513,16.15
					c-1.447,2.655-2.954,5.273-4.587,7.818c-1.026,1.599-2.14,3.138-3.31,4.634c-0.577,0.738-1.997,3.05-2.902,3.05
					c-0.516,0-0.516,0.801,0,0.801c1.629,0,3.155-2.849,4.043-4.021c2-2.641,3.771-5.421,5.436-8.283
					c3.303-5.679,6.145-11.608,9.753-17.11c3.732-5.69,8.426-9.915,14.182-13.514c4.102-2.565,8.519-5.185,13.02-6.991
					c7.556-3.031,15.691-4.663,23.441-7.126c3.471-1.103,6.974-2.29,10.2-4.001c1.558-0.827,3.61-2.044,3.848-3.975
					C84.501,231.354,83.701,231.359,83.639,231.864L83.639,231.864z"/>
			</g>
		</g>
		<g>
			<g>
				<path fill="#231F20" d="M196.134,215.561c6.83,0.126,13.304,3.383,19.195,6.551c6.28,3.378,12.269,7.244,18.624,10.491
					c3.407,1.741,6.893,3.322,10.433,4.772c3.014,1.235,6.065,1.855,9.261,2.427c6.323,1.131,13.545,2.029,18.255,6.852
					c0.361,0.369,0.927-0.197,0.566-0.566c-4.312-4.414-10.655-5.621-16.491-6.681c-3.199-0.58-6.569-0.948-9.621-2.108
					c-4.392-1.669-8.651-3.676-12.832-5.812c-6.543-3.344-12.696-7.374-19.188-10.811c-5.587-2.957-11.772-5.797-18.202-5.916
					C195.617,214.751,195.618,215.551,196.134,215.561L196.134,215.561z"/>
			</g>
		</g>
		<g>
			<g>
				<path fill="#231F20" d="M252.403,238.858c15.181-0.783,30.623,8.899,38.054,21.895c3.453,6.04,5.581,12.895,7.223,19.622
					c1.552,6.36,2.668,13.061,2.237,19.625c-0.033,0.516,0.767,0.512,0.801,0c0.436-6.646-0.742-13.393-2.267-19.838
					c-1.657-7.007-4.005-14.043-7.591-20.314c-7.439-13.012-23.359-22.568-38.457-21.79
					C251.89,238.084,251.888,238.885,252.403,238.858L252.403,238.858z"/>
			</g>
		</g>
		<g>
			<g>
				<path fill="#231F20" d="M133.072,175.502c3.441,2.466,6.86,4.946,10.55,7.034c0.449,0.254,0.853-0.438,0.403-0.691
					c-3.69-2.088-7.108-4.568-10.55-7.034C133.055,174.51,132.656,175.204,133.072,175.502L133.072,175.502z"/>
			</g>
		</g>
		<g>
			<g>
				<path fill="#231F20" d="M174.981,176.582c0.465-2.19,1.28-4.239,2.597-6.06c0.303-0.419-0.392-0.817-0.691-0.404
					c-1.354,1.873-2.199,3.998-2.677,6.251C174.104,176.872,174.874,177.087,174.981,176.582L174.981,176.582z"/>
			</g>
		</g>
		<g>
			<g>
				<path fill="#231F20" d="M184.227,164.607c-0.244-3.972,2.027-7.476,1.76-11.43c-0.035-0.512-0.835-0.516-0.801,0
					c0.268,3.941-2.003,7.458-1.76,11.43C183.458,165.12,184.258,165.123,184.227,164.607L184.227,164.607z"/>
			</g>
		</g>
		<g>
			<g>
				<path fill="#231F20" d="M121.351,167.577c-0.474-3.1-1.286-6.133-1.759-9.232c-0.078-0.509-0.848-0.292-0.771,0.213
					c0.473,3.1,1.285,6.133,1.759,9.232C120.657,168.299,121.428,168.082,121.351,167.577L121.351,167.577z"/>
			</g>
		</g>
		<g>
			<g>
				<path fill="#231F20" d="M128.281,166.081c-3.988-3.455,0.934-9.4,3.307-12.297c2.914-3.557,6.35-6.606,9.441-9.995
					c0.347-0.38-0.217-0.947-0.565-0.565c-3.627,3.975-7.633,7.541-10.902,11.845c-2.33,3.067-5.608,8.318-1.846,11.578
					C128.103,166.983,128.671,166.42,128.281,166.081L128.281,166.081z"/>
			</g>
		</g>
		<g>
			<g>
				<path fill="#231F20" d="M167.121,143.907c6.446,0.273,13.435,9.176,12.788,15.424c-0.053,0.513,0.748,0.508,0.801,0
					c0.694-6.715-6.715-15.933-13.589-16.224C166.605,143.085,166.607,143.885,167.121,143.907L167.121,143.907z"/>
			</g>
		</g>
		<g>
			<g>
				<path fill="#231F20" d="M135.085,164.939c-0.602,2.188,2.562,1.565,3.769,1.394c5.292-0.755,10.255,0.244,15.52,0.871
					c0.512,0.061,0.506-0.74,0-0.801c-3.96-0.471-7.871-1.252-11.869-1.318c-0.945-0.015-6.943,1.141-6.648,0.067
					C135.994,164.654,135.222,164.442,135.085,164.939L135.085,164.939z"/>
			</g>
		</g>
		<g>
			<g>
				<path fill="#231F20" d="M156.132,166.326c5.768-0.086,11.382-1.667,17.145-1.759c0.516-0.009,0.517-0.809,0-0.801
					c-5.763,0.093-11.378,1.674-17.145,1.759C155.616,165.533,155.615,166.333,156.132,166.326L156.132,166.326z"/>
			</g>
		</g>
		<g>
			<g>
				<path fill="#231F20" d="M138.002,164.993c10.936,3.064,22.103-3.945,32.971-0.44c0.492,0.159,0.702-0.614,0.213-0.771
					c-10.895-3.513-22.053,3.5-32.971,0.44C137.717,164.082,137.506,164.854,138.002,164.993L138.002,164.993z"/>
			</g>
		</g>
		<g>
			<g>
				<path fill="#231F20" d="M139.666,169.786c4.505,2.956,9.575,2.29,14.708,2.254c0.516-0.004,0.516-0.804,0-0.801
					c-4.969,0.035-9.926,0.729-14.305-2.145C139.636,168.812,139.236,169.504,139.666,169.786L139.666,169.786z"/>
			</g>
		</g>
		<g>
			<g>
				<path fill="#231F20" d="M157.451,172.04c5.608,0.421,12.026,0.121,16.547-3.635c0.396-0.33-0.172-0.894-0.566-0.566
					c-4.342,3.608-10.606,3.805-15.98,3.4C156.937,171.201,156.94,172.001,157.451,172.04L157.451,172.04z"/>
			</g>
		</g>
		<g>
			<g>
				<path fill="#231F20" d="M138.548,165.446c5.827-0.489,11.661-1.654,17.477-0.453c0.504,0.104,0.718-0.667,0.213-0.771
					c-5.894-1.217-11.783-0.071-17.69,0.424C138.038,164.688,138.034,165.489,138.548,165.446L138.548,165.446z"/>
			</g>
		</g>
		<g>
			<g>
				<path fill="#231F20" d="M152.02,159.048c-0.439-0.439-0.879-0.879-1.319-1.317c-0.273-0.271-0.801,0-0.668,0.39
					c0.415,1.222,0.953,2.32,1.86,3.253c0.36,0.37,0.926-0.196,0.566-0.566c-0.812-0.833-1.284-1.807-1.655-2.899
					c-0.223,0.13-0.446,0.26-0.668,0.39c0.44,0.438,0.879,0.878,1.318,1.317C151.818,159.979,152.384,159.413,152.02,159.048
					L152.02,159.048z"/>
			</g>
		</g>
		<g>
			<g>
				<path fill="#231F20" d="M158.676,161.731c0.383-0.793,0.493-1.527,0.494-2.4c0-0.516-0.8-0.516-0.801,0
					c0,0.726-0.064,1.334-0.385,1.996C157.762,161.79,158.451,162.195,158.676,161.731L158.676,161.731z"/>
			</g>
		</g>
		<g>
			<g>
				<path fill="#231F20" d="M148.619,144.384c-0.066-1.655-0.518-3.178-1.373-4.597c-0.093-0.155-0.276-0.231-0.452-0.184
					c-4.184,1.125-7.406,6.699-4.132,10.339c0.346,0.384,0.91-0.183,0.565-0.565c-1.884-2.095-1.114-4.887,0.488-6.891
					c0.742-0.927,1.749-1.593,2.856-1.994c0.758-0.275,1.234,3.557,1.248,3.892C147.839,144.898,148.64,144.9,148.619,144.384
					L148.619,144.384z"/>
			</g>
		</g>
		<g>
			<g>
				<path fill="#231F20" d="M143.277,150.045c4.559,1.522,15.288,12.126,18.915,4.213c0.213-0.466-0.477-0.872-0.691-0.404
					c-3.224,7.035-13.744-3.156-18.011-4.581C143,149.11,142.791,149.883,143.277,150.045L143.277,150.045z"/>
			</g>
		</g>
		<g>
			<g>
				<path fill="#231F20" d="M153.388,151.804c1.605,0.522,3.25,0.865,4.942,0.894c0.517,0.008,0.516-0.792,0-0.801
					c-1.623-0.026-3.19-0.363-4.729-0.864C153.108,150.872,152.899,151.645,153.388,151.804L153.388,151.804z"/>
			</g>
		</g>
		<g>
			<g>
				<path fill="#231F20" d="M160.811,155.218c1.205-1.228,2.188-2.611,3.141-4.037c0.287-0.431-0.406-0.831-0.691-0.404
					c-0.914,1.37-1.857,2.697-3.016,3.875C159.883,155.02,160.448,155.586,160.811,155.218L160.811,155.218z"/>
			</g>
		</g>
		<g>
			<g>
				<path fill="#231F20" d="M163.369,150.885c0.662-0.354,1.098-0.967,1.757-1.32c0.455-0.243,0.051-0.934-0.404-0.69
					c-0.662,0.354-1.098,0.968-1.757,1.32C162.51,150.438,162.914,151.128,163.369,150.885L163.369,150.885z"/>
			</g>
		</g>
		<g>
			<g>
				<path fill="#231F20" d="M163.605,150.939c0.747-0.077,1.452-0.362,2.197-0.439c0.191-0.02,0.318-0.111,0.386-0.293
					c0.861-2.347,0.887-4.809,0.439-7.248c-0.093-0.507-0.864-0.292-0.771,0.213c0.329,1.794,0.364,3.563,0.01,5.356
					c-0.048,0.238-0.176,1.164-0.407,1.21c-0.616,0.123-1.227,0.336-1.854,0.4C163.098,150.192,163.093,150.992,163.605,150.939
					L163.605,150.939z"/>
			</g>
		</g>
		<g>
			<g>
				<path fill="#231F20" d="M164.769,141.024c-0.557-0.554-1.141-1.02-1.841-1.38c-0.458-0.236-0.862,0.454-0.404,0.69
					c0.643,0.332,1.17,0.748,1.679,1.255C164.568,141.954,165.134,141.389,164.769,141.024L164.769,141.024z"/>
			</g>
		</g>
		<g>
			<g>
				<path fill="#231F20" d="M148.259,143.066c0.037,1.532,1.184,2.143,2.492,2.583c0.49,0.165,0.699-0.607,0.213-0.771
					c-0.943-0.318-1.877-0.68-1.905-1.812C149.047,142.551,148.247,142.55,148.259,143.066L148.259,143.066z"/>
			</g>
		</g>
		<g>
			<g>
				<path fill="#231F20" d="M150.512,138.871c0.878,1.759,1.757,3.518,2.636,5.276c0.231,0.462,0.921,0.057,0.691-0.403
					c-0.879-1.759-1.758-3.518-2.637-5.276C150.972,138.006,150.282,138.411,150.512,138.871L150.512,138.871z"/>
			</g>
		</g>
		<g>
			<g>
				<path fill="#231F20" d="M150.751,134.22c1.959,0.562,0.964-2.574,0.946-3.463c-0.011-0.515-0.811-0.516-0.8,0
					c0.011,0.55,0.113,1.094,0.201,1.636c0.043,0.266,0.077,0.53,0.086,0.799c0.011,0.315,0.03,0.329-0.22,0.257
					C150.467,133.306,150.256,134.078,150.751,134.22L150.751,134.22z"/>
			</g>
		</g>
		<g>
			<g>
				<path fill="#231F20" d="M161.354,136.366c-0.376-1.582-0.376-3.041,0-4.623c0.119-0.502-0.652-0.715-0.771-0.213
					c-0.407,1.716-0.407,3.332,0,5.048C160.701,137.08,161.473,136.868,161.354,136.366L161.354,136.366z"/>
			</g>
		</g>
		<g>
			<g>
				<path fill="#231F20" d="M172.993,147.745c0.94,0.941,1.607,1.85,1.641,3.233c0.013,0.515,0.812,0.517,0.801,0
					c-0.039-1.599-0.78-2.702-1.875-3.799C173.194,146.814,172.629,147.38,172.993,147.745L172.993,147.745z"/>
			</g>
		</g>
		<g>
			<g>
				<path fill="#231F20" d="M95.625,115.215c5.952,5.295,13.223,9.247,20.303,12.811c0.459,0.231,0.864-0.458,0.403-0.69
					c-7.012-3.53-14.246-7.442-20.141-12.686C95.807,114.308,95.239,114.872,95.625,115.215L95.625,115.215z"/>
			</g>
		</g>
		<g>
			<g>
				<path fill="#231F20" d="M115.689,128.959c0.586,0,1.172,0,1.759,0c0.516,0,0.516-0.8,0-0.8c-0.586,0-1.172,0-1.759,0
					C115.173,128.16,115.173,128.959,115.689,128.959L115.689,128.959z"/>
			</g>
		</g>
		<g>
			<g>
				<path fill="#231F20" d="M136.017,139.165c-8.411-1.78-17.71-7.748-12.949-17.438c0.227-0.461-0.463-0.867-0.69-0.403
					c-1.893,3.853-2.252,8.235,0.615,11.737c3.165,3.867,8.034,5.864,12.812,6.875C136.308,140.042,136.521,139.271,136.017,139.165
					L136.017,139.165z"/>
			</g>
		</g>
		<g>
			<g>
				<path fill="#231F20" d="M124.683,118.794c4.725-3.047,10.919-4.19,16.204-1.909c6.086,2.626,6.405,9.166,4.309,14.646
					c-0.185,0.483,0.589,0.689,0.771,0.213c2.222-5.81,1.712-12.215-4.266-15.354c-5.434-2.852-12.479-1.475-17.422,1.714
					C123.848,118.382,124.249,119.075,124.683,118.794L124.683,118.794z"/>
			</g>
		</g>
		<g>
			<g>
				<path fill="#231F20" d="M137.386,137.195c1.221,1.073,2.688,0.051,3.643-0.879c0.37-0.36-0.196-0.926-0.565-0.565
					c-0.576,0.562-1.701,1.592-2.512,0.879C137.566,136.291,136.998,136.854,137.386,137.195L137.386,137.195z"/>
			</g>
		</g>
		<g>
			<g>
				<path fill="#231F20" d="M149.538,123.245c3.387-0.397,6.742-0.376,9.388,2.081c0.378,0.351,0.945-0.214,0.566-0.565
					c-2.802-2.601-6.327-2.74-9.954-2.315C149.032,122.504,149.026,123.305,149.538,123.245L149.538,123.245z"/>
			</g>
		</g>
		<g>
			<g>
				<path fill="#231F20" d="M147.102,125.388c3.573-1.747,7.829-3.311,11.465-0.88c0.431,0.288,0.83-0.405,0.404-0.69
					c-3.882-2.595-8.437-0.996-12.273,0.88C146.235,124.924,146.641,125.614,147.102,125.388L147.102,125.388z"/>
			</g>
		</g>
		<g>
			<g>
				<path fill="#231F20" d="M161.808,128.999c-0.396-5.576,2.228-11.108,6.871-14.25c4.511-3.053,10.442-1.872,13.922,2.107
					c5.28,6.039,5.433,18.846-2.054,23.228c-0.444,0.26-0.042,0.952,0.404,0.69c8.414-4.925,7.63-18.816,1.542-25.223
					c-3.742-3.938-9.739-4.215-14.219-1.493c-4.955,3.01-7.668,9.294-7.268,14.941C161.044,129.511,161.844,129.514,161.808,128.999
					L161.808,128.999z"/>
			</g>
		</g>
		<g>
			<g>
				<path fill="#231F20" d="M186.62,128.402c0.676,0.595,1.634,0.557,2.481,0.558c0.516,0,0.516-0.799,0-0.8
					c-0.589,0-1.438,0.097-1.915-0.323C186.801,127.497,186.232,128.061,186.62,128.402L186.62,128.402z"/>
			</g>
		</g>
		<g>
			<g>
				<path fill="#231F20" d="M189.447,127.882c1.724-2.25,2.633-4.842,2.692-7.675c0.011-0.516-0.79-0.515-0.801,0
					c-0.056,2.704-0.94,5.128-2.583,7.272C188.442,127.888,189.138,128.286,189.447,127.882L189.447,127.882z"/>
			</g>
		</g>
		<g>
			<g>
				<path fill="#231F20" d="M122.44,125.326c3.019,2.357,6.874,3.088,10.192,4.897c0.453,0.247,0.856-0.443,0.403-0.69
					c-3.248-1.772-7.08-2.47-10.03-4.772C122.604,124.447,122.034,125.009,122.44,125.326L122.44,125.326z"/>
			</g>
		</g>
		<g>
			<g>
				<path fill="#231F20" d="M114.088,121.369c1.738,2.076,4.094,3.215,6.638,1.821c0.453-0.248,0.049-0.938-0.403-0.69
					c-2.231,1.221-4.183,0.079-5.669-1.696C114.322,120.408,113.759,120.977,114.088,121.369L114.088,121.369z"/>
			</g>
		</g>
		<g>
			<g>
				<path fill="#231F20" d="M117.103,119.09c0.962,1.8,2.716,2.758,4.634,3.261c0.5,0.131,0.711-0.641,0.213-0.771
					c-1.725-0.452-3.289-1.269-4.157-2.893C117.55,118.232,116.86,118.636,117.103,119.09L117.103,119.09z"/>
			</g>
		</g>
		<g>
			<g>
				<path fill="#231F20" d="M122.39,123.67c4.021-1.366,6.245-5.017,10.806-5.417c4.157-0.366,7.837,2.928,11.84,3.659
					c0.504,0.092,0.72-0.679,0.213-0.771c-3.992-0.729-7.28-3.465-11.384-3.698c-1.931-0.109-3.876,0.53-5.538,1.459
					c-2.097,1.173-3.852,3.217-6.15,3.997C121.691,123.063,121.899,123.836,122.39,123.67L122.39,123.67z"/>
			</g>
		</g>
		<g>
			<g>
				<path fill="#231F20" d="M143.182,121.62c-2.433,1.691-7.106,1.252-9.913,1.312c-2.065,0.043-4.132,0.002-6.193-0.125
					c-1.098-0.067-3.146,0.054-4.071-0.684c-0.399-0.318-0.969,0.244-0.565,0.565c0.786,0.627,1.997,0.659,2.953,0.772
					c2.246,0.267,4.528,0.288,6.786,0.283c2.415-0.005,4.834-0.116,7.235-0.383c1.341-0.149,3.025-0.254,4.171-1.051
					C144.006,122.019,143.606,121.325,143.182,121.62L143.182,121.62z"/>
			</g>
		</g>
		<g>
			<g>
				<path fill="#231F20" d="M131.075,127.201c1.905,0,3.81,0,5.715,0c0.516,0,0.516-0.8,0-0.8c-1.905,0-3.81,0-5.715,0
					C130.559,126.401,130.559,127.201,131.075,127.201L131.075,127.201z"/>
			</g>
		</g>
		<g>
			<g>
				<path fill="#231F20" d="M165.696,127.187c4.279,1.192,8.482,0.856,12.854,0.453c0.509-0.047,0.514-0.847,0-0.8
					c-4.298,0.396-8.424,0.751-12.642-0.424C165.411,126.277,165.2,127.049,165.696,127.187L165.696,127.187z"/>
			</g>
		</g>
		<g>
			<g>
				<path fill="#231F20" d="M163.605,122.365c4.808-0.466,10.98-1.167,15.185,1.704c0.428,0.292,0.827-0.402,0.404-0.69
					c-4.337-2.961-10.651-2.292-15.589-1.813C163.097,121.615,163.092,122.415,163.605,122.365L163.605,122.365z"/>
			</g>
		</g>
		<g>
			<g>
				<path fill="#231F20" d="M180.026,123.567c0.146,0.147,0.293,0.293,0.439,0.44c0.365,0.365,0.931-0.2,0.566-0.565
					c-0.146-0.147-0.293-0.293-0.439-0.44C180.228,122.636,179.662,123.202,180.026,123.567L180.026,123.567z"/>
			</g>
		</g>
		<g>
			<g>
				<path fill="#231F20" d="M180.855,122.898c-2.773-0.914-5.58-1.723-8.353-2.638c-0.491-0.162-0.7,0.611-0.213,0.771
					c2.773,0.915,5.579,1.725,8.353,2.638C181.134,123.832,181.343,123.059,180.855,122.898L180.855,122.898z"/>
			</g>
		</g>
		<g>
			<g>
				<path fill="#231F20" d="M176.46,121.032c2.143-0.375,3.713,0.679,4.822,2.454c0.273,0.437,0.966,0.035,0.691-0.403
					c-1.315-2.105-3.215-3.262-5.727-2.822C175.739,120.349,175.955,121.12,176.46,121.032L176.46,121.032z"/>
			</g>
		</g>
		<g>
			<g>
				<path fill="#231F20" d="M181.535,122.205c-3.619-6.653-13.934-7.553-19.093-2.28c-0.36,0.369,0.205,0.935,0.566,0.565
					c4.806-4.913,14.461-4.086,17.835,2.118C181.091,123.062,181.781,122.658,181.535,122.205L181.535,122.205z"/>
			</g>
		</g>
		<g>
			<g>
				<path fill="#231F20" d="M161.368,121.525c0-1.176,0.065-2.281,0.425-3.41c0.157-0.493-0.615-0.703-0.771-0.213
					c-0.381,1.196-0.453,2.375-0.454,3.623C160.567,122.042,161.367,122.042,161.368,121.525L161.368,121.525z"/>
			</g>
		</g>
		<g>
			<g>
				<path fill="#231F20" d="M160.049,120.646c-0.076-2.878-1.287-5.347-2.212-8.019c-0.168-0.484-0.94-0.276-0.771,0.213
					c0.899,2.598,2.108,5,2.183,7.806C159.262,121.161,160.062,121.162,160.049,120.646L160.049,120.646z"/>
			</g>
		</g>
		<g>
			<g>
				<path fill="#231F20" d="M158.876,117.955c4.05-0.599,6.9-3.622,10.207-5.754c0.432-0.278,0.031-0.971-0.404-0.69
					c-3.243,2.09-6.041,5.085-10.016,5.673C158.154,117.259,158.371,118.03,158.876,117.955L158.876,117.955z"/>
			</g>
		</g>
		<g>
			<g>
				<path fill="#231F20" d="M163.889,115.654c3.914-3.271,8.502-3.696,13.237-2.095c0.49,0.166,0.698-0.607,0.213-0.771
					c-5.028-1.701-9.888-1.15-14.017,2.301C162.927,115.42,163.495,115.983,163.889,115.654L163.889,115.654z"/>
			</g>
		</g>
		<g>
			<g>
				<path fill="#231F20" d="M147.726,120.752c0.423-1.687,0.868-3.361,2.095-4.658c0.354-0.374-0.21-0.941-0.565-0.565
					c-1.328,1.402-1.842,3.18-2.301,5.01C146.829,121.04,147.6,121.252,147.726,120.752L147.726,120.752z"/>
			</g>
		</g>
		<g>
			<g>
				<path fill="#231F20" d="M147.102,116.785c-7.614-4.841-19.824-4.654-27.658-0.441c-0.455,0.244-0.051,0.935,0.403,0.69
					c7.583-4.077,19.49-4.239,26.852,0.441C147.135,117.753,147.536,117.061,147.102,116.785L147.102,116.785z"/>
			</g>
		</g>
		<g>
			<g>
				<path fill="#231F20" d="M150.323,109.858c0.426-0.913,0.494-1.845,0.495-2.839c0-0.516-0.799-0.516-0.8,0
					c-0.001,0.84-0.024,1.661-0.386,2.436C149.416,109.919,150.105,110.326,150.323,109.858L150.323,109.858z"/>
			</g>
		</g>
		<g>
			<g>
				<path fill="#231F20" d="M158.291,107.898c-0.001-0.726-0.059-1.474-0.557-2.042c-0.341-0.389-0.904,0.179-0.566,0.565
					c0.34,0.388,0.322,0.991,0.322,1.477C157.491,108.414,158.291,108.415,158.291,107.898L158.291,107.898z"/>
			</g>
		</g>
		<g>
			<g>
				<path fill="#231F20" d="M124.442,90.754c0-0.439,0-0.879,0-1.318c0-0.516-0.8-0.516-0.8,0c0,0.439,0,0.879,0,1.318
					C123.642,91.271,124.442,91.271,124.442,90.754L124.442,90.754z"/>
			</g>
		</g>
		<g>
			<g>
				<path fill="#231F20" d="M139.867,91.594c0.732,0,1.465,0,2.198,0c0.516,0,0.516-0.8,0-0.8c-0.732,0-1.465,0-2.198,0
					C139.351,90.794,139.351,91.594,139.867,91.594L139.867,91.594z"/>
			</g>
		</g>
		<g>
			<g>
				<path fill="#231F20" d="M100.586,124.76c-0.822-0.874-1.116-1.972-0.776-3.128c0.146-0.496-0.626-0.707-0.771-0.213
					c-0.42,1.43-0.032,2.831,0.982,3.907C100.375,125.702,100.939,125.135,100.586,124.76L100.586,124.76z"/>
			</g>
		</g>
		<g>
			<g>
				<path fill="#231F20" d="M100.398,121.288c0.539,1.052,1.22,2.024,1.758,3.077c0.235,0.459,0.925,0.055,0.69-0.403
					c-0.539-1.053-1.219-2.025-1.758-3.077C100.854,120.425,100.163,120.83,100.398,121.288L100.398,121.288z"/>
			</g>
		</g>
		<g>
			<g>
				<path fill="#231F20" d="M102.941,125.443c1.437-0.092,2.123-1.796,2.158-3.037c0.015-0.516-0.785-0.515-0.8,0
					c-0.021,0.75-0.413,2.176-1.358,2.237C102.429,124.676,102.426,125.476,102.941,125.443L102.941,125.443z"/>
			</g>
		</g>
		<g>
			<g>
				<path fill="#231F20" d="M105.979,123.724c0.234-1.894,0.424-3.806,0.439-5.715c0.004-0.516-0.796-0.516-0.8,0
					c-0.015,1.909-0.205,3.821-0.439,5.715C105.116,124.235,105.917,124.229,105.979,123.724L105.979,123.724z"/>
			</g>
		</g>
		<g>
			<g>
				<path fill="#231F20" d="M105.965,115.478c0.515-1.494,1.243-2.903,1.758-4.396c0.169-0.489-0.604-0.697-0.771-0.213
					c-0.516,1.494-1.243,2.903-1.758,4.396C105.025,115.754,105.798,115.962,105.965,115.478L105.965,115.478z"/>
			</g>
		</g>
		<g>
			<g>
				<path fill="#231F20" d="M108.06,109.5c1.233-1.235,2.338-2.473,3.14-4.038c0.235-0.458-0.455-0.863-0.69-0.403
					c-0.771,1.504-1.829,2.688-3.015,3.875C107.129,109.3,107.695,109.866,108.06,109.5L108.06,109.5z"/>
			</g>
		</g>
		<g>
			<g>
				<path fill="#231F20" d="M111.693,102.184c0-0.293,0-0.586,0-0.879c0-0.516-0.8-0.516-0.8,0c0,0.293,0,0.586,0,0.879
					C110.894,102.7,111.693,102.7,111.693,102.184L111.693,102.184z"/>
			</g>
		</g>
		<g>
			<g>
				<path fill="#231F20" d="M110.36,99.879c-0.462-2.341-0.857-4.694-1.319-7.035c-0.1-0.506-0.871-0.291-0.771,0.213
					c0.462,2.341,0.857,4.694,1.319,7.035C109.688,100.598,110.46,100.383,110.36,99.879L110.36,99.879z"/>
			</g>
		</g>
		<g>
			<g>
				<path fill="#231F20" d="M108.177,89.875c-0.379-7.145,1.289-14.247,3.502-20.994c0.161-0.492-0.611-0.701-0.771-0.213
					c-2.233,6.809-3.914,13.997-3.531,21.207C107.404,90.388,108.204,90.391,108.177,89.875L108.177,89.875z"/>
			</g>
		</g>
		<g>
			<g>
				<path fill="#231F20" d="M113.492,66.098c0.516,0,0.516-0.8,0-0.8S112.976,66.098,113.492,66.098L113.492,66.098z"/>
			</g>
		</g>
		<g>
			<g>
				<path fill="#231F20" d="M116.77,62.087c1.049-0.553,1.889-1.432,2.719-2.261c0.365-0.365-0.2-0.931-0.565-0.565
					c-0.783,0.783-1.567,1.614-2.557,2.136C115.91,61.637,116.314,62.328,116.77,62.087L116.77,62.087z"/>
			</g>
		</g>
		<g>
			<g>
				<path fill="#231F20" d="M122.628,56.668c0.461-0.876,1.179-1.593,2.055-2.055c0.457-0.24,0.053-0.931-0.403-0.69
					c-0.988,0.52-1.823,1.354-2.342,2.342C121.698,56.721,122.389,57.125,122.628,56.668L122.628,56.668z"/>
			</g>
		</g>
		<g>
			<g>
				<path fill="#231F20" d="M128.544,52.456c3.398-0.544,6.612-1.779,9.766-3.118c0.474-0.201,0.065-0.89-0.403-0.69
					c-3.09,1.311-6.248,2.504-9.576,3.037C127.823,51.766,128.04,52.537,128.544,52.456L128.544,52.456z"/>
			</g>
		</g>
		<g>
			<g>
				<path fill="#231F20" d="M142.16,49.23c-1.289,1.671-2.958,2.874-5.036,3.333c-0.503,0.111-0.29,0.882,0.213,0.771
					c2.292-0.507,4.097-1.863,5.514-3.701C143.165,49.226,142.47,48.828,142.16,49.23L142.16,49.23z"/>
			</g>
		</g>
		<g>
			<g>
				<path fill="#231F20" d="M129.703,62.287c0.427-1.59,1.254-2.943,2.158-4.3c0.287-0.431-0.406-0.831-0.69-0.403
					c-0.943,1.415-1.794,2.835-2.239,4.491C128.797,62.573,129.569,62.785,129.703,62.287L129.703,62.287z"/>
			</g>
		</g>
		<g>
			<g>
				<path fill="#231F20" d="M133.659,65.591c-0.695-2.915,0.794-5.32,2.534-7.523c0.316-0.4-0.246-0.97-0.565-0.565
					c-1.937,2.453-3.507,5.085-2.74,8.302C133.007,66.306,133.779,66.093,133.659,65.591L133.659,65.591z"/>
			</g>
		</g>
		<g>
			<g>
				<path fill="#231F20" d="M136.736,61.408c0.923-2.192,2.656-3.81,4.652-5.037c0.439-0.269,0.037-0.961-0.403-0.69
					c-2.192,1.347-4.01,3.118-5.02,5.514C135.764,61.67,136.539,61.876,136.736,61.408L136.736,61.408z"/>
			</g>
		</g>
		<g>
			<g>
				<path fill="#231F20" d="M141.908,53.232c1.085-1.085,2.204-2.225,2.741-3.693c0.177-0.486-0.596-0.693-0.771-0.213
					c-0.485,1.327-1.556,2.362-2.535,3.341C140.977,53.031,141.542,53.597,141.908,53.232L141.908,53.232z"/>
			</g>
		</g>
		<g>
			<g>
				<path fill="#231F20" d="M141.97,62.382c0.467-0.931,0.964-1.804,1.696-2.556c0.36-0.37-0.206-0.936-0.565-0.565
					c-0.779,0.801-1.324,1.726-1.821,2.718C141.049,62.438,141.739,62.844,141.97,62.382L141.97,62.382z"/>
			</g>
		</g>
		<g>
			<g>
				<path fill="#231F20" d="M145.784,58.569c1.845-0.943,3.555-2.236,4.539-4.1c0.241-0.456-0.45-0.86-0.69-0.403
					c-0.925,1.75-2.521,2.927-4.252,3.812C144.921,58.114,145.326,58.804,145.784,58.569L145.784,58.569z"/>
			</g>
		</g>
		<g>
			<g>
				<path fill="#231F20" d="M148.166,62.727c0.403-1.186,0.915-2.331,1.318-3.517c0.167-0.49-0.606-0.698-0.771-0.213
					c-0.404,1.186-0.916,2.331-1.318,3.517C147.228,63.004,148.001,63.212,148.166,62.727L148.166,62.727z"/>
			</g>
		</g>
		<g>
			<g>
				<path fill="#231F20" d="M152.459,57.188c0.396-0.359,0.918-0.516,1.318-0.879c0.383-0.347-0.186-0.911-0.566-0.565
					c-0.396,0.359-0.918,0.516-1.318,0.879C151.51,56.97,152.077,57.534,152.459,57.188L152.459,57.188z"/>
			</g>
		</g>
		<g>
			<g>
				<path fill="#231F20" d="M152.961,63.701c0.95-1.845,2.392-4.118,4.252-5.132c0.453-0.247,0.049-0.938-0.404-0.69
					c-1.973,1.076-3.53,3.463-4.539,5.419C152.034,63.755,152.725,64.16,152.961,63.701L152.961,63.701z"/>
			</g>
		</g>
		<g>
			<g>
				<path fill="#231F20" d="M156.855,63.343c2.261-2.343,3.973-5.28,3.634-8.635c-0.052-0.508-0.853-0.513-0.801,0
					c0.319,3.155-1.275,5.867-3.399,8.069C155.932,63.148,156.496,63.715,156.855,63.343L156.855,63.343z"/>
			</g>
		</g>
		<g>
			<g>
				<path fill="#231F20" d="M149.938,52.51c0.001-0.715-0.021-1.463,0.682-1.853c0.452-0.25,0.048-0.941-0.403-0.69
					c-0.974,0.54-1.077,1.528-1.078,2.543C149.138,53.026,149.938,53.025,149.938,52.51L149.938,52.51z"/>
			</g>
		</g>
		<g>
			<g>
				<path fill="#231F20" d="M145.582,51.152c1.257-0.029,2.587-0.396,3.718-0.935c0.466-0.222,0.06-0.911-0.403-0.69
					c-0.997,0.475-2.209,0.799-3.315,0.825C145.067,50.364,145.066,51.164,145.582,51.152L145.582,51.152z"/>
			</g>
		</g>
		<g>
			<g>
				<path fill="#231F20" d="M161.124,54.111c1.368,1.345,2.944,2.435,4.477,3.58c0.414,0.31,0.812-0.386,0.404-0.69
					c-1.479-1.105-2.995-2.157-4.314-3.455C161.322,53.184,160.756,53.75,161.124,54.111L161.124,54.111z"/>
			</g>
		</g>
		<g>
			<g>
				<path fill="#231F20" d="M168.48,60.422c0.028,1.079,0.559,2.025,1.517,2.543c0.454,0.246,0.858-0.445,0.404-0.69
					c-0.713-0.385-1.1-1.046-1.12-1.853C169.268,59.908,168.467,59.906,168.48,60.422L168.48,60.422z"/>
			</g>
		</g>
		<g>
			<g>
				<path fill="#231F20" d="M172.113,61.584c2.691,2.177,4.232,6.017,5.633,9.079c1.595,3.489,3.134,7.199,3.937,10.966
					c0.107,0.504,0.879,0.291,0.771-0.213c-0.777-3.645-2.268-7.173-3.757-10.574c-1.449-3.307-3.125-7.482-6.018-9.823
					C172.282,60.698,171.713,61.26,172.113,61.584L172.113,61.584z"/>
			</g>
		</g>
		<g>
			<g>
				<path fill="#231F20" d="M181.723,81.725c1.814,3.346,2.526,7.005,2.582,10.788c0.008,0.516,0.808,0.516,0.801,0
					c-0.059-3.915-0.814-7.729-2.691-11.191C182.168,80.868,181.478,81.271,181.723,81.725L181.723,81.725z"/>
			</g>
		</g>
		<g>
			<g>
				<path fill="#231F20" d="M185.53,101.851c0.405-1.186,0.915-2.331,1.319-3.517c0.167-0.49-0.606-0.698-0.771-0.213
					c-0.404,1.186-0.914,2.332-1.319,3.517C184.592,102.128,185.364,102.336,185.53,101.851L185.53,101.851z"/>
			</g>
		</g>
		<g>
			<g>
				<path fill="#231F20" d="M186.518,100.759c-0.245,1.503-0.188,2.857,0.343,4.295c0.229,0.622,0.615,1.153,1.009,1.677
					c0.972,1.29,0.151,2.486-0.432,3.604c-0.238,0.457,0.452,0.861,0.691,0.403c0.487-0.936,1.255-2.144,1.031-3.261
					c-0.185-0.928-0.81-1.375-1.307-2.188c-0.784-1.285-0.798-2.886-0.564-4.318C187.371,100.467,186.601,100.25,186.518,100.759
					L186.518,100.759z"/>
			</g>
		</g>
		<g>
			<g>
				<path fill="#231F20" d="M187.397,112.84c0.72,4.143-1.863,8.368,1.86,11.605c0.388,0.337,0.956-0.227,0.566-0.565
					c-3.484-3.029-0.98-7.366-1.655-11.253C188.081,112.12,187.31,112.336,187.397,112.84L187.397,112.84z"/>
			</g>
		</g>
		<g>
			<g>
				<path fill="#231F20" d="M190.82,124.163c0-1.742,0.03-3.462,0.427-5.168c0.116-0.502-0.654-0.715-0.771-0.213
					c-0.412,1.773-0.455,3.567-0.456,5.381C190.02,124.679,190.819,124.679,190.82,124.163L190.82,124.163z"/>
			</g>
		</g>
		<g>
			<g>
				<path fill="#231F20" d="M192.525,115.573c0.359-0.72,0.697-1.524,1.256-2.117c0.353-0.375-0.212-0.942-0.566-0.565
					c-0.61,0.648-0.987,1.491-1.381,2.279C191.604,115.63,192.295,116.035,192.525,115.573L192.525,115.573z"/>
			</g>
		</g>
		<g>
			<g>
				<path fill="#231F20" d="M193.443,111.962c0.477-1.941,0.864-3.943,0.44-5.93c-0.107-0.504-0.879-0.291-0.771,0.213
					c0.393,1.84,0,3.709-0.44,5.504C192.549,112.25,193.32,112.463,193.443,111.962L193.443,111.962z"/>
			</g>
		</g>
		<g>
			<g>
				<path fill="#231F20" d="M193.898,103.942c0.035-0.604,0.401-1.147,0.438-1.759c0.03-0.516-0.77-0.513-0.801,0
					c-0.036,0.604-0.401,1.146-0.438,1.759C193.067,104.458,193.867,104.455,193.898,103.942L193.898,103.942z"/>
			</g>
		</g>
		<g>
			<g>
				<path fill="#231F20" d="M193.443,100.759c-0.352-1.604-0.035-3.146,0.839-4.527c0.276-0.437-0.416-0.838-0.691-0.403
					c-0.988,1.563-1.315,3.334-0.919,5.144C192.782,101.476,193.554,101.262,193.443,100.759L193.443,100.759z"/>
			</g>
		</g>
		<g>
			<g>
				<path fill="#231F20" d="M193.019,93.831c0-1.172,0-2.344,0-3.516c0-0.516-0.801-0.516-0.801,0c0,1.172,0,2.344,0,3.516
					C192.218,94.347,193.019,94.347,193.019,93.831L193.019,93.831z"/>
			</g>
		</g>
		<g>
			<g>
				<path fill="#231F20" d="M191.3,89.836c0.516,0,0.516-0.8,0-0.8S190.784,89.836,191.3,89.836L191.3,89.836z"/>
			</g>
		</g>
		<g>
			<g>
				<path fill="#231F20" d="M189.941,87.238c0-0.84,0.024-1.661,0.385-2.437c0.216-0.464-0.474-0.871-0.691-0.403
					c-0.425,0.914-0.493,1.845-0.494,2.84C189.141,87.754,189.94,87.754,189.941,87.238L189.941,87.238z"/>
			</g>
		</g>
		<g>
			<g>
				<path fill="#231F20" d="M189.887,82.64c-0.719-1.113-1.162-1.904-2.438-2.381c0.093,0.164,0.187,0.328,0.279,0.492
					c0.118-0.456,0.322-0.865,0.44-1.32c0.05-0.191-0.062-0.46-0.279-0.492c-0.376-0.055-0.716-0.166-1.077-0.284
					c-0.557-0.184-0.389-0.271-0.398-0.9c-0.016-1.002-0.166-1.969-0.442-2.932c-0.143-0.495-0.914-0.284-0.771,0.213
					c0.365,1.271,0.421,2.537,0.424,3.85c0.001,0.162,0.121,0.36,0.294,0.386c0.604,0.089,1.155,0.35,1.759,0.439
					c-0.093-0.164-0.187-0.328-0.279-0.492c-0.118,0.457-0.322,0.864-0.44,1.32c-0.059,0.226,0.073,0.415,0.279,0.492
					c1.037,0.388,1.393,1.135,1.959,2.013C189.475,83.476,190.167,83.075,189.887,82.64L189.887,82.64z"/>
			</g>
		</g>
		<g>
			<g>
				<path fill="#231F20" d="M183.826,70.573c-0.049-0.005-0.039-0.397-0.039-0.479c-0.002-0.516-0.802-0.516-0.801,0
					c0.003,0.633,0.12,1.201,0.84,1.278C184.339,71.428,184.334,70.627,183.826,70.573L183.826,70.573z"/>
			</g>
		</g>
		<g>
			<g>
				<path fill="#231F20" d="M181.628,68.296c0.516,0,0.516-0.8,0-0.8S181.112,68.296,181.628,68.296L181.628,68.296z"/>
			</g>
		</g>
		<g>
			<g>
				<path fill="#231F20" d="M181.911,67.613c-0.732-0.753-1.229-1.625-1.696-2.557c-0.231-0.461-0.922-0.056-0.691,0.403
					c0.498,0.993,1.043,1.917,1.821,2.719C181.705,68.549,182.271,67.983,181.911,67.613L181.911,67.613z"/>
			</g>
		</g>
		<g>
			<g>
				<path fill="#231F20" d="M179.378,63.832c-0.517-1.521-1.093-3.047-1.8-4.49c-0.061-0.124-0.213-0.198-0.346-0.198
					c-0.732,0-1.466,0-2.198,0c-0.516,0-0.516,0.8,0,0.8c0.732,0,1.466,0,2.198,0c-0.115-0.066-0.23-0.132-0.346-0.198
					c0.678,1.382,1.225,2.844,1.72,4.3C178.771,64.53,179.544,64.322,179.378,63.832L179.378,63.832z"/>
			</g>
		</g>
		<g>
			<g>
				<path fill="#231F20" d="M173.715,58.624c0.516,0,0.516-0.8,0-0.8S173.199,58.624,173.715,58.624L173.715,58.624z"/>
			</g>
		</g>
		<g>
			<g>
				<path fill="#231F20" d="M172.782,56.799c-0.47-1.789-1.566-2.887-3.355-3.356c-0.5-0.131-0.711,0.641-0.213,0.771
					c1.526,0.4,2.396,1.272,2.797,2.798C172.142,57.511,172.913,57.299,172.782,56.799L172.782,56.799z"/>
			</g>
		</g>
		<g>
			<g>
				<path fill="#231F20" d="M168.441,52.11c-0.44,0-0.88,0-1.32,0c-0.516,0-0.516,0.8,0,0.8c0.44,0,0.88,0,1.32,0
					C168.957,52.91,168.957,52.11,168.441,52.11L168.441,52.11z"/>
			</g>
		</g>
		<g>
			<g>
				<path fill="#231F20" d="M165.709,50.99c-0.518-0.959-1.463-1.489-2.542-1.518c-0.517-0.014-0.515,0.786,0,0.8
					c0.807,0.021,1.467,0.409,1.851,1.121C165.263,51.848,165.953,51.443,165.709,50.99L165.709,50.99z"/>
			</g>
		</g>
		<g>
			<g>
				<path fill="#231F20" d="M162.726,49.032c-0.586,0-1.172,0-1.758,0c-0.516,0-0.516,0.8,0,0.8c0.586,0,1.172,0,1.758,0
					C163.241,49.832,163.241,49.032,162.726,49.032L162.726,49.032z"/>
			</g>
		</g>
		<g>
			<g>
				<path fill="#231F20" d="M158.047,47.832c-0.16,0.14-0.191-0.484-0.195-0.597c-0.018-0.515-0.817-0.516-0.801,0
					c0.016,0.456,0.092,1.032,0.507,1.311c0.367,0.247,0.745,0.122,1.056-0.148C159.003,48.058,158.435,47.495,158.047,47.832
					L158.047,47.832z"/>
			</g>
		</g>
		<g>
			<g>
				<path fill="#231F20" d="M158.613,47.832c-0.951-0.927-2.026-1.415-3.36-1.437c-0.517-0.009-0.516,0.791,0,0.8
					c1.126,0.019,1.993,0.422,2.794,1.203C158.417,48.757,158.982,48.192,158.613,47.832L158.613,47.832z"/>
			</g>
		</g>
		<g>
			<g>
				<path fill="#231F20" d="M153.935,45.516c-0.732,0-1.466,0-2.198,0c-0.516,0-0.516,0.8,0,0.8c0.732,0,1.466,0,2.198,0
					C154.45,46.316,154.45,45.516,153.935,45.516L153.935,45.516z"/>
			</g>
		</g>
		<g>
			<g>
				<path fill="#231F20" d="M148.816,44.753c-0.226,0.22-0.455,0.454-0.766,0.541c-0.305,0.084-0.685-0.364-0.867-0.541
					c-0.37-0.36-0.936,0.206-0.565,0.565c0.35,0.34,0.803,0.775,1.33,0.775c0.591,0,1.031-0.384,1.434-0.775
					C149.752,44.959,149.186,44.394,148.816,44.753L148.816,44.753z"/>
			</g>
		</g>
		<g>
			<g>
				<path fill="#231F20" d="M146.663,44.252c-1.801-0.851-3.692-1.16-5.194-2.575c-0.251-0.237-0.682-0.073-0.683,0.283
					c-0.003,0.732-0.074,1.323-0.385,1.997c-0.215,0.465,0.475,0.872,0.69,0.403c0.372-0.803,0.492-1.519,0.495-2.4
					c-0.228,0.094-0.455,0.188-0.683,0.283c1.574,1.484,3.465,1.808,5.356,2.7C146.723,45.162,147.129,44.472,146.663,44.252
					L146.663,44.252z"/>
			</g>
		</g>
		<g>
			<g>
				<path fill="#231F20" d="M137.669,44.118c0.516,0,0.516-0.8,0-0.8S137.153,44.118,137.669,44.118L137.669,44.118z"/>
			</g>
		</g>
		<g>
			<g>
				<path fill="#231F20" d="M137.669,44.118c0.516,0,0.516-0.8,0-0.8S137.153,44.118,137.669,44.118L137.669,44.118z"/>
			</g>
		</g>
		<g>
			<g>
				<path fill="#231F20" d="M132.991,45.194c-0.273,0.272-0.624,0.722-1.036,0.762c-0.509,0.049-0.514,0.85,0,0.8
					c0.678-0.065,1.14-0.536,1.602-0.996C133.922,45.395,133.356,44.83,132.991,45.194L132.991,45.194z"/>
			</g>
		</g>
		<g>
			<g>
				<path fill="#231F20" d="M128.331,44.65c-1.257,0.419-2.513,0.834-3.85,0.866c-0.515,0.012-0.516,0.812,0,0.8
					c1.409-0.033,2.736-0.452,4.062-0.894C129.031,45.26,128.822,44.487,128.331,44.65L128.331,44.65z"/>
			</g>
		</g>
		<g>
			<g>
				<path fill="#231F20" d="M121.561,48.271c-0.396,0.359-0.918,0.516-1.319,0.878c-0.384,0.347,0.184,0.911,0.565,0.565
					c0.397-0.358,0.919-0.515,1.319-0.878C122.51,48.489,121.942,47.925,121.561,48.271L121.561,48.271z"/>
			</g>
		</g>
		<g>
			<g>
				<path fill="#231F20" d="M118.367,51.191c0,0.146,0,0.292,0,0.439c0,0.516,0.8,0.516,0.8,0c0-0.146,0-0.292,0-0.439
					C119.167,50.675,118.367,50.675,118.367,51.191L118.367,51.191z"/>
			</g>
		</g>
		<g>
			<g>
				<path fill="#231F20" d="M118.434,51.245c-1.219-0.238-2.444,0.142-3.565,0.605c-0.904,0.373-2.069,0.903-2.602,1.777
					c-0.27,0.441,0.423,0.843,0.69,0.403c0.393-0.645,1.304-1.022,1.956-1.333c0.975-0.464,2.219-0.894,3.307-0.681
					C118.725,52.114,118.939,51.343,118.434,51.245L118.434,51.245z"/>
			</g>
		</g>
		<g>
			<g>
				<path fill="#231F20" d="M108.311,56.265c-0.565,1.169-0.905,2.416-0.934,3.718c-0.011,0.516,0.789,0.515,0.8,0
					c0.025-1.157,0.322-2.274,0.824-3.314C109.225,56.206,108.535,55.8,108.311,56.265L108.311,56.265z"/>
			</g>
		</g>
		<g>
			<g>
				<path fill="#231F20" d="M106.992,59.781c-0.384,0.748-0.867,1.23-1.615,1.616c-0.459,0.236-0.054,0.926,0.403,0.69
					c0.86-0.442,1.46-1.043,1.902-1.903C107.918,59.726,107.228,59.321,106.992,59.781L106.992,59.781z"/>
			</g>
		</g>
		<g>
			<g>
				<path fill="#231F20" d="M104.314,62.074c-0.613,2.446-3.417,3.581-3.957,6.155c-0.105,0.503,0.666,0.718,0.771,0.213
					c0.534-2.546,3.334-3.673,3.957-6.155C105.211,61.787,104.439,61.574,104.314,62.074L104.314,62.074z"/>
			</g>
		</g>
		<g>
			<g>
				<path fill="#231F20" d="M97.823,69.371c-0.451,0.513-0.441,1.261-0.879,1.758c-0.339,0.385,0.224,0.954,0.565,0.565
					c0.452-0.513,0.442-1.261,0.879-1.758C98.728,69.551,98.164,68.983,97.823,69.371L97.823,69.371z"/>
			</g>
		</g>
		<g>
			<g>
				<path fill="#231F20" d="M97.823,69.812c-1.16,1.204-1.92,2.66-1.421,4.345c0.146,0.493,0.918,0.283,0.771-0.213
					c-0.417-1.409,0.252-2.567,1.215-3.566C98.746,70.006,98.181,69.439,97.823,69.812L97.823,69.812z"/>
			</g>
		</g>
		<g>
			<g>
				<path fill="#231F20" d="M96.944,74.206c-0.46,0.462-0.931,0.924-0.996,1.603c-0.05,0.514,0.751,0.509,0.8,0
					c0.04-0.413,0.49-0.763,0.762-1.037C97.874,74.406,97.308,73.84,96.944,74.206L96.944,74.206z"/>
			</g>
		</g>
		<g>
			<g>
				<path fill="#231F20" d="M94.387,78.101c-0.386,0.203-0.855,0.523-0.855,1.016c0,0.559,0.408,0.992,0.774,1.37
					c0.36,0.371,0.925-0.196,0.565-0.565c-0.208-0.215-0.449-0.439-0.54-0.733c-0.054-0.174,0.354-0.342,0.458-0.397
					C95.247,78.551,94.843,77.86,94.387,78.101L94.387,78.101z"/>
			</g>
		</g>
		<g>
			<g>
				<path fill="#231F20" d="M94.189,82.402c0,0.293,0,0.585,0,0.878c0,0.516,0.8,0.516,0.8,0c0-0.293,0-0.585,0-0.878
					C94.989,81.886,94.189,81.886,94.189,82.402L94.189,82.402z"/>
			</g>
		</g>
		<g>
			<g>
				<path fill="#231F20" d="M91.565,86.465c0.334,1.065,0.476,2.241-0.336,3.127c-0.348,0.379,0.216,0.947,0.565,0.565
					c1.013-1.106,0.969-2.547,0.542-3.906C92.183,85.762,91.411,85.971,91.565,86.465L91.565,86.465z"/>
			</g>
		</g>
		<g>
			<g>
				<path fill="#231F20" d="M90.79,89.719c0.438,0.497,0.428,1.246,0.879,1.758c0.341,0.388,0.905-0.18,0.565-0.565
					c-0.437-0.498-0.427-1.246-0.879-1.758C91.014,88.765,90.45,89.333,90.79,89.719L90.79,89.719z"/>
			</g>
		</g>
		<g>
			<g>
				<path fill="#231F20" d="M89.753,93.792c0.516,0,0.516-0.8,0-0.8S89.237,93.792,89.753,93.792L89.753,93.792z"/>
			</g>
		</g>
		<g>
			<g>
				<path fill="#231F20" d="M89.353,93.392c-0.087,1.366-0.811,2.566-0.879,3.956c-0.011,0.221,0.19,0.396,0.4,0.4
					c0.431-0.053,0.803,0.076,1.118,0.386c-0.048-0.182-0.096-0.365-0.144-0.547c-0.529,1.066-0.878,2.08-0.935,3.278
					c-0.024,0.516,0.775,0.514,0.8,0c0.051-1.083,0.348-1.912,0.825-2.875c0.107-0.215,0.039-0.407-0.144-0.547
					c-0.481-0.371-0.918-0.482-1.521-0.495c0.133,0.133,0.267,0.267,0.4,0.4c0.068-1.39,0.791-2.58,0.879-3.956
					C90.186,92.877,89.386,92.88,89.353,93.392L89.353,93.392z"/>
			</g>
		</g>
		<g>
			<g>
				<path fill="#231F20" d="M89.313,102.583c0.44,0,0.879,0,1.319,0c0.516,0,0.516-0.8,0-0.8c-0.44,0-0.879,0-1.319,0
					C88.797,101.784,88.797,102.583,89.313,102.583L89.313,102.583z"/>
			</g>
		</g>
		<g>
			<g>
				<path fill="#231F20" d="M90.687,103.169c0.368,2.158,0.017,4.319-0.014,6.488c-0.007,0.516,0.792,0.516,0.8,0
					c0.032-2.249,0.367-4.464-0.014-6.701C91.372,102.448,90.601,102.665,90.687,103.169L90.687,103.169z"/>
			</g>
		</g>
		<g>
			<g>
				<path fill="#231F20" d="M90.672,110.975c0.065,0.678,0.535,1.141,0.996,1.603c0.365,0.366,0.93-0.2,0.565-0.565
					c-0.272-0.273-0.722-0.624-0.762-1.037C91.423,110.466,90.623,110.461,90.672,110.975L90.672,110.975z"/>
			</g>
		</g>
		<g>
			<g>
				<path fill="#231F20" d="M92.391,114.452c0.516,0,0.516-0.8,0-0.8S91.875,114.452,92.391,114.452L92.391,114.452z"/>
			</g>
		</g>
		<g>
			<g>
				<path fill="#231F20" d="M149.978,177.315c0.516,0,0.516-0.801,0-0.801S149.461,177.315,149.978,177.315L149.978,177.315z"/>
			</g>
		</g>
		<g>
			<g>
				<path fill="#231F20" d="M147.435,174.479c0.487,0.996,0.871,2.21,1.901,2.781c0.451,0.25,0.854-0.441,0.403-0.691
					c-0.876-0.485-1.2-1.647-1.614-2.494C147.899,173.612,147.209,174.018,147.435,174.479L147.435,174.479z"/>
			</g>
		</g>
		<g>
			<g>
				<path fill="#231F20" d="M150.073,178.436c0.539,0.974,1.528,1.077,2.542,1.078c0.516,0,0.516-0.8,0-0.801
					c-0.715,0-1.463,0.021-1.852-0.682C150.513,177.58,149.822,177.983,150.073,178.436L150.073,178.436z"/>
			</g>
		</g>
		<g>
			<g>
				<path fill="#231F20" d="M154.041,179.499c3.468-1.112,7.023,0.57,10.551-0.44c0.495-0.142,0.284-0.914-0.213-0.771
					c-3.527,1.011-7.06-0.679-10.551,0.44C153.339,178.885,153.548,179.657,154.041,179.499L154.041,179.499z"/>
			</g>
		</g>
		<g>
			<g>
				<path fill="#231F20" d="M150.804,186.92c-0.369-1.193,0.157-1.955,1.135-2.626c0.422-0.29,0.022-0.984-0.404-0.691
					c-1.269,0.872-1.982,1.978-1.502,3.53C150.184,187.624,150.957,187.414,150.804,186.92L150.804,186.92z"/>
			</g>
		</g>
		<g>
			<g>
				<path fill="#231F20" d="M152.615,189.623c0.516,0,0.516-0.801,0-0.801S152.1,189.623,152.615,189.623L152.615,189.623z"/>
			</g>
		</g>
		<g>
			<g>
				<path fill="#231F20" d="M155.455,188.25c2.14-1.231,4.38-1.678,6.83-1.704c0.516-0.006,0.516-0.806,0-0.801
					c-2.584,0.028-4.979,0.517-7.234,1.813C154.604,187.816,155.007,188.508,155.455,188.25L155.455,188.25z"/>
			</g>
		</g>
		<g>
			<g>
				<path fill="#231F20" d="M152.02,189.946c3.039-2.692,7.923-1.62,11.586-1.201c0.512,0.059,0.507-0.742,0-0.801
					c-3.943-0.45-8.883-1.459-12.152,1.436C151.066,189.723,151.635,190.286,152.02,189.946L152.02,189.946z"/>
			</g>
		</g>
		<g>
			<g>
				<path fill="#231F20" d="M176.26,183.307c-0.369-0.829,0.268-1.588,0.816-2.152c0.359-0.37-0.206-0.937-0.566-0.566
					c-0.847,0.873-1.478,1.916-0.941,3.123C175.778,184.182,176.467,183.773,176.26,183.307L176.26,183.307z"/>
			</g>
		</g>
		<g>
			<g>
				<path fill="#231F20" d="M179.713,179.835c0.461-0.462,0.931-0.924,0.997-1.602c0.05-0.514-0.751-0.509-0.801,0
					c-0.04,0.412-0.49,0.763-0.763,1.035C178.782,179.634,179.348,180.2,179.713,179.835L179.713,179.835z"/>
			</g>
		</g>
		<g>
			<g>
				<path fill="#231F20" d="M181.032,177.638c2.125-2.581,4.028-5.334,6.154-7.914c0.325-0.396-0.237-0.965-0.566-0.566
					c-2.125,2.581-4.028,5.334-6.154,7.914C180.141,177.467,180.703,178.036,181.032,177.638L181.032,177.638z"/>
			</g>
		</g>
		<g>
			<g>
				<path fill="#231F20" d="M130.541,177.152c-0.495-0.939-1.263-1.698-1.758-2.639c-0.24-0.456-0.931-0.052-0.69,0.404
					c0.495,0.939,1.264,1.698,1.758,2.639C130.091,178.013,130.781,177.608,130.541,177.152L130.541,177.152z"/>
			</g>
		</g>
		<g>
			<g>
				<path fill="#231F20" d="M115.636,160.983c-0.439-1.318-0.879-2.638-1.319-3.956c-0.163-0.486-0.936-0.278-0.771,0.213
					c0.44,1.318,0.88,2.637,1.319,3.956C115.026,161.683,115.799,161.475,115.636,160.983L115.636,160.983z"/>
			</g>
		</g>
		<g>
			<g>
				<path fill="#231F20" d="M111.733,143.027c1.162-0.062,1.691-1.1,1.719-2.159c0.014-0.516-0.786-0.515-0.8,0
					c-0.016,0.585-0.225,1.322-0.919,1.359C111.22,142.254,111.217,143.054,111.733,143.027L111.733,143.027z"/>
			</g>
		</g>
		<g>
			<g>
				<path fill="#231F20" d="M117.982,239.539c3.193,7.211,11.336,8.94,18.513,8.892c7.592-0.052,15.655-1.878,22.477-5.23
					c0.463-0.228,0.058-0.918-0.404-0.691c-6.416,3.153-13.82,4.765-20.931,5.092c-7.189,0.33-15.736-1.177-18.964-8.466
					C118.464,238.664,117.775,239.071,117.982,239.539L117.982,239.539z"/>
			</g>
		</g>
		<g>
			<g>
				<path fill="#231F20" d="M168.987,232.25c8.128-1.161,15.526-7.829,19.58-14.69c0.263-0.445-0.429-0.848-0.691-0.404
					c-3.96,6.704-11.172,13.19-19.102,14.323C168.266,231.551,168.482,232.322,168.987,232.25L168.987,232.25z"/>
			</g>
		</g>
		<g>
			<g>
				<path fill="#231F20" d="M101.236,124.709c1.146,6.401-0.345,12.802-0.014,19.236c0.026,0.513,0.826,0.516,0.8,0
					c-0.334-6.509,1.146-12.971-0.014-19.449C101.917,123.989,101.146,124.205,101.236,124.709L101.236,124.709z"/>
			</g>
		</g>
		<g>
			<g>
				<path fill="#231F20" d="M189.58,141.746c0,3.371,0,6.741,0,10.111c0,0.516,0.801,0.516,0.801,0c0-3.371,0-6.741,0-10.111
					C190.381,141.23,189.58,141.23,189.58,141.746L189.58,141.746z"/>
			</g>
		</g>
		<g>
			<g>
				<path fill="#231F20" d="M160.857,140.005c0.516,0,0.516-0.8,0-0.8S160.342,140.005,160.857,140.005L160.857,140.005z"/>
			</g>
		</g>
		<g>
			<g>
				<path fill="#231F20" d="M130.102,120.849c0.793-1.209,1.762-2.016,3.161-2.42c1.839-0.532,2.625,0.877,2.341,2.508
					c-0.147,0.85-0.805,1.44-1.658,1.458c-1.242,0.025-2.065-1.456-2.526-2.388c-0.048,0.182-0.096,0.365-0.144,0.547
					c0.925-0.521,1.87-0.896,2.904-1.137c0.485-0.113,3.496-0.453,3.568,0.364c0.219,2.468-2.433,3.583-4.274,2.281
					c-0.422-0.299-0.821,0.395-0.403,0.69c2.716,1.922,5.712-0.321,5.437-3.422c-0.017-0.19-0.112-0.322-0.293-0.386
					c-2.517-0.889-5.062-0.365-7.342,0.919c-0.2,0.112-0.239,0.354-0.144,0.547c0.692,1.401,1.763,2.815,3.475,2.779
					c1.274-0.026,2.031-1.239,2.225-2.355c0.147-0.847-0.083-1.71-0.375-2.497c-0.31-0.834-0.688-0.775-1.523-0.835
					c-2.167-0.155-3.994,1.225-5.12,2.944C129.127,120.878,129.821,121.279,130.102,120.849L130.102,120.849z"/>
			</g>
		</g>
		<g>
			<g>
				<path fill="#231F20" d="M169.267,120.314c0.582-1.547,1.906-1.926,3.403-1.532c0.474,0.125,0.917,0.344,1.323,0.613
					c0.429,0.284,0.073,0.258,0.4,0.028c-0.352,0.247-0.646,0.552-1.022,0.775c-0.726,0.434-1.618,0.484-2.373,0.114
					c-0.51-0.25-1.868-2.103-1.174-2.623c1.983-1.484,4.201-0.629,5.305,1.401c0.247,0.454,0.938,0.05,0.691-0.403
					c-0.718-1.319-1.768-2.304-3.29-2.538c-1.005-0.154-2.992,0.258-3.556,1.219c-0.531,0.907,0.49,2.672,1.128,3.284
					c0.815,0.782,2.026,0.832,3.047,0.515c0.554-0.171,2.083-0.889,1.93-1.655c-0.126-0.634-0.979-1.019-1.496-1.249
					c-2.079-0.925-4.253-0.38-5.088,1.837C168.313,120.585,169.087,120.792,169.267,120.314L169.267,120.314z"/>
			</g>
		</g>
		<g>
			<g>
				<path fill="#231F20" d="M126.017,122.734c-0.418-0.131-0.598-0.484-0.42-0.896c0.202-0.468-0.487-0.876-0.69-0.403
					c-0.383,0.889-0.053,1.772,0.898,2.071C126.297,123.661,126.507,122.889,126.017,122.734L126.017,122.734z"/>
			</g>
		</g>
		<g>
			<g>
				<path fill="#231F20" d="M141.299,121.363c0.285,0.12,0.213,0.354,0.091,0.567c-0.258,0.447,0.433,0.85,0.69,0.403
					c0.414-0.716,0.193-1.423-0.568-1.742C141.037,120.392,140.831,121.167,141.299,121.363L141.299,121.363z"/>
			</g>
		</g>
		<g>
			<g>
				<path fill="#231F20" d="M163.128,120.663c0.891,0.534,1.78,1.011,2.841,1.044c0.517,0.016,0.515-0.784,0-0.8
					c-0.912-0.028-1.675-0.478-2.437-0.935C163.088,119.706,162.687,120.398,163.128,120.663L163.128,120.663z"/>
			</g>
		</g>
		<g>
			<g>
				<path fill="#231F20" d="M179.522,122.806c0.379-0.199,0.753-0.432,1.07-0.722c0.382-0.349-0.186-0.913-0.566-0.565
					c-0.266,0.243-0.59,0.43-0.908,0.597C178.661,122.355,179.066,123.046,179.522,122.806L179.522,122.806z"/>
			</g>
		</g>
		<g>
			<g>
				<path fill="#231F20" d="M164.923,119.105c0.112,0.68-0.203,1.18-0.721,1.589c-0.404,0.32,0.166,0.882,0.566,0.565
					c0.761-0.602,1.084-1.411,0.926-2.367C165.61,118.385,164.84,118.601,164.923,119.105L164.923,119.105z"/>
			</g>
		</g>
		<g>
			<g>
				<path fill="#231F20" d="M171.856,120.035c-0.532-0.477-0.871-1.104-0.006-1.386c0.706-0.229,1.556,0.057,1.81,0.787
					c0.062-0.151,0.123-0.301,0.184-0.452c-0.527,0.339-1.108,0.358-1.7,0.187c-0.276-0.081-1.082-0.445-0.613-0.753
					c0.433-0.285,2.167-0.681,1.971,0.328c-0.164,0.84-1.086,1.279-1.865,1.24c-0.554-0.028-1.521-0.436-1.592-1.059
					c-0.076-0.662,1.011-0.968,1.482-1.026c0.759-0.094,1.57,0.179,2.11,0.72c0.435,0.435,0.056,0.922-0.401,1.109
					c-0.776,0.317-3.062-0.414-2.157-1.463c0.643-0.745,1.898-0.931,2.608-0.235c0.471,0.461,0.324,0.785-0.253,0.997
					c-0.631,0.232-1.562,0.336-2.19,0.039c-0.204-0.097-0.184-0.118-0.006-0.32c0.354-0.403,0.861-0.737,1.411-0.589
					c0.294,0.079,0.582,0.365,0.605,0.677c0.037,0.491-0.723,0.498-1.038,0.493c-0.337-0.005-1.718-0.211-1.133-0.764
					c0.582-0.549,1.438-0.064,1.793,0.471c0.021-0.161,0.042-0.323,0.062-0.484c-0.297,0.236-1.36,0.94-1.458,0.128
					c-0.103-0.843,0.805-0.328,1.128-0.058c0.027-0.209,0.055-0.418,0.081-0.628c-0.147,0.075-0.294,0.152-0.439,0.231
					c-0.053,0.028-0.275,0.03-0.167,0.086c0.048,0.183,0.096,0.365,0.144,0.547c0.015-0.024,0.345-0.132,0.192-0.149
					c-0.115-0.201-0.23-0.401-0.346-0.602c-0.008,0.01-0.015,0.02-0.022,0.03c-0.161,0.214,0.016,0.519,0.239,0.587
					c0.017,0.017,0.034,0.033,0.051,0.05c0.034-0.13,0.068-0.26,0.103-0.389c-0.273,0.275-0.549,0.55-0.823,0.825
					c0.224,0.129,0.446,0.259,0.669,0.389c0.091-0.394,0.103-0.524,0.391-0.813c-0.224-0.129-0.446-0.259-0.669-0.389
					c-0.036,0.211-0.06,0.414-0.044,0.627c-0.019-0.254,0.379-0.305,0.07-0.229c-0.19,0.047-0.381,0.095-0.57,0.147
					c0.103,0.244,0.206,0.487,0.309,0.731c0.329-0.165,0.659-0.33,0.989-0.495c-0.201-0.115-0.401-0.23-0.603-0.345
					c0.003,0.148-0.02,0.292-0.065,0.431c-0.091,0.163-0.042,0.153,0.147-0.032c0.164,0.164,0.328,0.328,0.492,0.492
					c0.002-0.01,0.004-0.02,0.006-0.03c0.205-0.467-0.483-0.875-0.691-0.403c-0.031,0.072-0.07,0.143-0.086,0.221
					c-0.059,0.301,0.182,0.566,0.492,0.492c0.442-0.105,0.486-0.822,0.506-1.171c0.017-0.322-0.348-0.473-0.603-0.345
					c-0.329,0.165-0.659,0.33-0.989,0.495c-0.412,0.206-0.121,0.85,0.309,0.731c0.276-0.077,0.731-0.101,0.95-0.319
					c0.207-0.207,0.108-0.525,0.152-0.784c0.063-0.375-0.365-0.694-0.669-0.389c-0.385,0.388-0.475,0.644-0.596,1.166
					c-0.088,0.383,0.377,0.682,0.669,0.389c0.273-0.275,0.549-0.549,0.823-0.825c0.098-0.099,0.145-0.253,0.103-0.389
					c-0.104-0.336-0.273-0.505-0.609-0.608c0.079,0.196,0.159,0.392,0.239,0.587c0.007-0.01,0.015-0.02,0.021-0.029
					c0.204-0.271-0.083-0.572-0.345-0.602c-0.281-0.032-0.748,0.318-0.883,0.545c-0.106,0.181-0.05,0.447,0.144,0.547
					c0.477,0.247,1.005-0.108,1.414-0.318c0.217-0.111,0.273-0.467,0.081-0.628c-0.479-0.4-1.108-0.827-1.762-0.611
					c-0.496,0.164-0.737,0.678-0.737,1.171c0.001,0.506,0.316,1.023,0.81,1.182c0.743,0.239,1.464-0.24,2.02-0.682
					c0.133-0.106,0.152-0.348,0.062-0.484c-0.579-0.872-1.624-1.393-2.636-0.904c-0.746,0.36-1.122,1.229-0.438,1.856
					c1.097,1.006,4.423,0.604,3.37-1.408c-0.333-0.637-1.128-0.963-1.816-0.83c-0.679,0.132-1.566,0.723-1.729,1.443
					c-0.321,1.428,2.187,1.277,2.945,1.116c0.574-0.122,1.238-0.406,1.469-0.99c0.275-0.694-0.317-1.352-0.817-1.75
					c-1.243-0.99-4.591,0.221-3.731,2.085c0.479,1.04,1.838,1.489,2.897,1.346c0.916-0.124,1.694-0.913,1.513-1.86
					c-0.235-1.231-2.026-1.71-3.068-1.638c-1.004,0.069-2.261,0.684-2.282,1.826c-0.017,0.869,0.959,1.46,1.66,1.715
					c0.692,0.251,1.45,0.172,2.104-0.142c0.963-0.461,1.745-1.788,1.006-2.745c-0.759-0.98-3.303-0.412-3.457,0.82
					c-0.084,0.671,0.752,1.124,1.252,1.324c0.785,0.314,1.73,0.23,2.439-0.225c0.144-0.092,0.244-0.278,0.184-0.452
					c-0.417-1.2-1.711-1.697-2.887-1.314c-0.489,0.159-0.922,0.519-1.041,1.033c-0.153,0.658,0.333,1.252,0.786,1.659
					C171.673,120.943,172.241,120.38,171.856,120.035L171.856,120.035z"/>
			</g>
		</g>
		<g>
			<g>
				<path fill="#231F20" d="M135.58,120.706c-0.134,0.318-0.61,0.823-0.998,0.5c-0.299-0.249-0.227-0.487,0.084-0.609
					c0.509-0.2,1.143-0.059,1.512,0.333c0.059-0.223,0.118-0.446,0.176-0.668c-0.518,0.201-0.823,0.289-1.34,0.041
					c0.048,0.182,0.096,0.365,0.144,0.547c0.25-0.524,1.215-1.847,1.595-0.654c0.333,1.048-1.657,0.503-2.061,0.35
					c-0.084-0.032-0.228-0.092-0.283-0.169c0.032,0.045-0.045,0.116,0.017,0.042c0.177-0.208,0.482-0.322,0.731-0.415
					c0.39-0.145,1.25-0.432,1.6-0.226c-0.16-0.094-0.023-0.301-0.153-0.105c-0.095,0.143-0.259,0.261-0.389,0.37
					c-0.434,0.364-0.961,0.766-1.551,0.79c-0.747,0.031-0.958-0.919-0.857-1.493c0.169-0.977,1.021-1.04,1.793-0.655
					c1.666,0.832-0.257,2.287-1.459,1.766c-0.285-0.124-0.5-0.346-0.694-0.58c0,0.188,0,0.377,0,0.565
					c0.856-1.058,2.495-1.148,2.958,0.318c0.062-0.151,0.123-0.301,0.184-0.452c-0.68,0.358-1.429,0.394-2.17,0.234
					c-0.12-0.026-1.403-0.504-1.258-0.682c0.332-0.408,1.477-0.391,1.933-0.271c0.495,0.13,0.609,0.632,0.491,1.068
					c-0.301,1.114-2.107,1.119-2.648,0.211c-0.375-0.629,1.445-1.136,1.773-1.17c0.399-0.042,0.832,0.009,1.131,0.298
					c0.321,0.311,0.343,0.911-0.053,1.144c-0.734,0.431-2.354-0.047-2.452-0.98c-0.222-2.114,5.227-1.121,1.962,0.843
					c-0.974,0.586-3.329-0.602-2.343-1.781c1.03-1.232,2.806,0.452,3.151,1.477c0.326,0.966-1.122,1.761-1.542,0.759
					c-0.264-0.63-0.103-1.613,0.731-1.58c0.372,0.015,1.891,0.694,1.437,1.275c-0.407,0.52-1.266,0.702-1.882,0.771
					c-0.267,0.03-1.432,0.13-1.484-0.319c-0.071-0.612,1.034-1.751,1.616-1.813c0.597-0.063,0.677,1.031,0.669,1.415
					c-0.004,0.183-0.036,0.562-0.185,0.666c-0.116,0.082-0.543-0.465-0.637-0.595c-0.298-0.415-0.993-0.016-0.69,0.403
					c0.35,0.487,0.997,1.285,1.691,0.904c0.525-0.288,0.625-0.994,0.623-1.533c-0.003-0.62-0.184-1.343-0.662-1.769
					c-0.597-0.531-1.337-0.229-1.886,0.2c-0.579,0.451-1.425,1.367-1.331,2.18c0.077,0.662,0.701,0.96,1.295,1.044
					c1.166,0.165,3.291-0.161,3.707-1.488c0.24-0.764-0.518-1.383-1.077-1.734c-0.741-0.466-1.802-0.638-2.426,0.101
					c-1.013,1.199-0.139,3.561,1.598,3.064c2.848-0.813,0.38-4.36-1.549-4.608c-1.079-0.139-2.214,0.652-2.152,1.8
					c0.06,1.116,1.171,1.97,2.199,2.133c1.937,0.306,4.411-2.619,1.899-3.61c-1.615-0.637-4.414,0.389-3.32,2.527
					c0.741,1.447,4.383,1.811,4.115-0.4c-0.26-2.149-2.975-1.804-4.219-0.755c-1.353,1.139,0.213,2.473,1.48,2.573
					c1.472,0.118,2.886-1.361,2.093-2.807c-0.379-0.691-1.282-0.84-1.99-0.741c-0.642,0.09-1.949,0.216-1.859,1.162
					c0.069,0.728,0.945,1.106,1.539,1.309c1.006,0.344,2.15,0.263,3.087-0.232c0.153-0.081,0.236-0.287,0.184-0.452
					c-0.627-1.988-3.029-2.234-4.294-0.67c-0.147,0.182-0.151,0.384,0,0.565c0.807,0.973,2.069,1.204,3.182,0.621
					c0.897-0.47,1.333-1.613,0.655-2.451c-0.594-0.735-1.784-1.249-2.699-0.821c-0.694,0.325-1,1.068-1.037,1.796
					c-0.036,0.72,0.281,1.478,0.909,1.857c0.835,0.504,1.88-0.032,2.549-0.562c0.39-0.309,1.361-0.974,0.917-1.598
					c-0.345-0.484-1.112-0.352-1.609-0.265c-0.715,0.126-1.847,0.439-2.11,1.215c-0.396,1.167,2.068,1.454,2.686,1.392
					c1.148-0.116,1.624-1.335,0.892-2.218c-1.01-1.218-2.27,0.036-2.75,1.044c-0.088,0.184-0.065,0.447,0.144,0.547
					c0.726,0.35,1.205,0.332,1.957,0.041c0.279-0.108,0.397-0.434,0.176-0.668c-0.709-0.752-2.958-1.078-3.151,0.353
					c-0.083,0.617,0.521,1.433,1.179,1.41c0.739-0.026,1.302-0.55,1.58-1.209C136.551,120.443,135.776,120.238,135.58,120.706
					L135.58,120.706z"/>
			</g>
		</g>
		<g>
			<g>
				<path fill="#231F20" d="M167.931,118.12c0.135,1.294,0.389,2.734,1.627,3.423c0.451,0.251,0.854-0.44,0.404-0.69
					c-0.965-0.536-1.127-1.732-1.23-2.732C168.678,117.612,167.878,117.606,167.931,118.12L167.931,118.12z"/>
			</g>
		</g>
		<g>
			<g>
				<path fill="#231F20" d="M168.495,117.794c-0.308,1.524,0.63,3.325,2.051,3.968c0.467,0.211,0.873-0.479,0.404-0.69
					c-1.079-0.488-1.924-1.873-1.684-3.064C169.368,117.503,168.597,117.289,168.495,117.794L168.495,117.794z"/>
			</g>
		</g>
		<g>
			<g>
				<path fill="#231F20" d="M131.423,118.685c0.216,0.11,0.393,0.213,0.578,0.376c-0.035-0.129-0.069-0.259-0.103-0.389
					c-0.262,1.347-0.44,2.98,0.844,3.859c0.427,0.292,0.826-0.401,0.403-0.69c-0.774-0.53-0.688-1.609-0.57-2.429
					c0.035-0.246,0.192-0.6,0.054-0.834c-0.157-0.269-0.538-0.448-0.803-0.583C131.368,117.761,130.963,118.452,131.423,118.685
					L131.423,118.685z"/>
			</g>
		</g>
		<g>
			<g>
				<path fill="#231F20" d="M131.17,118.797c-0.914,1.644-0.148,3.218,1.242,4.283c0.41,0.314,0.807-0.381,0.403-0.69
					c-1.035-0.793-1.641-1.955-0.955-3.189C132.111,118.75,131.42,118.346,131.17,118.797L131.17,118.797z"/>
			</g>
		</g>
		<g>
			<g>
				<path fill="#231F20" d="M130.36,119.003c-0.42,1.756,0.638,3.372,2.162,4.188c0.454,0.244,0.858-0.447,0.403-0.69
					c-1.195-0.641-2.131-1.874-1.794-3.285C131.252,118.714,130.48,118.501,130.36,119.003L130.36,119.003z"/>
			</g>
		</g>
	</g>
</g>
<g id="Layer_1">
	<g>
		<path d="M299,1v298H1V1H299 M300,0H0v300h300V0L300,0z"/>
	</g>
</g>
</svg>
